<?xml version="1.0" encoding="UTF-8"?>
<svg width="304px" height="323px" viewBox="0 0 304 323" version="1.1" xmlns="http://www.w3.org/2000/svg" xmlns:xlink="http://www.w3.org/1999/xlink">
    <!-- Generator: Sketch 51.3 (57544) - http://www.bohemiancoding.com/sketch -->
    <title>path-1</title>
    <desc>Created with Sketch.</desc>
    <defs></defs>
    <g id="About" stroke="none" stroke-width="1" fill="none" fill-rule="evenodd" opacity="0.5">
        <g id="Artboard-4" transform="translate(-161.000000, -85.000000)" stroke="#8B8F93">
            <path d="M259.627301,99.7645257 L259.622234,99.767001 C239.282467,109.561399 216.79799,126.293064 199.208257,146.088841 C177.476804,170.545779 164.219238,198.119268 162.288712,227.369276 C157.706494,290.639317 191.207173,361.129255 239.490959,390.568396 C272.698968,410.845331 317.662687,412.00308 363.034407,396.758484 C404.190542,382.930296 439.96671,357.107137 454.146854,331.046296 C467.133552,307.031566 467.292346,277.682275 456.778944,247.96666 C447.751427,222.450828 431.321087,198.952855 415.094603,187.196542 C406.586636,180.992106 392.121214,178.644872 366.452865,177.742796 C363.669727,177.644987 361.792154,177.589668 356.325596,177.437506 C329.651357,176.695026 319.83272,175.635397 313.775134,171.479208 C305.702168,165.940241 310.466744,155.723709 330.170382,138.79245 C360.271144,112.817995 361.547408,95.021558 339.734378,88.256344 C319.988513,82.132252 285.548094,86.9205105 259.627301,99.7645257 Z" id="path-1"></path>
        </g>
    </g>
</svg>