<?xml version="1.0" encoding="UTF-8"?>
<svg width="99px" height="99px" viewBox="0 0 99 99" version="1.1" xmlns="http://www.w3.org/2000/svg" xmlns:xlink="http://www.w3.org/1999/xlink">
    <!-- Generator: Sketch 51.3 (57544) - http://www.bohemiancoding.com/sketch -->
    <title>party-hat</title>
    <desc>Created with Sketch.</desc>
    <defs>
        <linearGradient x1="-11.467666%" y1="33.9142694%" x2="80.4722421%" y2="94.7346472%" id="linearGradient-1">
            <stop stop-color="#2E5EA8" offset="0%"></stop>
            <stop stop-color="#0E963E" offset="100%"></stop>
        </linearGradient>
    </defs>
    <g id="Icons" stroke="none" stroke-width="1" fill="none" fill-rule="evenodd">
        <g id="Artboard-3" transform="translate(-375.000000, -430.000000)">
            <g id="party-hat" transform="translate(374.403416, 429.022135)">
                <g transform="translate(0.490196, 0.501685)">
                    <polygon fill="url(#linearGradient-1)" fill-rule="nonzero" points="62.7739776 0.647813619 49.6392215 14.1440395 36.5034505 0.647813619 31.876192 18.9022787 13.7538622 13.7827056 18.8743973 31.905223 0.6191062 36.5335444 14.1151924 49.6674215 0.6191062 62.8023135 18.8743973 67.4296199 13.7538622 85.5521373 31.876192 80.4325642 36.5034505 98.6870293 49.6392215 85.1918184 62.7739776 98.6870293 67.4002211 80.4325642 85.5235658 85.5521373 80.4030308 67.4296199 98.6583219 62.8023135 85.1622357 49.6674215 98.6583219 36.5335444 80.4030308 31.905223 85.5235658 13.7827056 67.4002211 18.9022787"></polygon>
                    <g id="expect-friends" transform="translate(50.975917, 50.706588) scale(-1, 1) rotate(-15.000000) translate(-50.975917, -50.706588) translate(34.799446, 23.745803)" fill="#FFFFFF">
                        <path d="M13.4564413,30.9146595 L13.8556628,30.9146595 L27.8074486,30.9146595 L27.8074486,42.8563615 C27.8074486,48.8307066 22.9643156,53.6738396 16.9899704,53.6738396 L13.8556628,53.6738396 L13.4564413,53.6738396 L12.4839267,53.6738396 C6.50945451,53.6738396 1.66644856,48.8307066 1.66644856,42.8563615 L1.66644856,30.9146595 L13.4564413,30.9146595 Z" id="Fill-6" stroke="#1B7F68" stroke-width="2" stroke-linecap="round" stroke-linejoin="round" transform="translate(14.736949, 42.294250) scale(-1, 1) translate(-14.736949, -42.294250) "></path>
                        <g id="Group-2" transform="translate(9.454468, 0.704370)">
                            <path d="M-0.250496654,31.1345326 L6.51293719,2.80577281 C7.05237113,0.546945475 9.32058833,-0.846953567 11.579586,-0.307726246 C13.8385474,0.231532395 15.2325916,2.50003744 14.693163,4.75884212 L7.92976975,33.0873045 C7.39068082,35.3464235 5.1221663,36.7405252 2.86320822,36.2011 C0.604288435,35.6618513 -0.789773246,33.3934019 -0.250498975,31.1345423 Z" id="Fill-1" stroke="#1F7877" stroke-width="2" transform="translate(7.221357, 17.946710) scale(-1, 1) translate(-7.221357, -17.946710) "></path>
                            <path d="M14.2327538,4.09554382 C14.2326969,4.088211 14.2326645,4.08087237 14.2326566,4.07352799 C14.2307217,2.28662878 15.6778611,0.836522602 17.4647603,0.834716742 C19.2516596,0.832781891 20.7017657,2.27979231 20.7035716,4.06669152 C20.7035728,4.06784848 20.7035735,4.06900531 20.7035735,4.07016199 L20.7034752,4.09576194 C20.7031312,4.1403307 20.7018858,4.1846853 20.6997564,4.22880848 L19.9809718,29.9448104 L13.5100567,29.9516469 L14.2327538,4.09554382 Z" id="Combined-Shape" transform="translate(17.107124, 15.393181) scale(-1, 1) rotate(-5.000000) translate(-17.107124, -15.393181) "></path>
                        </g>
                        <path d="M6.30663432,25.312332 L12.2837932,33.1194793 C12.3680796,33.2096399 12.4481433,33.3041915 12.5236975,33.4028803 C13.7809556,35.0448904 13.4689256,37.3951474 11.8268859,38.6525562 C10.184797,39.9097073 7.83440809,39.5976667 6.57726092,37.955583 C6.50169596,37.8568801 6.4313269,37.7549428 6.36629932,37.6500819 L0.390025247,29.8433469 C0.350815662,29.7949583 0.350815662,29.7949583 0.31249888,29.7454823 C-0.939147255,28.1105841 -0.628475237,25.770607 1.00636974,24.5190016 C2.6412368,23.2672129 4.98122151,23.5778276 6.23306227,25.2127626 C6.27222406,25.2646116 6.27691662,25.2708244 6.30663432,25.312332 Z" id="Combined-Shape" stroke="#198362" stroke-width="2"></path>
                        <path d="M14.0768121,35.0726574 L14.0768004,35.0726419 L5.24923436,23.4790501 C3.90869616,21.7182613 4.24927921,19.2041006 6.00997899,17.8635807 C7.7707175,16.5228691 10.284778,16.8633854 11.6254967,18.6241332 C11.6306648,18.6309301 11.6306648,18.6309301 11.6332897,18.6344122 L20.453004,30.2176921 C21.7937169,31.9784323 21.4531978,34.4926142 19.6924052,35.8333669 C17.9316461,37.173932 15.4175024,36.8333679 14.0768121,35.0726574 Z" id="Combined-Shape" stroke="#1A8166" stroke-width="2"></path>
                        <path d="M15.0699457,44.0285793 C15.0699457,39.9285032 17.857145,36.4793508 21.640017,35.4724983 L21.0423308,35.4724983 L18.5380609,35.4724983 C14.6264792,35.4724983 11.455561,32.3015801 11.455561,28.3899983 L23.4306009,28.3899983 L26.4718646,28.3899983 C28.4217853,28.3899983 30.0023951,29.9707357 30.0023951,31.9205288 L30.0023951,40.5267234 L30.0023058,42.0170855 C30.0023058,47.150899 26.4416611,51.4530298 21.6550744,52.5885351" id="Combined-Shape" stroke="#207779" stroke-width="2" stroke-linecap="round" stroke-linejoin="round"></path>
                    </g>
                </g>
            </g>
        </g>
    </g>
</svg>