<?xml version="1.0" encoding="UTF-8"?>
<svg width="981px" height="451px" viewBox="0 0 981 451" version="1.1" xmlns="http://www.w3.org/2000/svg" xmlns:xlink="http://www.w3.org/1999/xlink">
    <!-- Generator: Sketch 51.3 (57544) - http://www.bohemiancoding.com/sketch -->
    <title>wave</title>
    <desc>Created with Sketch.</desc>
    <defs></defs>
    <g id="About" stroke="none" stroke-width="1" fill="none" fill-rule="evenodd" opacity="0.5">
        <g id="Artboard-4" transform="translate(-403.000000, -324.000000)" stroke="#8B8F93">
            <path d="M457.252698,459.301725 L457.252222,459.302503 C378.650974,587.398183 386.276741,688.697827 489.154178,763.959126 C513.083305,781.484641 557.568211,775.856778 625.947473,749.776256 C654.384081,738.930254 686.699742,724.715008 727.715746,705.317059 C743.874039,697.67522 760.765571,689.532931 783.621402,678.405468 C781.345806,679.513352 828.345106,656.591165 841.621158,650.154824 C869.606978,636.587064 892.33115,625.76471 914.195031,615.659896 C998.603125,576.649068 1064.48524,551.264549 1122.25476,537.431146 C1191.80948,520.775675 1246.28182,522.188034 1285.91461,544.413219 C1330.39507,569.12048 1360.72455,579.968626 1374.88681,577.581087 C1387.00105,575.538813 1385.79324,563.308055 1372.16688,545.15509 C1358.08007,526.388712 1332.96552,504.351237 1303.17365,485.364378 C1268.87865,463.507596 1230.73139,446.970756 1192.46779,438.575532 C1165.91678,432.642884 1131.83907,433.467096 1089.34815,440.197397 C1054.74646,445.678093 1016.84448,454.516562 964.386075,468.645108 C955.370738,471.073196 946.119149,473.600657 934.009233,476.935122 C864.864083,495.974238 852.055975,499.404287 824.456768,505.804029 C786.751389,514.547205 757.550564,519.093456 734.278213,519.298718 C679.074641,519.785611 657.801905,495.182793 673.565036,437.957088 C686.328183,390.742107 685.566985,358.237664 672.838143,340.487352 C661.465906,324.62882 640.66067,321.007854 613.492318,328.911798 C560.86279,344.223027 493.487149,400.008544 457.252698,459.301725 Z" id="wave" transform="translate(893.771920, 549.340337) scale(-1, 1) translate(-893.771920, -549.340337) "></path>
        </g>
    </g>
</svg>