<?xml version="1.0" encoding="UTF-8"?>
<svg width="74px" height="74px" viewBox="0 0 74 74" version="1.1" xmlns="http://www.w3.org/2000/svg" xmlns:xlink="http://www.w3.org/1999/xlink">
    <!-- Generator: Sketch 51.3 (57544) - http://www.bohemiancoding.com/sketch -->
    <title>airbnb-logo</title>
    <desc>Created with Sketch.</desc>
    <defs></defs>
    <g id="Location-and-Hotels" stroke="none" stroke-width="1" fill="none" fill-rule="evenodd">
        <path d="M63.2882428,62.6890385 C61.7623819,64.8954843 59.7238428,66.0460243 59.6919152,66.0637108 C59.2518205,66.3067276 49.1248175,71.6758377 39.6572675,58.9305465 C42.2985251,55.9330327 48.3737163,48.1803822 48.3737163,40.2917526 C48.3737163,30.9769495 42.0633179,27.6718746 36.6592942,27.6718746 C35.7421239,27.6718746 32.5224954,27.8351875 29.5938899,29.935055 C27.5427176,31.4055595 25.0978488,34.2521641 25.0978488,39.462785 C25.0978488,46.4737517 31.6374823,55.3907238 34.3239898,58.7582756 C32.0346242,61.4020599 26.2727364,67.3539051 20.5260085,67.7195788 C13.5800453,68.1622002 10.4245015,62.6637721 10.2990883,62.4391308 C10.2864551,62.4159316 10.291049,62.4237413 10.277497,62.4007718 C10.184241,62.235162 8.01156029,58.28878 9.61643611,53.0884954 C11.0878594,48.321185 23.4417511,23.8290848 29.7686874,11.5443312 C29.7781049,11.5261853 29.7872927,11.5075801 29.7962508,11.4889748 C29.8212875,11.4366045 32.3509136,6.25400634 37.0029173,6.25400634 C39.2856217,6.25400634 41.2697232,7.52582506 42.9000952,10.0343192 C45.7166097,14.3675069 59.9912072,42.83539 64.0623134,53.088725 C65.4818257,56.6639207 65.2213521,59.8938855 63.2882428,62.6890385 M37.077568,55.5813703 C34.0194148,51.6483105 29.2323507,44.435672 29.2323507,39.462785 C29.2323507,31.8934308 36.3560974,31.8063765 36.6592942,31.8063765 C38.9383236,31.8063765 44.2392144,32.6332769 44.2392144,40.2917526 C44.2392144,46.286321 39.5771041,52.6178512 37.077568,55.5813703 M67.9048736,51.5630938 C63.7058275,40.9872677 49.3811566,12.4187784 46.3666453,7.7810157 C43.3250301,3.10190803 39.5959391,2.11950444 37.0029173,2.11950444 C29.948768,2.11950444 26.3887321,9.04778114 26.0823196,9.67232063 C25.1860515,11.4127162 7.60293369,45.5926434 5.66591955,51.8692767 C3.56444411,58.6781122 6.41288623,63.9654511 6.68025068,64.4386218 C6.97954268,64.9770259 10.9902392,71.8807253 19.7094443,71.8804956 C20.0613364,71.8804956 20.4212677,71.8692405 20.7885493,71.845582 C27.63115,71.4103108 33.9238619,65.4056359 36.8846246,62.1129645 C42.5909263,69.407604 48.6376353,71.2706565 52.8630963,71.4927712 C57.8217422,71.7541636 61.3755763,69.8575757 61.699905,69.6781842 C61.9148991,69.5594321 64.5308903,68.0776726 66.5772391,65.2000593 C68.5510043,62.4244303 70.3835074,57.8052729 67.9048736,51.5630938" id="airbnb-logo" fill="#FF5961"></path>
    </g>
</svg>