<svg xmlns="http://www.w3.org/2000/svg" viewBox="0 0 1000 250"><defs><style>.cls-1{stroke:#f22;stroke-miterlimit:10;}.cls-2{fill:#fff;}.cls-3{fill:none;stroke:#000;stroke-linecap:round;stroke-linejoin:round;stroke-width:12px;fill-rule:evenodd;}</style></defs><title>LogoWithText</title><g id="Layer_1" data-name="Layer 1"><line class="cls-1" x1="125.46" y1="40.23" x2="125.48" y2="146.14"/><path d="M193.45,174.28,133.54,46.54s-2.24-6.31-8.08-6.31-8.08,6.31-8.08,6.31L57.47,174.28s-4.28,9,7.37,14.55,15.94-3.47,15.94-3.47l18.52-39h52.3l18.52,39s4.28,9,15.94,3.47S193.45,174.28,193.45,174.28Z"/></g><g id="Layer_5" data-name="Layer 5"><g id="Layer_3" data-name="Layer 3"><path class="cls-2" d="M141,107.58s0-3.73,0-5.12a15.4,15.4,0,1,0-30.8,0c0,.16,0,5.12,0,5.12l.05,21h30.8Zm-23.36.07s0-4.32,0-5.12a7.93,7.93,0,0,1,15.87,0c0,1.58,0,5.12,0,5.12Z"/></g></g><g id="Layer_4" data-name="Layer 4"><path class="cls-3" d="M201.15,50.38Q232.5,81.73,232.5,126t-31.35,75.65Q169.8,233,125.5,233T49.9,201.63Q18.55,170.27,18.55,126T49.9,50.38Q81.25,19,125.5,19T201.15,50.38Z"/><path d="M301.26,84c.82-2.78,2-5.25,5.25-5.25s4.64,2.57,5.36,5.25l19.88,69.73c.72,2.47-2.06,5.15-4.94,5.15-3.19,0-4.84-2.68-5.56-5.15l-3.81-12.36H295.49l-3.91,12.36c-.72,2.47-2.37,5.15-5.56,5.15-2.88,0-5.67-2.68-4.94-5.15Zm5.36,19.16h-.21l-8,27.91h16.17Z"/><path d="M404.88,151.53c0,2.27.41,7.31-4.84,7.31-4.22,0-4.94-3.5-4.94-6.9v-1.65l-8,5.25c-3.19,2.06-5.87,3.3-8.55,3.3H371.2a13.77,13.77,0,0,1-9.17-3.6c-4.43-3.81-4.33-8-4.53-13.39l-1-31.1c-.1-3.6.41-7.42,4.94-7.42,4.22,0,4.74,3.6,4.84,6.8l1,30.38c.1,2.27.21,4.94,1,6.39s3.4,2.06,5.77,2.06h3.3a5.45,5.45,0,0,0,3.09-.93L395,138.86V110.12c0-3.4.72-6.8,4.94-6.8s4.94,3.4,4.94,6.8Z"/><path d="M450.5,140.2c0,5.56-.21,8.75,6.59,8.75h5c4,0,5.87-.31,6.9-4.33a5.06,5.06,0,0,1,4.94-4,5,5,0,0,1,5,4.94c0,2.78-1.75,6.28-3.4,8.24-3.6,4.33-8.34,5-13.6,5h-5c-4.94,0-9.27-1.13-12.77-4.94-3.81-4.22-3.6-8.45-3.6-13.8V113.21h-3.19c-2.88,0-6.8-.62-6.8-4.94s3.5-4.94,6.8-4.94h3.19V93.23c0-3.4.72-6.8,4.94-6.8s4.94,3.4,4.94,6.8v10.09h16.58c3.3,0,6.8.72,6.8,4.94s-3.91,4.94-6.8,4.94H450.5Z"/><path d="M532.39,113.21a6,6,0,0,0-3.09.93l-14.62,9.17V152c0,3.4-.72,6.8-4.94,6.8s-4.94-3.4-4.94-6.8V89.73c0-3.4.72-6.8,4.94-6.8s4.94,3.4,4.94,6.8v22.14l8-5.25c2.58-1.65,5.56-3.3,8.86-3.3h6.59a13.14,13.14,0,0,1,9.58,3.6c4.43,3.81,4.22,8,4.43,13.39l1,31.1c.1,3.5-.41,7.42-4.84,7.42-4,0-4.84-3.4-4.94-6.69l-1-30.49c-.21-4.74.1-8.45-5.46-8.45Z"/><path d="M608.09,119.91V152c0,3.4-.72,6.8-4.94,6.8s-4.94-3.4-4.94-6.8V119c0-1.65.21-4.74-2.37-4.74-1.13,0-1.85.93-2.68,1.65l-4.33,4V152c0,3.4-.72,6.8-4.94,6.8s-4.94-3.4-4.94-6.8V110.33c0-3.5.93-7,5.15-7a4.85,4.85,0,0,1,4.74,3.91l.82-.62c2.58-2,4.12-3.3,7.52-3.3,3.81,0,6.8,1.85,9.06,4.94l.82-.82c3.09-3.09,4.33-4.12,8.65-4.12a10.2,10.2,0,0,1,8.24,4c2.47,3.19,2.27,6.08,2.37,9.89l1,34.19c.1,3.5-.41,7.42-4.84,7.42-4,0-4.84-3.4-4.94-6.69l-1-32.65c-.1-1.75.41-5.25-2.27-5.25-1.44,0-3.3,2.47-4.12,3.4Z"/><path d="M669.68,113.21c-2.88,0-6.8-.62-6.8-4.94s3.5-4.94,6.8-4.94h13.6c5.15,0,8.86.51,12.77,4.43s4.33,6.8,4.43,11.74l1,33.58c.1,2.88-1.34,5.77-4.63,5.77a5,5,0,0,1-5-4.94l-6.8,3.5c-2.78,1.44-2.88,1.44-6.08,1.44h-9.48c-4.43,0-7.62-.51-11.23-3.5-4.12-3.4-5.15-7-5.15-12.15v-4.33c0-4.74,1.13-7.72,4.84-11,3.4-3,7.21-3.71,11.54-3.71h21.22v-2.27c0-7.42-1.65-8.65-8.75-8.65Zm-.1,20.81c-2.68,0-6.59.72-6.59,4.33v6.59c0,3.3,4,4,6.39,4h10.92l10.92-5.67v-2.16c0-5.46-1.54-7.11-7-7.11Z"/><path d="M759.81,107.34c1.75-1.54,4.22-4,6.59-4a5,5,0,0,1,4.94,5c0,2.37-1.54,3.5-3.3,4.94l-19.16,15.86,23.28,19.36c1.85,1.54,3.5,2.68,3.5,5.25a5,5,0,0,1-4.94,5c-2,0-3.19-1.24-4.63-2.37l-24.82-20.7-4.12,3.71V152c0,3.4-.72,6.8-4.94,6.8s-4.94-3.4-4.94-6.8V89.73c0-3.4.72-6.8,4.94-6.8s4.94,3.4,4.94,6.8V126.4Z"/><path d="M819.54,158.84c-4.12,0-5.77,0-8.86-2.68l-4.22-3.71c-3.91-3.5-5-5.77-5-11.12V122.28c0-5.25.72-8.34,4.84-11.84l3.5-3c4.63-4,6.9-4.12,10.92-4.12h9.06c4.84,0,7.11.51,10.92,3.6l4,3.19c4.53,3.6,5.15,7.42,5.15,12.87v7.93c0,5.67-.93,7.31-6.8,7.31H811.3v3.3a4.84,4.84,0,0,0,1.44,2.88l2.47,2.68c1.34,1.44,3.3,1.85,6.59,1.85H843c3.3,0,6.8.72,6.8,4.94s-3.91,4.94-6.8,4.94Zm-8.24-30.49h28.63v-6c0-1.85.1-3.4-1.24-4.63l-3.81-3.3c-1.24-1.13-3.19-1.24-4.74-1.24h-8.34c-1.85,0-3.4,0-5,1.13l-3.4,2.47c-1.24.93-2.06,1.65-2.06,4.53Z"/><path d="M875.58,110.64c0-3.6.41-7.31,4.94-7.31,3.91,0,4.94,3.3,4.94,6.59v4l7.72-6.39c2.78-2.27,5.67-4.22,8.75-4.22h7.93a13,13,0,0,1,9.68,3.91c3.3,3.3,4.43,6.69,4.43,11.23,0,3.4-.62,6.9-4.84,6.9-3.61,0-5-2.88-5-6.08a6.47,6.47,0,0,0-1-4.33c-1.24-1.75-3.6-1.75-6-1.75h-2.88c-1.85,0-3.19.93-4.94,2.37L885.46,127v25c0,3.4-.72,6.8-4.94,6.8s-4.94-3.4-4.94-6.8Z"/></g></svg>