<?xml version="1.0" encoding="UTF-8"?>
<svg width="428px" height="120px" viewBox="0 0 428 120" version="1.1" xmlns="http://www.w3.org/2000/svg" xmlns:xlink="http://www.w3.org/1999/xlink">
    <!-- Generator: Sketch 48.2 (47327) - http://www.bohemiancoding.com/sketch -->
    <title>nurx-logo-positive-official</title>
    <desc>Created with Sketch.</desc>
    <defs></defs>
    <g id="Page-1" stroke="none" stroke-width="1" fill="none" fill-rule="evenodd">
        <g id="nurx-logo-positive-official" fill="#FC6855" fill-rule="nonzero">
            <polygon id="Shape" points="425.6 0.5 402 0.5 364 43.8 326.1 0.5 302.5 0.5 352.2 57.2 300.7 115.9 324.4 115.9 364 70.7 403.7 115.9 427.4 115.9 375.9 57.2"></polygon>
            <path d="M106,115.9 L88.3,115.9 L88.3,53 C88.3,33.6 72.5,17.7 53,17.7 C33.5,17.7 17.8,33.6 17.8,53 L17.8,115.9 L0,115.9 L0,53 C0,38.8 5.5,25.5 15.5,15.5 C25.5,5.5 38.9,0 53,0 C67.1,0 80.5,5.5 90.5,15.5 C100.5,25.5 106,38.8 106,53 L106,115.9 Z" id="Shape"></path>
            <path d="M248.5,115.9 L230.7,115.9 L230.7,53 C230.7,38.8 236.2,25.5 246.2,15.5 C256.2,5.5 269.5,0 283.7,0 L294.2,0 L294.2,17.8 L283.7,17.8 C264.3,17.8 248.4,33.6 248.4,53.1 L248.4,115.9 L248.5,115.9 Z" id="Shape"></path>
            <path d="M168.5,119.4 C154.3,119.4 141,113.9 131,103.9 C121,93.9 115.5,80.6 115.5,66.4 L115.5,3.5 L133.3,3.5 L133.3,66.4 C133.3,85.8 149.1,101.7 168.6,101.7 C188.1,101.7 203.9,85.9 203.9,66.4 L203.9,3.5 L221.7,3.5 L221.7,66.4 C221.7,80.6 216.2,93.9 206.2,103.9 C195.9,113.8 182.6,119.4 168.5,119.4 Z" id="Shape"></path>
        </g>
    </g>
</svg>