<svg xmlns="http://www.w3.org/2000/svg" width="273" height="81" viewBox="0 0 273 81">
  <g fill="none" fill-rule="evenodd">
    <path fill="#CEC7D1" fill-rule="nonzero" d="M44.3145956,80.346747 C22.0492941,80.346747 4,79.1496386 4,77.673253 C4,76.1968675 22.0492941,75 44.3145956,75 C66.5798971,75 84.6294387,76.1968675 84.6294387,77.673253 C84.6294387,79.1496386 66.5798971,80.346747 44.3145956,80.346747" opacity=".395"/>
    <g fill-rule="nonzero">
      <path fill="#2B023F" d="M99.6731373,18.093012 C99.2327475,16.6906024 97.9251936,15.7481928 96.4191054,15.7481928 C95.9705466,15.7481928 95.5316422,15.8339759 95.1142745,16.0031325 C94.0458529,16.4361446 92.3793529,16.9428916 90.2962279,17.0371084 C86.0859142,14.0559036 75.8764975,6.85421687 69.8192206,2.81373494 C69.8192206,2.81373494 70.6678186,5.21518072 71.8397157,9.70168675 C71.8397157,9.70168675 62.2617966,4.43759036 55.8851814,0.393012048 C55.8851814,0.393012048 58.2678407,5.12819277 58.4651373,6.66144578 C58.4651373,6.66144578 50.881473,5.38746988 39.7925147,3.04963855 C39.7925147,3.04963855 48.040848,7.53807229 50.0722353,10.2404819 C50.0722353,10.2404819 40.1499755,9.58626506 28.4636814,8.93590361 C28.4636814,8.93590361 34.3870343,11.8556627 37.276674,14.2137349 C37.276674,14.2137349 26.6833088,15.7310843 18.6134583,16.1151807 C18.6134583,16.1151807 24.5986985,20.6739759 27.0142819,22.8816867 C27.0142819,22.8816867 16.9380466,26.7585542 4.90468873,33.566988 C4.90468873,33.566988 11.2456569,33.873012 15.8173922,35.293253 C15.8173922,35.293253 10.3032377,40.0366265 0.450786765,50.9127711 C0.450786765,50.9127711 6.77764461,50.6857831 11.8823529,50.013253 C11.8823529,50.013253 7.88493137,56.0426506 2.91439461,66.8737349 C2.91439461,66.8737349 6.32388725,64.7715663 9.62569608,64.0103614 C9.62569608,64.0103614 9.97993873,76.1681928 16.8474436,78.1159036 L16.8531373,78.1074699 C17.1895564,78.2106024 17.5106275,78.246988 17.7893676,78.246988 C18.1247966,78.246988 18.475326,78.1968675 18.831549,78.0978313 C21.0109706,77.4942169 22.6603897,75.4122892 24.5702304,73.0019277 C25.2745074,72.113253 26.0005686,71.1978313 26.7818333,70.313494 C26.9989338,70.9739759 27.2806446,71.7621687 27.618549,72.5578313 C28.8711471,75.5077108 30.2131103,76.9416867 31.7209314,76.9416867 C31.8357941,76.9416867 31.9521422,76.9327711 32.0662623,76.9154217 C33.9909559,76.6212048 35.7752892,73.0086747 37.2667721,69.5137349 C38.0272426,67.7325301 38.6961201,65.9537349 39.1511152,64.693494 C39.2048333,64.6968675 39.2578088,64.6985542 39.311527,64.7026506 C43.9441593,65.0546988 46.8006275,69.5151807 49.095902,73.0992771 C50.8257745,75.8007229 52.1922451,77.9344578 54.0996103,78.1387952 C54.2335343,78.153253 54.3672108,78.1604819 54.497174,78.1604819 C57.4125588,78.1604819 58.4371642,74.8653012 59.7345686,70.6937349 C59.8207157,70.4161446 59.9090907,70.1320482 59.9996936,69.8428916 C60.2630858,70.3462651 60.5497475,70.8725301 60.855223,71.4014458 C62.9871152,75.0920482 64.8744289,76.8992771 66.6250956,76.926747 L66.6746054,76.9272289 C68.1267279,76.9272289 69.0842475,75.9824096 69.5211716,74.1195181 C69.8476887,72.7279518 69.91725,70.8159036 69.997951,68.6016867 C70.1838603,63.4944578 70.439826,56.5209639 74.0265637,50.5277108 C76.6785564,48.9106024 79.6040907,47.4375904 82.4754118,45.9922892 C89.1597304,42.6274699 95.4737157,39.4493976 98.6408578,34.6274699 C100.224924,32.2159036 101.01015,29.2568675 100.974502,25.8320482 C100.942816,22.760241 100.249431,19.9279518 99.6731373,18.093012"/>
      <path fill="#9E66BF" d="M38.0455613 64.6537349C33.2423676 64.6537349 30.080424 66.8281928 27.5512157 69.4746988 28.2193505 71.6322892 29.8982279 76.2710843 31.9125343 75.9631325 33.875598 75.6628916 36.7835564 68.313012 38.1156176 64.6549398 38.0925956 64.6546988 38.0685833 64.6537349 38.0455613 64.6537349M68.4138848 54.6884337C63.9396838 58.9486747 61.8417059 64.1838554 60.4262206 68.5096386 61.8966618 71.4701205 64.4694387 75.9289157 66.6409387 75.9631325 71.0119118 76.0315663 66.7528309 62.7795181 72.3031275 51.6284337 70.8752647 52.586506 69.5580564 53.5992771 68.4138848 54.6884337"/>
      <path fill="#D6B5E5" d="M85.100174,21.5918072 C82.7967304,20.9995181 80.5836422,21.7939759 80.1566201,23.366506 C79.7298456,24.9392771 81.2510343,26.6942169 83.5542304,27.286506 C85.857674,27.8790361 88.0707623,27.0843373 88.4977843,25.5118072 C88.9245588,23.9392771 87.4033701,22.1840964 85.100174,21.5918072 Z M99.2503235,31.0660241 C98.9111814,32.1185542 98.4408382,33.1426506 97.8066176,34.1081928 C92.3194461,42.4624096 75.9903701,46.126506 67.7214902,53.9995181 C57.5766838,63.6587952 59.3719093,77.7344578 54.2080368,77.1809639 C50.5737696,76.7913253 47.8475123,64.3843373 39.3885147,63.7414458 C26.6189461,62.7713253 23.815701,75.7149398 18.5604828,77.1710843 C13.3052647,78.6272289 14.0672206,65.5016867 16.7815956,59.6903614 C19.1783652,54.5583133 23.4780441,47.3638554 30.0499755,49.0146988 C34.3986691,50.106988 29.3484216,57.2074699 29.3484216,57.2074699 C29.3484216,57.2074699 38.5453627,57.7877108 44.217701,49.5609639 C47.984902,44.0971084 60.4655809,25.406506 72.9754706,41.5739759 C72.9754706,41.5739759 68.0744951,28.0048193 71.2537672,21.4043373 C73.8626863,15.9881928 79.8667402,16.0961446 85.3308897,17.4737349 C89.8107843,18.6031325 93.3606373,17.7578313 95.4947574,16.893012 C95.9116299,16.7240964 96.3468211,16.6787952 96.7604755,16.7368675 C95.972527,16.773494 94.7610221,17.1809639 94.0602108,19.1503614 C93.0138211,22.0906024 98.7047255,19.8306024 99.9221716,24.4392771 C99.9221716,24.4392771 100.296713,31.4346988 94.3476152,30.5754217 L94.5798162,29.0583133 C94.5798162,29.0583133 92.6645294,30.2575904 94.0334755,32.6277108 L94.2528039,31.1951807 C95.4511887,31.6139759 97.1454142,31.8178313 99.2503235,31.0660241 Z M99.9224191,24.4392771 L99.9221716,24.4392771 L99.9221716,24.4390361 L99.9224191,24.4392771 Z"/>
      <path fill="#5C007B" d="M68.4138848 54.6884337C63.9013137 58.9850602 61.8060588 64.273012 60.390326 68.62 61.1824828 70.1939759 62.8326446 72.7139759 62.8326446 72.7139759 62.74625 63.9906024 70.2472328 53.8653012 71.5958799 52.1159036 70.4400735 52.9291566 69.3662059 53.7816867 68.4138848 54.6884337M27.4380858 69.593494C27.8784755 70.8508434 28.7649485 72.7139759 28.7649485 72.7139759 28.7649485 72.7139759 31.4491225 65.8763855 37.9715441 64.6549398 33.1388922 64.6780723 29.9729877 66.9074699 27.4380858 69.593494"/>
      <path fill="#C393DB" d="M18.5604828,77.1710843 C23.815701,75.7149398 26.6189461,62.7713253 39.3885147,63.7414458 C47.8475123,64.3843373 50.5737696,76.7913253 54.2080368,77.1809639 C54.2080368,77.1809639 52.2491814,73.2862651 50.6710564,68.3703614 C49.0929314,63.4546988 43.7151765,58.5390361 38.8290539,58.5390361 C33.9426838,58.5390361 28.4060025,61.0995181 25.3156005,67.5161446 C20.6604412,77.1809639 18.5604828,77.1710843 18.5604828,77.1710843"/>
      <path fill="#9E66BF" d="M37.276674,14.2137349 C33.6726078,14.6824096 23.7909461,15.6272289 18.1064779,15.8978313 C18.1064779,15.8978313 19.3999216,16.7144578 20.5158725,17.5816867 C28.0940907,17.0527711 37.9311936,14.6484337 37.276674,14.2137349 Z M27.0140343,22.8816867 C23.6411789,24.2792771 14.1607941,27.9289157 4.39523284,33.7149398 C4.39523284,33.7149398 5.68521078,33.6048193 6.89349755,33.7149398 C17.7175784,27.8236145 27.4091225,23.2175904 27.0140343,22.8816867 Z M50.0722353,10.2404819 C46.4028162,10.0062651 36.104777,9.22481928 27.9604142,8.7713253 C27.9604142,8.7713253 30.0430441,9.7146988 31.9677377,10.7918072 C41.7501324,11.3554217 50.8579559,10.8722892 50.0722353,10.2404819 Z M15.8173922,35.293253 C11.9754314,38.1681928 6.42761029,43.8375904 0.0242598039,51.1744578 C0.0242598039,51.1744578 0.759727941,50.9016867 1.29492892,50.8773494 C10.1975343,41.1761446 16.1062819,35.3715663 15.8173922,35.293253 Z M90.1219534,16.9110843 C90.1219534,16.9110843 77.2761397,7.77879518 69.5045858,2.5946988 C69.5045858,2.5946988 70.1378162,3.71614458 70.652223,5.44 C77.8969926,10.3354217 90.1219534,16.9110843 90.1219534,16.9110843 Z M11.8823529,50.013253 C9.40166422,52.9395181 6.07881373,59.4915663 2.91439461,66.8737349 C2.91439461,66.8737349 2.95821078,66.846988 3.03668382,66.800241 C7.63465931,57.0375904 12.0083554,49.9971084 11.8823529,50.013253 Z M71.8397157,9.70168675 C69.0094877,8.12506024 60.5658382,3.18313253 55.6160956,0.0436144578 C55.6160956,0.0436144578 56.5760907,1.76674699 57.2447206,3.27349398 C63.4401299,7.07036145 72.0365172,10.4043373 71.8397157,9.70168675 Z M44.351625,5.74674699 C41.9632721,4.23156627 39.291723,2.84385542 39.291723,2.84385542 C47.7484926,4.62650602 55.8945882,6.20915663 58.4651373,6.66144578 C58.7562549,7.40457831 52.527674,7.39518072 44.351625,5.74674699 Z"/>
      <polyline fill="#5C007B" points="56.882 10.098 65.301 15.322 70.762 14.888 56.882 10.098"/>
      <path fill="#9E66BF" d="M70.7623824,14.8879518 L56.8823088,10.0983133 L63.3287328,13.1361446 C65.6381176,14.2245783 68.1594044,14.8214458 70.7245074,14.886988 L70.7623824,14.8879518"/>
      <polyline fill="#5C007B" points="42.153 17.706 55.487 21.008 61.302 19.14 42.153 17.706"/>
      <path fill="#9E66BF" d="M61.3015539,19.1395181 L42.1533897,17.7055422 L53.9233554,19.6036145 C55.5611397,19.8392771 57.2246691,19.8546988 58.8666618,19.6491566 L61.3015539,19.1395181"/>
      <polyline fill="#5C007B" points="68.773 22.091 65.928 24.178 57.761 23.883 68.773 22.091"/>
      <path fill="#9E66BF" d="M68.7730784,22.0906024 L57.7613554,23.8833735 L62.2424877,23.7498795 C63.7859559,23.7038554 65.3103627,23.4016867 66.7496127,22.8566265 L68.7730784,22.0906024"/>
      <polyline fill="#5C007B" points="47.059 24.178 42.499 27.136 29.859 25.971 47.059 24.178"/>
      <path fill="#9E66BF" d="M47.0593162,24.1778313 L29.8593627,25.9706024 L39.460799,25.8207229 C41.7097819,25.7855422 43.9340098,25.3612048 46.0300074,24.5674699 L47.0593162,24.1778313"/>
      <polyline fill="#5C007B" points="65.928 29.065 61.302 31.57 48.728 30.858 65.928 29.065"/>
      <path fill="#9E66BF" d="M65.92775,29.0645783 L48.7277966,30.8575904 L58.4906348,30.7050602 C60.632924,30.6715663 62.7516961,30.2672289 64.7484265,29.5113253 L65.92775,29.0645783"/>
      <polyline fill="#5C007B" points="48.559 34.352 45.335 39.482 29.197 43.304 48.559 34.352"/>
      <path fill="#9E66BF" d="M29.1969216,43.3040964 L48.5592157,34.3520482 L46.0691201,36.2691566 C44.5932328,37.4053012 42.9440613,38.3098795 41.1810172,38.9503614 L29.1969216,43.3040964"/>
      <polyline fill="#5C007B" points="15.904 42.835 28.397 37.511 31.239 32.187 15.904 42.835"/>
      <path fill="#9E66BF" d="M15.9035392,42.8346988 L31.239201,32.186506 L31.1966225,32.2489157 C29.6110711,34.5831325 27.4759608,36.5151807 24.9685368,37.8843373 L15.9035392,42.8346988"/>
      <polyline fill="#5C007B" points="21.564 43.895 21.071 49.221 13.897 57.931 21.564 43.895"/>
      <path fill="#9E66BF" d="M13.897402,57.9306024 L21.5637475,43.8949398 C21.1473701,46.3361446 20.2061887,48.6643373 18.8015956,50.7272289 L13.897402,57.9306024"/>
      <path fill="#FFF" d="M84.5374951,23.3655422 C84.5268505,23.9474699 83.9607059,24.4098795 83.2730147,24.3978313 C82.5853235,24.3862651 82.0362598,23.9045783 82.0469044,23.3226506 C82.057549,22.7404819 82.6236936,22.2780723 83.3113848,22.2898795 C83.999076,22.3019277 84.5481397,22.7833735 84.5374951,23.3655422"/>
    </g>
    <path fill="#5C007B" d="M258.929365,62.8264172 C258.779756,63.3106089 258.536541,63.6505905 258.202121,63.841528 L258.105315,63.8906723 C257.742093,64.0421332 257.35407,64.0203809 256.897242,63.9059795 C255.421953,63.5337722 248.58154,62.7474641 251.317705,54.5774334 L252.940203,49.7306821 L252.572181,48.7888848 L250.793674,44.4658018 L239.653002,17.9979959 C239.408187,17.448547 239.496992,16.9482424 239.716205,16.6074552 C239.942619,16.2521664 240.342643,16.0725079 240.907477,16.0620345 L247.24626,16.0620345 C247.680686,16.0620345 248.050308,16.1820754 248.333525,16.4060443 C248.617543,16.6308189 248.825555,16.974023 249.001566,17.3969858 L257.179659,36.9596213 L263.045613,17.4517696 C263.171221,16.9844964 263.393634,16.6300132 263.693652,16.3947653 C263.98727,16.1643513 264.362493,16.0499499 264.800919,16.0499499 L271.570128,16.0499499 C272.144562,16.0499499 272.552587,16.2167181 272.792601,16.5276965 C273.032616,16.8507595 273.064618,17.3180328 272.887007,17.9190428 L263.784058,47.1332874 L260.272646,58.4686915 L258.929365,62.8264172 Z M232.236554,36.528602 L239.157772,36.528602 C240.227436,36.528602 240.856274,37.2254837 240.478651,38.302629 C238.528134,44.8919872 232.362162,49.4543464 225.000117,49.4543464 C215.43634,49.4543464 208.327111,42.1673009 208.327111,32.7267704 C208.327111,23.2862398 215.43634,16 225.000117,16 C232.362162,16 238.528134,20.5615535 240.478651,27.1509117 C240.856274,28.2280571 240.227436,28.9257443 239.157772,28.9257443 L232.236554,28.9257443 C231.418105,28.9257443 230.85167,28.5454806 230.34844,27.848599 C229.216372,26.2647038 227.265854,25.3768847 225.000117,25.3768847 C220.911071,25.3768847 217.764481,28.3553487 217.764481,32.7267704 C217.764481,37.0989976 220.911071,40.076656 225.000117,40.076656 C227.265854,40.076656 229.216372,39.1896425 230.34844,37.6693932 C230.85167,36.9088658 231.354901,36.528602 232.236554,36.528602 Z M198.341709,17.7127981 L198.341709,19.3635616 C199.124156,17.9665758 200.909864,15.9830815 205.570145,16.0467273 C205.907765,16.0507555 206.179782,16.1804641 206.379794,16.3899315 C206.673411,16.6968816 206.81422,17.111788 206.81422,17.6483466 L206.81422,25.3921919 C206.81422,25.9174715 206.705413,26.3114312 206.4774,26.5740709 C206.259786,26.8359051 205.934167,26.9680306 205.510941,26.9680306 C204.587686,26.9349992 203.707632,27.0332877 202.849181,27.2628961 C202.001929,27.4916989 201.230683,27.8864642 200.557042,28.4222171 C199.884202,28.9692491 199.343369,29.7039959 198.949745,30.5990659 C198.550521,31.5078317 198.348109,32.6115633 198.341709,33.9247622 L198.297706,42.1834138 C198.251303,50.8086331 191.719709,49.5018793 190.194817,49.4132585 C189.674786,49.3834497 189.270761,49.2714653 188.989144,48.9870731 C188.706727,48.702681 188.565119,48.2974423 188.565119,47.7729684 L188.565119,17.7127981 C188.565119,17.1883242 188.706727,16.7830855 188.989144,16.4986933 C189.271561,16.2143012 189.673986,16.0725079 190.194817,16.0725079 L196.71201,16.0725079 C197.232842,16.0725079 197.636066,16.2143012 197.917683,16.4986933 C198.2009,16.7830855 198.341709,17.1875185 198.341709,17.7127981 Z M170.104805,16.0153072 C172.404943,16.0257806 174.516271,16.4463265 176.440387,17.2785562 C178.362903,18.1099803 180.025403,19.2781634 181.447889,20.7734377 C182.858374,22.2791854 183.956041,24.0362939 184.729687,26.0576535 C185.503334,28.079013 185.900958,30.2896988 185.911358,32.6897108 C185.911358,33.1005889 185.900958,33.5001881 185.868956,33.8796462 C185.848155,34.268772 185.816953,34.6482301 185.785751,35.0268826 C185.723347,35.532021 185.534536,35.9002001 185.242518,36.1322254 C184.9497,36.3642508 184.562477,36.4794578 184.092049,36.4794578 L163.142785,36.4794578 C163.539608,37.7217601 164.094042,38.732037 164.825286,39.5110943 C165.55733,40.2796782 166.414982,40.8379891 167.37584,41.1956948 C168.348699,41.5534006 169.383161,41.72178 170.481627,41.72178 C171.369681,41.7113067 172.226533,41.5743473 173.042582,41.2907608 C173.84743,41.0063686 174.547473,40.6269105 175.122707,40.1427188 C175.425926,39.8905524 175.729144,39.6899471 176.021962,39.5425144 C176.32518,39.3958873 176.670001,39.3217681 177.066825,39.3217681 L183.088788,39.2589279 C183.664023,39.2694012 184.081648,39.4377807 184.332863,39.7640663 C184.572878,40.090352 184.583278,40.5117035 184.343264,41.0273153 C183.517614,42.8593487 182.419148,44.3957108 181.050265,45.6275397 C179.680582,46.869842 178.091687,47.7955264 176.282777,48.4279565 C174.474668,49.048302 172.499349,49.3649199 170.35602,49.3649199 C167.742262,49.3536409 165.39012,48.9226217 163.299594,48.0799186 C161.198667,47.2380211 159.410559,46.069838 157.92647,44.5536169 C156.431179,43.0486749 155.291911,41.2794818 154.497463,39.2694012 C153.703015,37.2480417 153.305391,35.0583027 153.29499,32.6897108 C153.305391,30.3211189 153.713415,28.1313798 154.528665,26.1108259 C155.343914,24.0999398 156.493583,22.3315523 157.988873,20.8258046 C159.473763,19.3103891 161.25067,18.1414004 163.299594,17.299503 C165.348518,16.4576055 167.616654,16.0257806 170.104805,16.0153072 Z M126.096549,19.4570163 C127.380626,18.3734258 128.806312,17.5315283 130.313603,16.9546875 C131.883298,16.3552888 133.543398,16.0426991 135.2259,16.0426991 C139.390151,16.0426991 143.461597,17.9174315 146.191362,20.9474567 C148.917126,23.9734537 150.603628,28.1531322 150.603628,32.7662469 C150.603628,37.3793616 148.917126,41.5582344 146.191362,44.5842314 C143.461597,47.613451 139.390151,49.488989 135.2259,49.488989 C132.176116,49.488989 128.975923,48.5230225 126.746188,46.370343 L126.752589,56.6286017 C126.758189,65.2538211 120.174592,63.9462617 118.6497,63.8584465 C118.131268,63.8286377 117.725644,63.715042 117.444027,63.4314555 C117.16241,63.1478689 117.020801,62.741019 117.020801,62.2173507 L117,17.7579141 C117,17.2229668 117.144809,16.8016153 117.435226,16.5099723 C117.724844,16.2175237 118.140869,16.0717023 118.674501,16.0717023 L124.400447,16.0717023 C124.934079,16.0717023 125.350104,16.2175237 125.639721,16.5099723 C125.930139,16.8016153 126.068547,17.2189386 126.074948,17.7579141 L126.096549,19.4570163 Z M142.373531,32.6776261 C142.373531,28.6091264 139.119735,25.3108219 135.105893,25.3108219 C131.09125,25.3108219 127.837454,28.6091264 127.837454,32.6776261 C127.837454,36.7469314 131.09125,40.0452359 135.105893,40.0452359 C139.119735,40.0452359 142.373531,36.7469314 142.373531,32.6776261 Z M165.620534,25.6685277 C164.438863,26.4894784 163.602812,27.7003606 163.111583,29.2794218 L176.544393,29.2794218 C176.209973,28.0894864 175.708343,27.1315762 175.038702,26.4161648 C174.381063,25.7104211 173.607416,25.1948093 172.739364,24.878997 C171.871311,24.5631848 170.972857,24.4052786 170.042401,24.415752 C168.275094,24.4262254 166.791005,24.8371036 165.620534,25.6685277 Z"/>
  </g>
</svg>
