<?xml version="1.0" encoding="UTF-8"?>
<svg width="525px" height="122px" viewBox="0 0 525 122" version="1.1" xmlns="http://www.w3.org/2000/svg" xmlns:xlink="http://www.w3.org/1999/xlink">
    <!-- Generator: Sketch 51.2 (57519) - http://www.bohemiancoding.com/sketch -->
    <title>Logo / Skylight on White</title>
    <desc>Created with Sketch.</desc>
    <defs></defs>
    <g id="Page-1" stroke="none" stroke-width="1" fill="none" fill-rule="evenodd">
        <g id="Logo-/-Skylight-on-White" transform="translate(0.789062, -0.054688)">
            <g id="Group">
                <path d="M169.7739,34.7742 L163.6799,46.6212 C160.4179,43.9882 157.0979,42.6712 153.7219,42.6712 C151.5759,42.6712 149.8869,43.2722 148.6579,44.4742 C147.6559,45.4472 147.1559,46.5632 147.1559,47.8222 C147.1559,48.9382 147.6279,49.8822 148.5719,50.6552 C149.6589,51.5712 150.9749,52.2722 152.5209,52.7572 C153.5499,53.1012 155.2809,53.6312 157.7129,54.3462 C161.1749,55.3762 163.7939,56.4922 165.5679,57.6942 C168.1429,59.4972 169.9599,61.6282 171.0189,64.0882 C171.7629,65.8632 172.1349,68.0952 172.1349,70.7842 C172.1349,77.5082 170.1309,82.6022 166.1259,86.0642 C161.8339,89.7262 156.1969,91.5572 149.2149,91.5572 C144.9229,91.5572 140.5169,90.6282 135.9969,88.7672 C133.5069,87.7382 131.1459,86.4502 128.9149,84.9052 L135.4379,72.6292 C139.9879,76.6072 144.4649,78.5952 148.8729,78.5952 C151.5619,78.5952 153.5219,77.8952 154.7529,76.4932 C155.7249,75.3772 156.2109,74.1612 156.2109,72.8442 C156.2109,70.9272 155.0669,69.3542 152.7779,68.1242 C151.8339,67.6372 149.9169,66.9642 147.0269,66.1062 C141.4469,64.4752 137.7409,62.9022 135.9109,61.3842 C132.7919,58.8382 131.2319,54.9612 131.2319,49.7532 C131.2319,43.6592 133.2499,38.7662 137.2839,35.0752 C140.9459,31.6992 145.5819,30.0102 151.1899,30.0102 C157.5699,30.0102 163.7649,31.5982 169.7739,34.7742 Z M193.477,55.5906 L212.062,31.4266 L230.861,31.4266 L207.598,59.1536 L233.006,90.0126 L213.263,90.0126 L193.477,64.6046 L193.477,90.0126 L178.241,90.0126 L178.241,31.4266 L193.477,31.4266 L193.477,55.5906 Z M254.729,61.8572 L233.527,31.4262 L251.725,31.4262 L262.798,47.3932 L273.442,31.4262 L291.898,31.4262 L269.965,61.8572 L269.965,90.0122 L254.729,90.0122 L254.729,61.8572 Z M311.4839,31.4266 L311.4839,77.1366 L329.7679,77.1366 L329.7679,90.0126 L296.2469,90.0126 L296.2469,31.4266 L311.4839,31.4266 Z M336.071,90.012 L336.071,31.426 L351.307,31.426 L351.307,90.012 L336.071,90.012 Z M388.6167,57.4793 L418.8327,57.4793 C418.7177,65.2913 417.7017,71.2993 415.7847,75.5053 C413.3517,80.8563 409.8327,84.9483 405.2257,87.7813 C400.5917,90.6413 395.0967,92.0733 388.7447,92.0733 C382.3637,92.0733 376.6407,90.6133 371.5767,87.6953 C366.6267,84.8333 362.9357,80.7133 360.5047,75.3333 C358.4717,70.8993 357.4567,66.1343 357.4567,61.0423 C357.4567,55.2333 358.7587,49.8683 361.3617,44.9463 C364.0517,39.7953 367.8867,35.9333 372.8647,33.3583 C377.7857,30.8123 383.2647,29.5383 389.3037,29.5383 C397.0567,29.5383 403.4807,31.7553 408.5747,36.1913 C411.2627,38.5383 413.6387,41.8133 415.6987,46.0193 L401.2347,51.9853 C398.5737,45.8053 394.3527,42.7143 388.5737,42.7143 C384.0807,42.7143 380.4317,44.5033 377.6297,48.0803 C374.7967,51.6573 373.3797,55.9773 373.3797,61.0423 C373.3797,66.7923 375.1247,71.5293 378.6157,75.2483 C381.2487,78.0523 384.7247,79.4543 389.0457,79.4543 C393.4237,79.4543 396.7277,78.0243 398.9597,75.1623 C400.0177,73.8173 400.7337,71.8723 401.1057,69.3253 L388.6167,69.3253 L388.6167,57.4793 Z M440.9673,54.0457 L462.9433,54.0457 L462.9433,31.4267 L478.1793,31.4267 L478.1793,90.0127 L462.9433,90.0127 L462.9433,65.8917 L440.9673,65.8917 L440.9673,90.0127 L425.7313,90.0127 L425.7313,31.4267 L440.9673,31.4267 L440.9673,54.0457 Z M511.0923,44.3025 L511.0923,90.0125 L495.8563,90.0125 L495.8563,44.3025 L483.4523,44.3025 L483.4523,31.4265 L523.7113,31.4265 L523.7113,44.3025 L511.0923,44.3025 Z" id="Combined-Shape" fill="#323333"></path>
                <g id="Logo-/-Skylight-Mark">
                    <g id="Skylight-Mark">
                        <path d="M95.075,75.8555 C95.075,82.5325 92.472,88.1585 87.591,91.0855 C85.532,92.3315 63.064,105.4155 61.279,106.4095 C56.301,109.1635 50.15,108.6245 44.36,105.2915 C42.076,103.9895 21.637,92.2325 19.728,91.0855 C14.851,88.1585 12.239,82.5325 12.254,75.8555 C12.254,73.2295 12.267,68.2505 12.282,62.3655 C12.267,56.4895 12.254,51.5145 12.254,48.8875 C12.239,42.1945 14.851,36.5825 19.728,33.6485 C23.752,31.2165 41.534,20.955 53.652,13.952 L53.656,13.968 L53.677,13.952 C65.8,20.955 83.58,31.2165 87.591,33.6485 C92.472,36.5825 95.075,42.1945 95.075,48.8875 C95.075,51.5145 95.046,56.4895 95.039,62.3655 C95.046,68.2505 95.075,73.2295 95.075,75.8555 Z" id="Fill-1" fill="#FFFFFF"></path>
                        <polygon id="Fill-2" fill="#93407E" points="65.976 85.5875 65.976 73.3305 53.665 61.0635 53.665 73.3305"></polygon>
                        <polygon id="Fill-3" fill="#577E9F" points="41.342 85.5705 41.342 73.3235 53.665 61.0635 53.665 73.3125"></polygon>
                        <polygon id="Fill-4" fill="#00AEC5" points="29.033 73.3315 41.353 73.3315 53.665 61.0635 41.353 61.0635"></polygon>
                        <polygon id="Fill-5" fill="#C2335D" points="78.296 73.3235 65.976 73.3235 53.665 61.0635 65.976 61.0635"></polygon>
                        <polygon id="Fill-6" fill="#F48E36" points="65.976 36.5395 65.976 48.7965 53.665 61.0635 53.665 48.7965"></polygon>
                        <polygon id="Fill-7" fill="#FEDD10" points="41.342 36.5565 41.342 48.8035 53.665 61.0635 53.665 48.8145"></polygon>
                        <polygon id="Fill-8" fill="#93C382" points="29.033 48.7955 41.353 48.7955 53.665 61.0635 41.353 61.0635"></polygon>
                        <polygon id="Fill-9" fill="#ED193A" points="78.296 48.8035 65.976 48.8035 53.665 61.0635 65.976 61.0635"></polygon>
                        <path d="M96.746,24.9525 C92.83,22.6595 53.52,0.016 53.49,0 C53.464,0.016 14.169,22.6595 10.237,24.9525 C2.657,29.3705 0,35.4515 0,43.8515 L0,62.1105 L0,80.3805 C0,88.7745 2.657,94.8545 10.237,99.2805 C11.764,100.1675 40.999,117.1245 42.325,117.8835 C49.605,122.0735 56.215,122.7935 63.821,118.4185 C65.719,117.3255 95.61,99.9385 96.746,99.2805 C104.34,94.8545 106.991,88.7745 106.991,80.3805 L106.991,43.8515 C106.991,35.4515 104.34,29.3705 96.746,24.9525 Z M93.075,75.0035 C93.075,81.3845 90.587,86.7615 85.922,89.5585 C83.954,90.7495 62.481,103.2545 60.775,104.2045 C56.018,106.8365 50.139,106.3215 44.606,103.1355 C42.423,101.8915 22.889,90.6555 21.064,89.5585 C16.403,86.7615 13.907,81.3845 13.921,75.0035 C13.921,72.4935 13.934,67.7355 13.948,62.1105 C13.934,56.4955 13.921,51.7405 13.921,49.2295 C13.907,42.8325 16.403,37.4695 21.064,34.6655 C24.91,32.3415 41.905,22.5345 53.486,15.841 L53.49,15.856 L53.51,15.841 C65.096,22.5345 82.089,32.3415 85.922,34.6655 C90.587,37.4695 93.075,42.8325 93.075,49.2295 C93.075,51.7405 93.047,56.4955 93.04,62.1105 C93.047,67.7355 93.075,72.4935 93.075,75.0035 Z" id="Fill-10" fill="#BAC3C5"></path>
                    </g>
                </g>
            </g>
        </g>
    </g>
</svg>