<?xml version="1.0" standalone="no"?>
<!DOCTYPE svg PUBLIC "-//W3C//DTD SVG 20010904//EN"
 "http://www.w3.org/TR/2001/REC-SVG-20010904/DTD/svg10.dtd">
<svg version="1.0" xmlns="http://www.w3.org/2000/svg"
 width="700.000000pt" height="700.000000pt" viewBox="0 0 700.000000 700.000000"
 preserveAspectRatio="xMidYMid meet">
<metadata>
Created by potrace 1.11, written by Peter Selinger 2001-2013
</metadata>
<g transform="translate(0.000000,700.000000) scale(0.100000,-0.100000)"
fill="#000000" stroke="none">
<path d="M590 6990 c-256 -44 -467 -228 -557 -485 l-28 -80 0 -2925 0 -2925
28 -80 c79 -225 237 -383 462 -462 l80 -28 2925 0 2925 0 80 28 c225 79 383
237 462 462 l28 80 0 2925 0 2925 -28 80 c-79 225 -237 383 -462 462 l-80 28
-2895 1 c-1592 1 -2915 -2 -2940 -6z m3380 -650 c347 -70 528 -247 618 -605
101 -399 0 -762 -310 -1115 -246 -281 -724 -590 -1177 -762 l-54 -20 6 -53
c15 -146 116 -244 292 -281 33 -7 121 -13 197 -14 263 0 533 68 851 214 204
94 530 298 747 467 144 113 190 129 267 93 37 -18 258 -246 282 -292 21 -40
17 -114 -8 -156 -30 -48 -277 -285 -407 -390 -128 -102 -377 -270 -519 -348
-349 -192 -767 -330 -1117 -367 -199 -22 -442 -8 -611 34 -357 90 -683 361
-831 692 -36 81 -89 265 -102 356 -8 56 7 51 -199 67 -253 20 -492 67 -612
120 -188 85 -251 264 -157 450 25 52 77 107 114 122 91 37 177 29 392 -36 224
-68 453 -105 462 -75 2 8 14 77 25 154 83 535 261 964 539 1295 205 245 485
416 752 460 41 6 82 13 90 15 8 3 94 2 190 0 125 -3 205 -10 280 -25z m-1858
-4119 c131 -46 234 -146 278 -273 14 -40 24 -98 27 -159 5 -81 3 -102 -15
-141 -11 -25 -126 -191 -257 -369 l-237 -324 239 -5 c131 -3 239 -7 240 -8 40
-39 43 -47 43 -128 0 -74 -2 -84 -25 -106 -14 -14 -39 -28 -56 -32 -54 -11
-721 -7 -761 5 -51 14 -68 48 -68 141 l0 74 158 204 c86 113 226 299 310 414
144 198 152 211 152 255 -1 150 -152 238 -272 157 -51 -34 -71 -78 -78 -173
-6 -72 -11 -88 -32 -110 -48 -48 -197 -42 -233 10 -34 48 -10 251 42 357 92
188 338 284 545 211z m1121 0 c107 -37 204 -118 252 -210 10 -19 27 -64 38
-100 19 -60 21 -98 24 -418 5 -402 -2 -468 -62 -590 -61 -124 -164 -198 -321
-230 -70 -14 -84 -14 -157 0 -102 20 -179 59 -243 123 -61 60 -95 123 -118
219 -15 61 -17 121 -14 470 4 388 5 402 27 463 85 233 339 353 574 273z m1071
18 c56 -26 55 -11 49 -789 -4 -575 -8 -719 -19 -737 -32 -52 -184 -58 -233 -9
l-26 26 -5 570 -5 569 -114 -70 c-136 -83 -152 -88 -180 -60 -19 19 -21 33
-21 134 0 83 4 118 15 134 12 17 141 102 340 224 35 22 158 26 199 8z m838 -4
c180 -38 310 -160 349 -330 6 -27 15 -58 20 -67 5 -10 9 -181 9 -380 0 -403
-5 -443 -63 -552 -41 -77 -118 -156 -186 -191 -198 -100 -437 -49 -573 123
-46 57 -75 131 -88 224 -20 140 17 184 148 176 58 -4 68 -8 93 -36 20 -23 29
-43 29 -67 0 -45 35 -120 68 -145 60 -48 167 -46 220 3 52 48 62 86 62 232 0
74 -1 135 -2 135 -2 0 -21 -7 -43 -15 -22 -8 -77 -14 -123 -15 -137 0 -253 49
-338 143 -217 240 -126 629 175 746 87 35 137 38 243 16z"/>
<path d="M3607 5669 c-93 -22 -220 -108 -310 -211 -193 -221 -310 -534 -335
-900 l-7 -98 55 0 c123 0 309 75 502 203 193 127 333 295 394 472 24 69 28 95
28 190 0 89 -4 120 -21 163 -61 151 -167 214 -306 181z"/>
<path d="M3027 1946 c-48 -18 -74 -41 -98 -88 -18 -35 -19 -64 -19 -410 0
-368 0 -374 23 -418 60 -121 244 -121 305 0 22 45 23 47 20 431 l-3 386 -28
36 c-49 64 -129 89 -200 63z"/>
<path d="M4970 1968 c-60 -31 -90 -89 -89 -173 1 -87 18 -133 62 -168 31 -26
49 -32 102 -35 52 -3 70 0 103 18 57 32 75 70 80 165 3 70 1 86 -20 124 -45
84 -148 114 -238 69z"/>
</g>
</svg>
