<?xml version="1.0" encoding="UTF-8"?>
<svg width="359px" height="287px" viewBox="0 0 359 287" version="1.1" xmlns="http://www.w3.org/2000/svg" xmlns:xlink="http://www.w3.org/1999/xlink">
    <!-- Generator: Sketch 51.3 (57544) - http://www.bohemiancoding.com/sketch -->
    <title>microphone-icon</title>
    <desc>Created with Sketch.</desc>
    <defs>
        <linearGradient x1="81.2112324%" y1="50%" x2="50%" y2="23.809983%" id="linearGradient-1">
            <stop stop-color="#1D1B1A" offset="0%"></stop>
            <stop stop-color="#565555" offset="100%"></stop>
        </linearGradient>
        <linearGradient x1="0%" y1="23.2918251%" x2="90.3923045%" y2="100%" id="linearGradient-2">
            <stop stop-color="#E6E4DF" offset="0%"></stop>
            <stop stop-color="#BAA696" offset="100%"></stop>
        </linearGradient>
        <linearGradient x1="50%" y1="0%" x2="50%" y2="92.8853514%" id="linearGradient-3">
            <stop stop-color="#FFD073" offset="0%"></stop>
            <stop stop-color="#FAB06B" offset="49.8822813%"></stop>
            <stop stop-color="#F65939" stop-opacity="0.452049366" offset="100%"></stop>
        </linearGradient>
    </defs>
    <g id="Icons" stroke="none" stroke-width="1" fill="none" fill-rule="evenodd">
        <g id="Artboard-9" transform="translate(-80.000000, -85.000000)">
            <g id="Group-2" transform="translate(81.391204, 2.000000)">
                <g id="Group" transform="translate(193.066947, 192.975402) rotate(25.000000) translate(-193.066947, -192.975402) translate(61.566947, 41.975402)">
                    <path d="M212.527687,110.547118 L32.5691352,300.977511 C26.9893158,301.675223 20.3052223,298.870632 12.5168548,292.563736 C4.72848725,286.25684 0.595481402,280.301918 0.117837239,274.698968 L152.419701,61.8707275 C150.829528,49.2708593 225.182645,109.48324 212.527687,110.547118 Z" id="Mask" fill="url(#linearGradient-1)"></path>
                    <path d="M165.881907,21.7389796 C188.932908,-6.72663614 218.13266,-4.74779796 241.08082,13.8352553 C264.028979,32.4183086 272.037748,60.565832 248.984544,89.0341684 C237.805959,102.838571 225.182645,109.48324 212.527687,110.547118 L152.419701,61.8707275 C150.829528,49.2708593 154.704444,35.541996 165.881907,21.7389796 Z" id="Mask" fill="url(#linearGradient-2)" fill-rule="nonzero"></path>
                    <path d="M162.690822,25.9546686 C163.680002,24.5509526 164.74305,23.145351 165.881907,21.7389796 C167.219893,20.0867038 168.578596,18.5370008 169.95559,17.087164 C170.043103,17.1518008 170.130388,17.2193216 170.2174,17.2897824 L251.820507,83.3706758 C252.128771,83.6203028 252.401654,83.8809563 252.641168,84.1501526 C251.522063,85.7759507 250.304196,87.4045339 248.984544,89.0341684 C247.865569,90.4159869 246.732119,91.7260651 245.585609,92.9659865 C245.253237,92.7812484 244.922324,92.5579414 244.595271,92.2930992 L162.992164,26.2122058 C162.887678,26.1275946 162.787257,26.0417167 162.690822,25.9546686 Z" id="Combined-Shape" fill="#FFFFFF" opacity="0.75"></path>
                    <path d="M204.918636,118.387423 L146.331909,70.9448264 L152.419701,61.8707275 C152.392835,61.6578531 152.367529,61.4446564 152.343792,61.2311425 C152.750793,61.4361888 153.156414,61.697898 153.556265,62.0216905 L213.381101,110.466888 C213.096657,110.496464 212.81218,110.523201 212.527687,110.547118 L204.918636,118.387423 Z" id="Combined-Shape" fill="#242323" fill-rule="nonzero"></path>
                </g>
                <path d="M223.737304,275.436249 L223.737304,368 L136.996094,368 L136.996094,287.152344 C121.24824,281.172873 111.334177,273.396832 107.253906,263.824219 C106.869653,262.922732 106.490026,261.947025 106.115025,260.897098 L201.953318,222.914363 L227.041948,197.825733 C237.896547,189.031032 249.147729,187.173689 260.77167,191.836916 C266.963283,194.320832 271.159422,197.77169 273.360089,202.189489 C274.313838,204.104131 273.944004,206.4134 272.440024,207.93443 L232.259,248.570953 C228.567467,253.122356 226.246742,256.864061 225.296825,259.796068 C224.402441,262.556666 223.882601,267.770059 223.737304,275.436249 Z M156.094445,177.414222 C160.238509,187.177025 155.683621,198.450769 145.920817,202.594834 C138.767241,205.631346 130.802434,203.99735 125.425707,199.066255 C126.372891,207.305204 121.867152,215.524016 113.845216,218.929126 C104.082413,223.073191 92.8086685,218.518302 88.6646042,208.755499 L83.6807044,197.014166 C79.5366401,187.251363 84.0915283,175.977619 93.8543321,171.833554 C100.443449,169.03664 107.720826,170.202253 113.030006,174.257116 L110.435869,168.145711 C106.291804,158.382907 110.846693,147.109163 120.609496,142.965099 C127.891332,139.874143 136.01375,141.622677 141.391298,146.762085 L140.17984,143.908069 C136.035775,134.145265 140.590664,122.871521 150.353467,118.727457 C160.116271,114.583392 171.390015,119.138281 175.534079,128.901084 L177.111913,132.618228 C177.716209,125.777277 181.98002,119.485361 188.742899,116.614689 C198.505702,112.470625 209.779446,117.025513 213.923511,126.788317 L224.227847,151.063812 C228.371911,160.826616 223.817023,172.10036 214.054219,176.244424 C204.291416,180.388488 193.017672,175.8336 188.873607,166.070796 L187.295773,162.353653 C186.691477,169.194604 182.427666,175.48652 175.664788,178.357191 C168.382952,181.448147 160.260534,179.699613 154.882987,174.560205 L156.094445,177.414222 Z" id="Combined-Shape" fill="url(#linearGradient-3)"></path>
                <path d="M0.6875,367.25 L343.6875,367.25" id="Line-18" stroke="#343434" stroke-width="4.064256" stroke-linecap="square" fill-rule="nonzero"></path>
            </g>
        </g>
    </g>
</svg>