<?xml version="1.0" encoding="UTF-8"?>
<svg width="1200px" height="300px" viewBox="0 0 1200 300" version="1.1" xmlns="http://www.w3.org/2000/svg" xmlns:xlink="http://www.w3.org/1999/xlink">
    <!-- Generator: Sketch 52.1 (67048) - http://www.bohemiancoding.com/sketch -->
    <title>homepage-callout-icons</title>
    <desc>Created with Sketch.</desc>
    <defs>
        <path d="M235.07679,145.585681 C220.328229,209.468719 156.584604,249.300156 92.7015662,234.551595 C28.8185283,219.803034 -11.012909,156.059408 3.73565237,92.1763712 C18.4842138,28.2933333 82.2278382,-11.538104 146.110877,3.21045739 C209.993914,17.9590188 249.825352,81.7026433 235.07679,145.585681 Z" id="path-1"></path>
    </defs>
    <g id="homepage-callout-icons" stroke="none" stroke-width="1" fill="none" fill-rule="evenodd">
        <g id="Group" transform="translate(0.000000, -8.000000)" fill-rule="nonzero" stroke="#FFDA97" stroke-linecap="round" stroke-linejoin="round" stroke-width="10">
            <path d="M155.638019,24.1686238 C121.978534,38.0340364 131.732135,77.000627 156.068325,78.6102898 C156.865188,92.7944475 171.001533,94.690981 179.878585,88.9854434 C202.158869,74.6419131 210.876548,64.6651909 210.876548,64.6651909 C210.876548,64.6651909 238.639247,154.312255 233.364016,183.302123 C233.364016,183.302123 225.459137,165.08584 183.990397,165.08584 C160.865439,165.08584 143.477893,189.406092 143.477893,189.406092 C143.477893,134.295062 52.683346,119.871845 29.9727564,165.08584 C3.10254303,197.438469 21.8447559,296.966632 125.564417,296.966632 C211.545912,296.966632 282.402952,253.330426 291.917494,228.069875 C301.432035,202.809325 255.182119,54.1625393 228.774086,36.4881226 C202.366053,18.8296431 182.412609,13.1400427 155.638019,24.1686238" id="Fill-1" transform="translate(156.069711, 157.747563) rotate(8.000000) translate(-156.069711, -157.747563) "></path>
            <path d="M173.971313,70.0525873 C177.099022,80.0674494 167.722742,78.4892974 168.733552,75.1510289 C170.598747,64.8527845 181.324387,60.6056982 187.682363,59.3871198" id="Line-10" transform="translate(178.169633, 68.543200) rotate(-177.000000) translate(-178.169633, -68.543200) "></path>
            <path d="M210.721731,242.669297 C173.776361,264.453391 138.865729,266.314558 104.721731,260.669297" id="Line-7" transform="translate(157.721731, 253.028693) rotate(8.000000) translate(-157.721731, -253.028693) "></path>
            <path d="M228.879416,97.8076541 L260.025329,86.5412402" id="Line-6" transform="translate(244.452372, 92.174447) rotate(8.000000) translate(-244.452372, -92.174447) "></path>
        </g>
        <g id="Group-3" transform="translate(313.500000, 16.500000)" fill-rule="nonzero" stroke="#FFDA97" stroke-linecap="round" stroke-linejoin="round" stroke-width="10">
            <g id="Group-2" transform="translate(0.486489, 0.000000)">
                <ellipse id="Combined-Shape" cx="141.180449" cy="112.12055" rx="14.0558334" ry="18.7411112"></ellipse>
                <polygon id="Combined-Shape" points="15.8349149 183.900865 256.598679 183.900865 256.598679 265.991103 15.8349149 265.991103"></polygon>
                <path d="M31.8467338,54.0369881 L31.8467338,181.728995" id="Line-2"></path>
                <path d="M240.599266,54.0369881 L240.599266,181.728995" id="Line-2"></path>
                <path d="M13.7632002,28.9044525 L13.7632002,1.67962439 L62.6014044,1.67962439 L62.6014044,28.9044525 C62.6014044,42.3907503 51.6686,53.3235547 38.1823023,53.3235547 C24.6960046,53.3235547 13.7632002,42.3907503 13.7632002,28.9044525 Z M62.6863251,28.9044525 L62.6863251,1.67962439 L111.524529,1.67962439 L111.524529,28.9044525 C111.524529,42.3907503 100.591725,53.3235547 87.1054272,53.3235547 C73.6191295,53.3235547 62.6863251,42.3907503 62.6863251,28.9044525 Z M111.640141,28.9044525 L111.640141,1.67962439 L160.478345,1.67962439 L160.478345,28.9044525 C160.478345,42.3907503 149.545541,53.3235547 136.059243,53.3235547 C122.572945,53.3235547 111.640141,42.3907503 111.640141,28.9044525 Z M160.517583,28.9044525 L160.517583,1.67962439 L209.355787,1.67962439 L209.355787,28.9044525 C209.355787,42.3907503 198.422983,53.3235547 184.936685,53.3235547 C171.450388,53.3235547 160.517583,42.3907503 160.517583,28.9044525 Z M209.522949,28.9044525 L209.522949,1.67962439 L258.361153,1.67962439 L258.361153,28.9044525 C258.361153,42.3907503 247.428348,53.3235547 233.942051,53.3235547 C220.455753,53.3235547 209.522949,42.3907503 209.522949,28.9044525 Z" id="Combined-Shape"></path>
                <g id="Group" transform="translate(86.688081, 80.757101)">
                    <path d="M31.3309491,65.7714934 L36.8719116,96.7181998" id="Line"></path>
                    <path d="M76.5157668,73.2737253 L70.9748043,96.7181998" id="Line"></path>
                    <path d="M10.3229092,0.431010244 C-12.3528467,31.860248 3.48813138,68.1033173 53.1407209,68.5848304 C102.79331,69.0663435 111.749293,83.6662213 111.749293,95.7602733" id="Path-3"></path>
                </g>
                <path d="M271.659806,1.68325042 L0.464546863,1.68325042" id="Line-5"></path>
            </g>
        </g>
        <g id="Group" transform="translate(617.500000, 2.226562)" fill-rule="nonzero" stroke="#FFDA97" stroke-linecap="round" stroke-linejoin="round" stroke-width="10">
            <path d="M132.897507,253.779163 C125.434344,267.170279 111.131305,276.228002 94.712722,276.228002 C68.6052461,276.228002 45.407145,259.573914 37.0581984,234.837395 L4.33351364,137.879679 C-7.11487065,103.960049 11.1016732,67.1820067 45.0213031,55.7336224 C49.3983844,54.2562918 53.9208538,53.251111 58.5116267,52.7352131 C89.6786697,49.2327505 118.426071,66.2207933 131.301554,92.965078 C142.161262,62.1197789 173.937033,42.6255014 207.283386,48.2465523 C210.885105,48.8536784 214.433008,49.7454579 217.893736,50.9135056 C254.047875,63.1160704 273.464463,102.316925 261.261898,138.471064 L228.736815,234.837395 C220.387868,259.573914 197.189767,276.228002 171.082291,276.228002 C154.663708,276.228002 140.360669,267.170279 132.897507,253.779163 Z" id="Combined-Shape"></path>
            <g id="Face" transform="translate(153.156637, 164.410565) rotate(18.000000) translate(-153.156637, -164.410565) translate(95.656637, 113.910565)">
                <g id="Group-3" transform="translate(57.402070, 34.236469) rotate(5.000000) translate(-57.402070, -34.236469) translate(2.902070, 5.236469)">
                    <path d="M2.28606,52.6773563 C4.9556011,42.8117589 9.35270504,37.8789602 15.4773718,37.8789602 C21.6020386,37.8789602 25.9991425,42.8117589 28.6686836,52.6773563" id="Line-11" transform="translate(15.477372, 45.278158) rotate(-744.000000) translate(-15.477372, -45.278158) "></path>
                    <path d="M80.1201959,19.705646 C82.789737,9.84004862 87.1868409,4.90724992 93.3115077,4.90724992 C99.4361745,4.90724992 103.833278,9.84004862 106.50282,19.705646" id="Line-11" transform="translate(93.311508, 12.306448) rotate(-380.000000) translate(-93.311508, -12.306448) "></path>
                </g>
                <path d="M110.929568,57.7465904 C109.596488,78.3401507 100.290721,91.6116555 83.0122654,97.5611049 C65.7338099,103.510554 50.2300108,98.7816683 36.5008679,83.3744471" id="Line-11"></path>
            </g>
            <path d="M71.4963648,78.3227163 C38.9786051,80.3743311 27.5461672,97.7825447 30.8845859,125.703125" id="Line-9" transform="translate(50.911926, 102.012921) rotate(5.000000) translate(-50.911926, -102.012921) "></path>
            <g id="Group-2" transform="translate(155.494592, 55.128208) rotate(-4.000000) translate(-155.494592, -55.128208) translate(99.494592, 4.628208)">
                <path d="M63.4346176,99.549703 C76.8202459,84.9129733 83.51306,68.5669479 83.51306,50.5116268 C83.51306,32.4563058 76.8202459,16.1102804 63.4346176,1.47355068 C50.0489893,16.1102804 43.3561751,32.4563058 43.3561751,50.5116268 C43.3561751,68.5669479 50.0489893,84.9129733 63.4346176,99.549703 Z" id="Oval-3" transform="translate(63.434618, 50.511627) rotate(-318.000000) translate(-63.434618, -50.511627) "></path>
                <path d="M30.2372894,85.0358172 C32.470999,57.8966764 26.5567132,34.0623531 0.0333106011,18.5870639" id="Line-8"></path>
            </g>
        </g>
        <g id="Group-5" transform="translate(926.535714, 10.000000)">
            <g id="Combined-Shape" transform="translate(13.231760, 28.804686)">
                <mask id="mask-2" fill="white">
                    <use xlink:href="#path-1"></use>
                </mask>
                <use id="Mask" stroke="#FFDA97" stroke-width="10" stroke-linecap="round" stroke-linejoin="round" fill-rule="nonzero" xlink:href="#path-1"></use>
                <path d="" id="Line-12" stroke="#8B8F93" stroke-linecap="square" fill-rule="nonzero" mask="url(#mask-2)"></path>
                <path d="M119.812443,237.620519 L119.812443,0.141533534" id="Line-13" stroke="#FFDA97" stroke-width="10" stroke-linecap="round" stroke-linejoin="round" fill-rule="nonzero" mask="url(#mask-2)"></path>
                <path d="M0.666728527,118.685712 L239.76824,118.685712" id="Line-20" stroke="#FFDA97" stroke-width="10" stroke-linecap="round" stroke-linejoin="round" fill-rule="nonzero" mask="url(#mask-2)"></path>
                <path d="M0.666728527,173.685712 L239.76824,173.685712" id="Line-20" stroke="#FFDA97" stroke-width="10" stroke-linecap="round" stroke-linejoin="round" fill-rule="nonzero" mask="url(#mask-2)"></path>
                <path d="M0.666728527,63.6857124 L239.76824,63.6857124" id="Line-20" stroke="#FFDA97" stroke-width="10" stroke-linecap="round" stroke-linejoin="round" fill-rule="nonzero" mask="url(#mask-2)"></path>
                <g id="Group-6" mask="url(#mask-2)" fill-rule="nonzero" stroke="#FFDA97" stroke-linecap="round" stroke-linejoin="round" stroke-width="10">
                    <g transform="translate(61.906221, 1.876546)" id="Line-13">
                        <path d="M73.8802141,233.873411 C101.19061,207.871241 114.845807,170.161277 114.845807,120.74352 C114.845807,71.3257639 101.19061,31.1243577 73.8802141,0.13930165"></path>
                        <path d="M0.779077982,233.873411 C28.0894734,207.871241 41.744671,170.161277 41.744671,120.74352 C41.744671,71.3257639 28.0894734,31.1243577 0.779077982,0.13930165" transform="translate(21.261875, 117.006357) scale(-1, 1) translate(-21.261875, -117.006357) "></path>
                    </g>
                </g>
            </g>
            <g id="Group-4" fill-rule="nonzero" stroke="#FFDA97" stroke-linecap="round" stroke-linejoin="round" stroke-width="10">
                <circle id="Oval" transform="translate(27.069425, 27.681232) rotate(-40.000000) translate(-27.069425, -27.681232) " cx="27.069425" cy="27.6812319" r="19"></circle>
                <path d="M41.9992591,43.2187234 L70.311942,74.0084165" id="Line-3"></path>
            </g>
        </g>
    </g>
</svg>