<svg xmlns="http://www.w3.org/2000/svg" viewBox="0 0 242.75 370.5"><defs><style>.cls-1{isolation:isolate;}.cls-2{fill:#fabca5;}.cls-3{fill:#e7807c;}.cls-31,.cls-4{fill:#ffb4ab;}.cls-4{opacity:0.4;}.cls-25,.cls-26,.cls-27,.cls-29,.cls-30,.cls-31,.cls-34,.cls-35,.cls-36,.cls-39,.cls-4{mix-blend-mode:multiply;}.cls-5{fill:#b98348;}.cls-6{fill:#885c2f;}.cls-7{fill:#f8aa9d;}.cls-8{fill:#ba8448;}.cls-9{fill:#b37f45;}.cls-10{fill:#b0733d;}.cls-11{fill:#895c2f;}.cls-12,.cls-15,.cls-16,.cls-24{fill:none;}.cls-12{stroke:#895c2f;}.cls-12,.cls-15,.cls-16{stroke-miterlimit:10;stroke-width:3px;}.cls-13,.cls-49{fill:#fff;}.cls-14{fill:#e8ecec;}.cls-15{stroke:#885c2f;}.cls-16{stroke:#ababab;}.cls-17{opacity:0.1;}.cls-18{fill:#333;}.cls-19{fill:#fff7ee;}.cls-20{fill:#e4d0ae;}.cls-21,.cls-22{fill:#343434;}.cls-21{opacity:0.3;}.cls-23{fill:#010101;}.cls-25,.cls-26{fill:#f4e6cf;}.cls-25,.cls-36{opacity:0.25;}.cls-26{opacity:0.7;}.cls-27{opacity:0.5;}.cls-28{fill:#d5c9b1;}.cls-30{fill:#818181;}.cls-32{fill:#fcf5e3;}.cls-33,.cls-35{fill:#fdcf85;}.cls-34{fill:#e9dbbd;}.cls-37{fill:#c7893e;}.cls-38,.cls-39{fill:#f3808a;}.cls-40{fill:#cfdcdb;}.cls-41{fill:#1c1c1c;}.cls-42{fill:#252625;}.cls-43{fill:#121312;}.cls-44{fill:#191a19;}.cls-45{fill:#090a08;}.cls-46{fill:#171b1a;}.cls-47{fill:#414040;}.cls-48{fill:#0c0c0b;}.cls-49{opacity:0.65;}.cls-50{fill:#e15d44;}</style></defs><title>Asset 4</title><g class="cls-1"><g id="Layer_2" data-name="Layer 2"><g id="_02" data-name="02"><path class="cls-2" d="M25.12,16.54c-.29,4.83,1.07,9.62,2.93,14.09A63.85,63.85,0,0,0,49.78,57.75c.11-.26.21-.52.31-.77,3.74-9.49,6.28-20,11.17-28.89A49.67,49.67,0,0,0,46.4,8.41,20.75,20.75,0,0,0,38,4a9.76,9.76,0,0,0-8.66,2.1A17.17,17.17,0,0,0,25.12,16.54Z"/><path class="cls-3" d="M43.81,6.53c.89.58,1.76,1.22,2.59,1.88A49.67,49.67,0,0,1,61.26,28.09c-4,7.27-6.46,15.7-9.28,23.74C55.55,36.36,52.31,20.06,43.81,6.53Z"/><path class="cls-4" d="M38.16,23.06C32.92,18.92,37,9.56,43.83,6.55A31.71,31.71,0,0,1,46.4,8.41,49.67,49.67,0,0,1,61.26,28.09c-3.74,6.75-6.1,14.5-8.67,22C52.66,40.21,47.09,30.85,38.16,23.06Z"/><path class="cls-5" d="M48.18,3.39C42.85,1.12,36.31.78,31.54,4.08a12.93,12.93,0,0,0-2.25,2A9.76,9.76,0,0,1,38,4,20.75,20.75,0,0,1,46.4,8.41,49.67,49.67,0,0,1,61.26,28.09a39.09,39.09,0,0,1,7.5-9.9,77.3,77.3,0,0,1-6.35-4.91C58,9.55,53.53,5.64,48.18,3.39Z"/><path class="cls-6" d="M46.39,1c8.69,2.67,16.06,10,23.07,15.65-.6.54-2.19,1.68-2.74,2.25C63.1,16.45,59.64,12.62,56.1,10A32.62,32.62,0,0,0,42.25,4C37.64,1.82,32.6,1.4,28.46,5.49a2.53,2.53,0,0,1-.73-.19C32.19.3,39.42-1.19,46.39,1Z"/><path class="cls-3" d="M24.36,11.29c.76-2.37,1.57-4.58,3.37-6C33,1.47,37.64,1.82,42.25,4a31.21,31.21,0,0,1,7.1,4.83A44.62,44.62,0,0,1,61,25.19c-.44.71-.87,1.43-1.28,2.16C54,16.65,42.94,2,32.39,5.69,29.92,7.33,28,10.1,27.16,14.4c-2,9.72,4,20.61,9.6,28.18a60.51,60.51,0,0,0,12,12c-.5,1.2-1,2.37-1.55,3.55a65.27,65.27,0,0,1-15-16.26C26.53,33.3,21,21.7,24.36,11.29Z"/><g id="_Group_" data-name="&lt;Group&gt;"><path class="cls-2" d="M200,339.73a13.53,13.53,0,0,0,1.7-1.18,7.15,7.15,0,0,0,2.83-4.35,7.7,7.7,0,0,0-1.52-5c-2.09-3.26-5-5.89-7.91-8.46q-6.24-5.55-12.59-11c-3.37-2.88-7-5.83-11.31-6.68s-9.6,1.23-10.71,5.51,2.24,8.46,5,12A63.3,63.3,0,0,1,172.07,331a20.64,20.64,0,0,1,2.59,8.53c0,1.4-.17,2.82-.08,4.21a9.79,9.79,0,0,0,17.65,5.17,7.92,7.92,0,0,0,4.83-1.65A8.3,8.3,0,0,0,200,339.73Z"/></g><path class="cls-7" d="M203.47,336.68l-.21,0a10.18,10.18,0,0,1-3-1.05,19.59,19.59,0,0,1-4.35-.6c-6.48-1.67-12-6.74-16.58-11.38-5.25-5.3-11.09-12.54-13.36-20.25a7.74,7.74,0,0,0-5.5,5.2c-1.13,4.36,2.24,8.46,5,12A63.3,63.3,0,0,1,172.07,331a20.64,20.64,0,0,1,2.59,8.53c0,1.4-.17,2.82-.08,4.21a9.79,9.79,0,0,0,17.65,5.17,7.92,7.92,0,0,0,4.83-1.65,8.3,8.3,0,0,0,2.92-7.56,13.53,13.53,0,0,0,1.7-1.18A10.23,10.23,0,0,0,203.47,336.68Z"/><path class="cls-3" d="M189.62,337.84s0-.09-.07,0S189.59,337.89,189.62,337.84Zm-15.14-34.75c-8.15-3.43-18.61,2.46-14,11.89a34,34,0,0,0,4.27,6.11,60.61,60.61,0,0,1,5.61,8.41c1.93,3.5,3.5,7,3.46,11.08,0,2.34-.19,4.51.79,6.71,3.39,7.61,13,8.13,17.89,2.56a8.87,8.87,0,0,0,3-.63,9.48,9.48,0,0,0,5.56-8.81c4.8-3,5.77-7.62,2.59-12.34-3.65-5.43-9.31-9.43-14.23-13.63C184.81,310.49,180.18,305.49,174.48,303.09ZM190,317.56c4.16,3.79,9.05,7.46,12.06,12.3,2,3.22,1.23,6-1.49,8.12a10.42,10.42,0,0,1-.91.63c-.28.17-.57.33-.86.47-3,1.45-6.49,1.29-8.38-1.87-.27-.44-.92,0-.78.4,1.31,4.17,5.63,5.07,9.28,3.86-.12,2.69-1.25,5.1-4.38,6.16l-.58.18a7.17,7.17,0,0,1-2.18.25c-3.59-.18-5.68-3.52-8.08-6.33-.15-.17-.49-.1-.45.17a9.16,9.16,0,0,0,7.09,7.75,8.74,8.74,0,0,1-11.85.05c-4.33-4-2.19-9.32-3.7-14.32-1.46-4.81-4.34-9.39-7.22-13.47-2.54-3.61-7.35-8.21-6.07-13.05,1.88-7.14,11.12-5.14,15.57-2.19C181.66,309.75,185.84,313.82,190,317.56Z"/><path class="cls-8" d="M197.21,253.2c5,16.38,12.33,33.78,6.29,49.8-7,18.63-38,41.4-64,43.4-55.77,4.29-69-13.23-82.56-30.53s-20.2-40.43-15.72-62c3.82-18.32,21.59-32.12,30.65-48.5,8.44-15.28,14.9-33.32,11.92-50.32,2.58.87-.73-.28,1.93,0,14.2,1.31,28.48,2.61,42.71,1.59,11.75-.83,23.54-3.33,34.12-8.41.9,14.94-2.54,32.91,4,46.33,2.58,5.3,5.8,12,9,16.93C185,225.78,192.23,236.83,197.21,253.2Z"/><path class="cls-9" d="M199.46,285.52a12.15,12.15,0,0,1,6.3,5.36c.28-12.46-4.81-25.36-8.55-37.68-5-16.37-12.23-27.42-21.64-41.72-3.25-4.93-6.47-11.63-9-16.93-6.53-13.42-3.09-31.39-4-46.33-10.58,5.08-22.37,7.58-34.12,8.41-14.23,1-28.51-.28-42.71-1.59-2.66-.24.65.91-1.93,0,3,17-3.48,35-11.92,50.32C62.79,221.78,45,235.58,41.2,253.9a66.7,66.7,0,0,0-1.37,11.93C89.53,237.63,149.93,268.37,199.46,285.52Z"/><path class="cls-10" d="M202.3,299.85C171.11,321,132.05,322.54,98.22,307.2a156.62,156.62,0,0,1-40.66-26.73,106.07,106.07,0,0,1-17.41-19.71c-2,19.5,4.6,39.65,16.77,55.11,13.6,17.3,26.79,34.82,82.56,30.53,26-2,57-24.77,64-43.4.64-1.71,1.19-3.46,1.68-5.21C204.24,298.49,203.28,299.19,202.3,299.85Z"/><path class="cls-11" d="M94.07,320.18c3.36-2.36,5.62-6,8.28-9.14a96.32,96.32,0,0,1,9.75-9.94c7.12-6.21,15.06-12.32,23.68-16.24.64-.29.19-1.31-.47-1.12-9.73,2.91-18.47,6.55-26.19,13.29-6.21,5.42-15.17,13.93-16,22.63a.6.6,0,0,0,.9.52Z"/><path class="cls-12" d="M197.21,253.2c5,16.38,12.33,33.78,6.29,49.8-7,18.63-38,41.4-64,43.4-55.77,4.29-69-13.23-82.56-30.53s-20.2-40.43-15.72-62c3.82-18.32,21.59-32.12,30.65-48.5,8.44-15.28,14.9-33.32,11.92-50.32,2.58.87-.73-.28,1.93,0,14.2,1.31,28.48,2.61,42.71,1.59,11.75-.83,23.54-3.33,34.12-8.41.9,14.94-2.54,32.91,4,46.33,2.58,5.3,5.8,12,9,16.93C185,225.78,192.23,236.83,197.21,253.2Z"/><g id="_Group_2" data-name="&lt;Group&gt;"><path class="cls-5" d="M80.68,212.9c5.74-3.49,11.45-8.22,12.48-15.48,1.21-8.69-4-17.74-11.21-21.69s-15.81-3.36-23.06,0c-7,3.18-13.08,8.73-20.53,10.14-3.07.59-8.88,1.93-10.37,5C19.2,208.7,64.56,222.69,80.68,212.9Z"/></g><g id="_Group_3" data-name="&lt;Group&gt;"><path class="cls-13" d="M62.12,216c7.26.54,14.05-.33,18.56-3.07,5.74-3.49,11.45-8.22,12.48-15.48,1.21-8.69-4-17.74-11.21-21.69s-15.81-3.36-23.06,0Z"/></g><g id="_Group_4" data-name="&lt;Group&gt;"><path class="cls-14" d="M61.91,216c7.34.58,14.22-.29,18.77-3,5.74-3.49,11.45-8.22,12.48-15.48a18.53,18.53,0,0,0,.15-2.68c-10.58,4.77-21.4,7.42-32.32,7.09Z"/></g><g id="_Group_5" data-name="&lt;Group&gt;"><path class="cls-15" d="M80.68,212.9c5.74-3.49,11.45-8.22,12.48-15.48,1.21-8.69-4-17.74-11.21-21.69s-15.81-3.36-23.06,0c-7,3.18-13.08,8.73-20.53,10.14-3.07.59-8.88,1.93-10.37,5C19.2,208.7,64.56,222.69,80.68,212.9Z"/></g><g id="_Group_6" data-name="&lt;Group&gt;"><path class="cls-16" d="M61.91,216c7.34.58,14.22-.29,18.77-3,5.74-3.49,11.45-8.22,12.48-15.48,1.21-8.69-4-17.74-11.21-21.69s-15.81-3.36-23.06,0Z"/></g><g id="_Group_7" data-name="&lt;Group&gt;"><path class="cls-2" d="M74.16,285.47a22.46,22.46,0,0,1,3.23-1.12c2.82-.75,6-1,8.56.42s4.16,4.15,5.24,6.89c2.33,6,3,12.43,3.66,18.79q1.37,13.73,2.47,27.46c.59,7.3,1.07,15-2,21.61s-11,11.65-17.76,9-9.14-11.18-11.21-18.34a104.15,104.15,0,0,0-7.59-18.92c-2.27-4.4-5-8.73-8.9-11.74-1.84-1.4-3.93-2.49-5.7-4a16.17,16.17,0,0,1,10.18-28.62,13.19,13.19,0,0,1,6.88-4.86A13.75,13.75,0,0,1,74.16,285.47Z"/></g><path class="cls-7" d="M84.93,309.67c1.66-5.12,2.31-10.18-1-15-6.1-7.08-14.1-3.53-18,2.88a9.18,9.18,0,0,0,1.3,2.27,9.18,9.18,0,0,1-1.3-2.27c-.27.46-.53.93-.76,1.4.23-.47.49-.94.76-1.4a6.52,6.52,0,0,1,.2-5.24,3.08,3.08,0,0,0-1.44-.34,11,11,0,0,0-12.42,3.41c0,.62.06,1.25.14,1.88a8.5,8.5,0,0,1,1.72,1.45,8.5,8.5,0,0,0-1.72-1.45,18.19,18.19,0,0,0,2.06,6.43,18.19,18.19,0,0,1-2.06-6.43c-3.85-2.41-7.9.36-11.25,2.33a16.1,16.1,0,0,0-2.69,4.16,16.49,16.49,0,0,0,5.69,11.74c1.77,1.49,3.86,2.58,5.7,4,3.93,3,6.63,7.34,8.9,11.74a104.15,104.15,0,0,1,7.59,18.92c2.07,7.16,4.28,15.63,11.21,18.34,4.15,1.62,8.69.39,12.3-2.32a8.26,8.26,0,0,0,.69-3.78C89.31,344.45,80.24,329,84.93,309.67Z"/><path class="cls-3" d="M66.65,301.3c.09,0,.08-.14,0-.14S66.56,301.31,66.65,301.3Zm31.13,22.77c-.85-10.64-.72-22.1-4.44-32.23-3.24-8.84-10.31-12-19-8.5-4.69-3.73-12.26-4.23-17.18-1.09a14.77,14.77,0,0,0-3.76,3.43c-12.16,1.09-20.8,14.51-13.91,26.41,2,3.44,5,5.33,8.21,7.56,5.47,3.88,8.67,9.4,11.48,15.36A100.38,100.38,0,0,1,65,350.66c1.12,4,2.09,8,4,11.65,8.15,15.3,26.16,7,29.47-7.22C100.79,345.13,98.58,334.1,97.78,324.07Zm-1.64,24.16c-.36,8.81-6.64,23.11-18,18.71-7.72-3-9.21-13.88-11.57-20.77-2.67-7.81-6-16.1-11-22.71-5.22-6.87-14.46-9.19-15.57-18.82-.92-8,4.55-14.23,11.55-15.81a15.15,15.15,0,0,0,3.5,17c.32.31.74-.08.66-.44-1.44-5.94-3.88-12-.64-16.95a11.38,11.38,0,0,1,2.45-2.66c.25-.21.51-.41.79-.61,4.45-3.17,8.79-2.34,12.5.1-5.16,3.72-8.14,10.36-3.83,16.15.46.63,1.62.14,1.28-.65-2.39-5.59.82-10.45,5.62-13,.48-.25,1-.49,1.47-.7s1.15-.43,1.71-.6c5.43-1.62,9.95.07,12.32,5.87,3.56,8.71,3.73,18.82,4.77,28.05S96.52,339,96.14,348.23Z"/><path class="cls-2" d="M27,164.78a5.51,5.51,0,0,1,.61-.11,9,9,0,0,1,7.51,2.93A17.08,17.08,0,0,1,38.94,175c2,7.2,3.31,17.65-6.43,23.91C24.07,204.28,12,204,6.67,198.22c-3.11-3.37-5.37-8.17-4.16-12.59a8.17,8.17,0,0,1,.76-1.86,14.79,14.79,0,0,1,5.48-5.25c1.93-1.14,4.35-2,6.46-1.7a8.72,8.72,0,0,1,1-3.42,13.67,13.67,0,0,1,2.55-3.27,33.36,33.36,0,0,1,2.79-2.38A14.52,14.52,0,0,1,27,164.78Z"/><path class="cls-7" d="M20.8,183.11a12.83,12.83,0,0,0,10-5.91c-6,2.29-10-3.2-9.89-8.91-.73.59-1.45,1.19-2.12,1.84a13.67,13.67,0,0,0-2.55,3.27,8.72,8.72,0,0,0-1,3.42,6.07,6.07,0,0,0-1.13-.06A12.07,12.07,0,0,0,20.8,183.11Z"/><path class="cls-7" d="M38.94,175c-.15-.57-.33-1.13-.53-1.68A27.1,27.1,0,0,1,20,198a27.16,27.16,0,0,1-10.51,2.42c6.06,3.54,15.84,3,23-1.57C42.25,192.6,41,182.15,38.94,175Z"/><path class="cls-2" d="M22.66,161.26A6.31,6.31,0,0,1,27,164.78a14.52,14.52,0,0,0-5.44,3,33.36,33.36,0,0,0-2.79,2.38,6.61,6.61,0,0,0-3.4-1.74,12.56,12.56,0,0,0-9.43,2.22A7.83,7.83,0,0,1,8,165.81c2-2.1,4.74-3.18,7.5-4A13.84,13.84,0,0,1,22.66,161.26Z"/><path class="cls-2" d="M5.93,170.61a12.56,12.56,0,0,1,9.43-2.22,6.61,6.61,0,0,1,3.4,1.74,13.67,13.67,0,0,0-2.55,3.27,8.72,8.72,0,0,0-1,3.42c-2.11-.33-4.53.56-6.46,1.7a14.79,14.79,0,0,0-5.48,5.25c-1.54-1.89-2.68-4-2.3-6.35a8.11,8.11,0,0,1,1.18-2.87A13.65,13.65,0,0,1,5.93,170.61Z"/><path class="cls-7" d="M17.25,161.39c-.58.13-1.16.29-1.73.45-2.76.79-5.54,1.87-7.5,4a7.83,7.83,0,0,0-2.09,4.8,14.08,14.08,0,0,1,2.89-1.54,6.27,6.27,0,0,1,2.34-1.59,6.27,6.27,0,0,0-2.34,1.59,12.26,12.26,0,0,1,5.55-.81C14.6,165.77,15.47,163,17.25,161.39Z"/><path class="cls-7" d="M8.82,169.07a14.08,14.08,0,0,0-2.89,1.54,13.65,13.65,0,0,0-3.78,3.94A8.11,8.11,0,0,0,1,177.42c-.38,2.32.76,4.46,2.3,6.35a14.19,14.19,0,0,1,5.09-5C7.42,175.61,6.58,171.6,8.82,169.07Z"/><path class="cls-3" d="M40.26,175.05c-1.49-5.33-4.91-11.14-11-11.6a7.89,7.89,0,0,0-1.19,0c-4.45-9.31-22.22-.65-23.1,6.64C2.5,172,.13,174.84,0,178a9.45,9.45,0,0,0,2.12,5.82,12.68,12.68,0,0,0,.55,11c5.22,10.44,18.39,11.49,28,6.71C41.2,196.35,43.21,185.57,40.26,175.05ZM13.5,163.57c3.49-1.23,8.8-2.33,11.22.72a20,20,0,0,0-6,4.05c-2.74-1.86-7.55-1.2-11,.23C8.61,166.27,10.37,164.67,13.5,163.57Zm-9.28,9.86a9.38,9.38,0,0,1,1-1,11.63,11.63,0,0,1,1.85-1.34,12.19,12.19,0,0,1,2.64-1.18c1.85-.57,5.26-.94,7.27.31-.38.46-.73.92-1,1.37a10.62,10.62,0,0,0-1.68,4.2c-3.33-.1-6.7,1.84-9.21,4.09a13,13,0,0,0-2,2.26C1.27,179,1.91,176,4.22,173.43ZM37,192.35c-4.39,7.67-16,10.54-24,8-5-1.59-9.35-6.36-9.65-11.77a7.38,7.38,0,0,1,.51-2.95,10.55,10.55,0,0,1,.71-1.53c2-3.45,5.94-6.34,9.63-6.13a6.67,6.67,0,0,0,5.33,6.4c.32.07.63.11.93.15a9,9,0,0,1-4,5.21c-2.38,1.46-5.13,1.49-7.7,2.32a.37.37,0,0,0,0,.67c3.31,1.79,7.86.64,10.66-1.6a8.91,8.91,0,0,0,3.41-6.6c4.59-.67,8-5,10.17-9,.49-.89-.86-1.53-1.38-.7-1.46,2.3-3.08,4.76-5.45,6.25a7.69,7.69,0,0,1-3.52,1.14,7.24,7.24,0,0,1-1.87-.12,5.15,5.15,0,0,1-4.12-3.47,5.32,5.32,0,0,1-.11-2.44,8,8,0,0,1,.74-2.21,12.74,12.74,0,0,1,1.18-2,15.25,15.25,0,0,1,1.78-2,14.33,14.33,0,0,1,5.58-3.31,10.32,10.32,0,0,1,3-.45,7.83,7.83,0,0,1,6.33,3.33C39.47,175.27,40.62,186.11,37,192.35Z"/><path class="cls-13" d="M156.17,160.91a5.26,5.26,0,0,1,6.6,4.65c1.89,22.18,18.91,57.31,31.49,83.15,2.3,4.73,4.77,9.07,7,13a5.25,5.25,0,0,1-7,7.22c-33.11-17-118.5-32.85-147.3-19.35a5.27,5.27,0,0,1-6.44-8c12.79-16.8,42.27-37.35,35.82-66.21-.31-1.36-5.82-3.73,6.2-6.25,3-.63,9.37,5.51,14.75,11.56A15.28,15.28,0,0,0,118,182.56c10.57-8.23,24.91-19.07,27.75-19.53A100.08,100.08,0,0,0,156.17,160.91Z"/><g class="cls-17"><path class="cls-18" d="M160.52,174.64c-11.26,13.91-78.39,13.09-84.14,4.91-1.67-2.39-1.94-6.46-.8-8.3,5.29-8.53,84.37-4.56,84.6-3S162.23,172.53,160.52,174.64Z"/></g><path class="cls-14" d="M135,222.11c40.35,7.71,47.24,39.5,47.36,41a4.21,4.21,0,0,0,.1.44c14.1,5.39,23.39,11.22,24.87,16.51,3.15-5.27-4.67-20.53-12-35.55-9.33-19.24-19.85-40.07-27.39-60.1C165.48,195.05,161.41,227.16,135,222.11Z"/><path class="cls-14" d="M178.5,262.11c-37.65-27.47-123.26-27-139.81-17.54-3.85,6-5.44,11.48-1.42,16.76C39.33,233.35,130.31,244.93,178.5,262.11Z"/><path class="cls-16" d="M162.7,159c-1.67,21,18.71,57.06,32.67,85.53,7.58,15.46,15.18,30.16,12,35.55C200.89,257.17,40,223.93,37.27,261.33c-15.63-20.57,48.19-44.83,39-86C75.35,171.26,156.27,158.06,162.7,159Z"/><g id="_Group_8" data-name="&lt;Group&gt;"><path class="cls-2" d="M225,219.59l-.06.13c-3.09,3.22-8.86,2.34-11.91-.92s-3.81-8.06-3.52-12.51a32.67,32.67,0,0,1,3.94-13.42,14.62,14.62,0,0,1,2.44-3.39A11.37,11.37,0,0,1,220,187c6.84-2.47,15.06.94,18.83,7.16s3.24,14.55-.6,20.73a13.34,13.34,0,0,1-2.78,3.34,10.09,10.09,0,0,1-9.67,1.73A7.67,7.67,0,0,1,225,219.59Z"/></g><path class="cls-3" d="M218.73,212.43c.56,5.09,3.91,8.88,9.16,9.51,6.32.75,10.54-3.56,12.94-8.92,4.53-10.12,1-22.93-9.86-27.07-4.78-1.82-10.6-1.64-14.81,1.49-4.62,3.43-6.72,10.31-7.58,15.71-1,5.91-.53,13.38,4.51,17.47a9.87,9.87,0,0,0,12.78,0c1.31-1.1-.55-3-1.85-1.89-6.1,5.17-12-2-13-7.58a25.69,25.69,0,0,1,1-11.45c1.2-4,3.24-8.86,7.18-10.9a13.52,13.52,0,0,1,11-.2c7.64,3.05,11,11.29,9.4,19.08-.79,3.74-2.7,7.91-6.1,9.94-5.47,3.25-11.16-.38-13.46-5.55-.27-.6-1.37-.35-1.29.32Z"/><g id="_Group_9" data-name="&lt;Group&gt;"><path class="cls-5" d="M168.59,169.53c-6.87,3.12-13.9,7.68-16.14,15.92-2.67,9.86,1.72,21.17,9.07,26.89s16.95,6.41,25.47,3.73c8.17-2.57,15.78-8,24.22-8.46,3.49-.19,10.11-.81,12.22-4.09C235.87,184.21,187.89,160.77,168.59,169.53Z"/></g><g id="_Group_10" data-name="&lt;Group&gt;"><path class="cls-13" d="M179.7,167.65a25.69,25.69,0,0,0-11.11,1.88c-6.87,3.12-13.9,7.68-16.14,15.92-2.67,9.86,1.72,21.17,9.07,26.89s16.95,6.41,25.47,3.73"/></g><g id="_Group_11" data-name="&lt;Group&gt;"><path class="cls-14" d="M185,203a29.78,29.78,0,0,1-10.83-.41c-8-2.54-18.34-5.08-22.36-13.72-1,9,3.18,18.43,9.7,23.5,7.35,5.71,16.95,6.41,25.47,3.73"/></g><g id="_Group_12" data-name="&lt;Group&gt;"><path class="cls-11" d="M187.14,217.6l-.38-3a73,73,0,0,0,8.46-3.47c5.06-2.31,10.29-4.69,15.91-5,7.58-.42,10.19-2.08,11-3.41,2.33-3.61,2.38-7.56.17-11.74-5.74-10.82-26.19-21.43-42.38-21.82l-.21-3c15.69.38,38.38,10.47,45.24,23.42,2.72,5.13,2.62,10.24-.3,14.77-1.81,2.82-6.2,4.38-13.4,4.77-5.06.26-9.8,2.43-14.83,4.72A86.86,86.86,0,0,1,187.14,217.6Z"/></g><g id="_Group_13" data-name="&lt;Group&gt;"><path class="cls-16" d="M179.75,167.65a25.87,25.87,0,0,0-11.16,1.88c-6.87,3.12-13.9,7.68-16.14,15.92-2.67,9.86,1.72,21.17,9.07,26.89s16.95,6.41,25.47,3.73Z"/></g><path class="cls-5" d="M25.19,112.46C27,94.82,42.92,74.5,49.78,57.75c.11-.26.21-.52.31-.77,3.74-9.49,6.28-20,11.17-28.89a39.09,39.09,0,0,1,7.5-9.9.09.09,0,0,0,.06,0C75.11,12.46,84.22,9.13,92.91,7c14.5-3.57,29.69-5.18,44.41-3,14.5,2.17,28.53,8.23,38.47,18.33-5.51,3.38-11.09,6.57-17.22,8.38a8.32,8.32,0,0,0-.81,3,8.73,8.73,0,0,0,3.86,7.71A10.52,10.52,0,0,0,170,42.54a12.58,12.58,0,0,0,1.55-.48,46.61,46.61,0,0,1,18.22,18.12,43,43,0,0,1,2.87,6.24c.8-.28,1.6-.6,2.39-.93.31.94.66,1.88,1,2.85,2.4,6.34,23.69,28.26,20.41,52.28-4.7,34.34-40,52.21-88,57.71-54.12,6.21-83.8-16.79-96.23-39.05-.67-1.19-1.28-2.38-1.85-3.57C26.15,127,24.58,118.63,25.19,112.46Z"/><path class="cls-19" d="M183.46,123.52c-25,7-49,17-74,3C84.75,112.65,61.5,93,44.07,69.46c-7.58,14-17.5,29.31-18.88,43-.61,6.17,1,14.53,5.16,23.25.57,1.19,1.18,2.38,1.85,3.57,12.43,22.26,42.11,45.26,96.23,39.05,45.24-5.18,79.16-21.34,86.89-51.88a28,28,0,0,0-4.86-2.93A41.62,41.62,0,0,0,183.46,123.52Z"/><path class="cls-5" d="M135.33,81.85c-5,3-9,6-14,9-9,7-18,1-26-2-17.12-5.71-33.58-14.08-47.75-26.2.8-1.66,1.54-3.3,2.2-4.9.11-.26.21-.52.31-.77,3.74-9.49,6.28-20,11.17-28.89a39.09,39.09,0,0,1,7.5-9.9.09.09,0,0,0,.06,0C75.11,12.46,84.22,9.13,92.91,7c14.5-3.57,29.69-5.18,44.41-3,14.5,2.17,28.53,8.23,38.47,18.33-5.51,3.38-11.09,6.57-17.22,8.38a8.32,8.32,0,0,0-.81,3,8.73,8.73,0,0,0,3.86,7.71A10.52,10.52,0,0,0,170,42.54a12.58,12.58,0,0,0,1.55-.48,46.61,46.61,0,0,1,18.22,18.12,43,43,0,0,1,2.87,6.24c.8-.28,1.6-.6,2.39-.93.31.94.66,1.88,1,2.85,1,2.71,5.5,8.27,10,15.63C188,67.71,159.28,66.61,135.33,81.85Z"/><path class="cls-19" d="M157.76,33.77a8.32,8.32,0,0,1,.81-3c6.13-1.81,11.71-5,17.22-8.38,3.51-2.17,7-4.41,10.56-6.42,7.11-4,15.4-7.16,23.34-6.81.59,0,1.19.07,1.77.14a40.47,40.47,0,0,0-13.29,7.68,76.93,76.93,0,0,0-6.53,6.24c-2.75,2.89-5.36,5.94-8,8.9-.89,1-1.79,2-2.72,3-2.54,2.66-5.28,5.27-8.65,6.76-.22.1-.45.19-.68.27-3.24,1.25-7,1.31-9.92-.58A8.73,8.73,0,0,1,157.76,33.77Z"/><path class="cls-2" d="M172.22,41.79c3.37-1.49,6.11-4.1,8.65-6.76.93-1,1.83-2,2.72-3,2.69-3,5.3-6,8-8.9a76.93,76.93,0,0,1,6.53-6.24,40.47,40.47,0,0,1,13.29-7.68,23,23,0,0,1,3.18.57,15.39,15.39,0,0,1,8.67,8.46c2.44,6,1.41,12.91-.87,19A50.15,50.15,0,0,1,195,65.49c-.79.33-1.59.65-2.39.93a43,43,0,0,0-2.87-6.24,46.61,46.61,0,0,0-18.22-18.12C171.77,42,172,41.89,172.22,41.79Z"/><path class="cls-19" d="M209.69,9.12c.59,0,1.19.07,1.77.14l.34-.11A10.62,10.62,0,0,0,209.69,9.12Z"/><path class="cls-19" d="M211.8,9.15l-.34.11a23,23,0,0,1,3.18.57A11.76,11.76,0,0,0,211.8,9.15Z"/><path class="cls-3" d="M171.54,42.06c.23-.08.46-.17.68-.27,3.37-1.49,6.11-4.1,8.65-6.76.93-1,1.83-2,2.72-3,2.69-3,5.3-6,8-8.9a76.93,76.93,0,0,1,6.53-6.24,40.47,40.47,0,0,1,13.29-7.68,23,23,0,0,1,3.18.57,15.41,15.41,0,0,1,8.24,7.54c-6.49-3-16-1-21.28,4C196.3,26.22,191,31,187.38,37.64c.05-1.58.13-3.17.29-4.78-.16,1.61-.24,3.2-.29,4.78a35.78,35.78,0,0,0-2.76,6.48,35.78,35.78,0,0,1,2.76-6.48,105,105,0,0,0,2,21.93A46.62,46.62,0,0,0,171.54,42.06Z"/><path class="cls-4" d="M172.22,41.79c3.37-1.49,6.11-4.1,8.65-6.76.93-1,1.83-2,2.72-3,2.69-3,5.3-6,8-8.9a76.93,76.93,0,0,1,6.53-6.24,40.47,40.47,0,0,1,13.29-7.68,23,23,0,0,1,3.18.57,15.39,15.39,0,0,1,8.67,8.46,20.86,20.86,0,0,1,1.34,9.33c-9.42-5.92-19.94,8.26-26,14.87-2.72,4.68-3.05,11.27-3.49,16.77A50.17,50.17,0,0,1,193.74,66l-1.11.44a43,43,0,0,0-2.87-6.24,46.61,46.61,0,0,0-18.22-18.12C171.77,42,172,41.89,172.22,41.79Z"/><path class="cls-20" d="M35,82.07c-8.52,15.52-14.95,30.64-9,48a64.38,64.38,0,0,0,5.13,11.2,40.09,40.09,0,0,1-.09-7.9,53.18,53.18,0,0,1-3.59-11.86C24.42,104.23,35.9,87.93,43.85,73.6c.47-.85.93-1.71,1.38-2.56-.84-1.23-1.62-2.49-2.39-3.75C40.36,72.22,37.73,77.11,35,82.07Z"/><path class="cls-6" d="M127.51,1.25A112.44,112.44,0,0,0,87.64,6.74C74.15,11.3,63.35,20.94,61,25.19c-.41.74-.87,1.43-1.28,2.16a106.34,106.34,0,0,0-7.37,17.82c-1.09,3.22-2.29,6.35-3.58,9.42-.5,1.2-1,2.37-1.55,3.55-1.38,3.09-2.86,6.13-4.39,9.15.77,1.26,1.55,2.52,2.39,3.75,1.87-3.56,3.57-7.14,5.13-10.77.49-1.13,1-2.27,1.42-3.4,1.66-4.09,3.19-8.23,4.65-12.5a107,107,0,0,1,5.26-13c.29-.59.58-1.17.91-1.74,4-6.94,15.11-18.11,36.48-22.19,14.69-2.81,30.06-3.76,44.7-.22a65.45,65.45,0,0,1,29,14.88l3.43-2C163.36,7.93,145.1,1.9,127.51,1.25Z"/><path class="cls-6" d="M209.46,86.12c-3.9-6.79-9.37-12.9-12.31-20.18-1,.49-2.08,1-3.15,1.37a56.19,56.19,0,0,0,5.42,9.82c5.64,8.19,11,16.74,13.79,26.37a42.27,42.27,0,0,1,.5,21.65,35.17,35.17,0,0,1,3.2,1.87C220.13,113.34,216.94,99.15,209.46,86.12Z"/><path class="cls-20" d="M195,153.69c-15.5,12.28-35.6,18-54.79,21.17-20.66,3.45-42.19,4.3-62.4-2.05-17.76-5.59-35-17.79-44.24-34.38a56.31,56.31,0,0,1-2.52-5.11,40.09,40.09,0,0,0,.09,7.9c1.08,1.88,2.25,3.69,3.49,5.43,13.69,19.17,37,30.56,60.34,33.53,22.6,2.87,46.49-.38,68.22-6.91,18.15-5.45,36.86-14.76,47.33-31.26a48.65,48.65,0,0,0,6.37-15,35.17,35.17,0,0,0-3.2-1.87C211.1,136.27,204.26,146.37,195,153.69Z"/><path class="cls-20" d="M30.25,131.29c.27.68.53,1.36.82,2,.2.47.43.93.64,1.4a31.59,31.59,0,0,0,.2,7.36l-.21,0c-.18-.3-.37-.59-.54-.89-.55-.95-1.07-1.91-1.57-2.89A27.18,27.18,0,0,1,30.25,131.29Z"/><path class="cls-20" d="M157.65,38.91c2.58,5,8.18,6.11,13.15,4.74a15.61,15.61,0,0,0,2.74-1c.42-.2.82-.43,1.23-.66A36.38,36.38,0,0,0,183,35.08q1.4-1.5,2.73-3.06c2.05-2.38,4-4.8,6-7l.54-.58.25-.26c6-6.32,12.48-11.27,20.39-13.59l.9-.25c.8-.21,1.61-.39,2.44-.55.22,0,.44-.09.67-.12C205.5,4.23,187.07,13.53,176.17,20l-3.43,2a106.24,106.24,0,0,1-10.8,5.71c-1.12.49-2.24.94-3.36,1.34a8.63,8.63,0,0,0-1.79,3.56A9,9,0,0,0,157.65,38.91Zm1.86-7a76,76,0,0,0,15.56-7.6c1.12-.67,2.23-1.34,3.35-2,8.82-5.4,17.65-10.94,27.23-12.09a57.46,57.46,0,0,0-13.49,10.48l-.91,1-.62.65c-2.2,2.36-4.3,4.83-6.44,7.26-.88,1-1.76,2-2.66,2.94-1.31,1.42-2.66,2.79-4.09,4.09a22.34,22.34,0,0,1-5.52,3.84A10.91,10.91,0,0,1,167,41.47a12,12,0,0,1-1.54-.16A7.27,7.27,0,0,1,159.51,31.91Z"/><path class="cls-3" d="M173.54,42.61c.42-.2.82-.43,1.23-.66a43,43,0,0,1,14.86,15.43c.5.87,1,1.76,1.39,2.65a37.79,37.79,0,0,1,1.91,4.78l.06,0c1.1-.42,2.19-.89,3.26-1.38a48.93,48.93,0,0,0,22.36-20.79c3.08-5.66,5.6-12.58,4.77-19.11-.86-6.7-4.8-11.08-10.43-12.9l.9-.25c.8-.21,1.61-.39,2.44-.55.22,0,.44-.09.67-.12a16.29,16.29,0,0,1,5.87,5.24c4.22,6.2,3.55,14.37,1.34,21.17-4.32,13.27-14.52,24-27,29.84-1,.49-2.08,1-3.15,1.37l-.33.12-1.27.46c-.4-.82-.8-1.64-1.22-2.44s-.85-1.63-1.3-2.43-.92-1.62-1.4-2.42a51.22,51.22,0,0,0-5.86-7.91,48.53,48.53,0,0,0-11.82-9A15.61,15.61,0,0,0,173.54,42.61Z"/><path class="cls-21" d="M174.81,55l0,.06v.19s0,.06,0,.09,0,.06,0,.09,0,.07,0,.1v.1a.78.78,0,0,0,0-.16c0-.05,0-.1,0-.15a.88.88,0,0,1,0-.16l0-.16"/><path class="cls-22" d="M202.45,69.69a1.31,1.31,0,0,1-.44-.07l-30.34-9.27a1.51,1.51,0,0,1-1.06-1.45l0-4.51a1.48,1.48,0,0,1,.68-1.24,1.42,1.42,0,0,1,.82-.25,1.43,1.43,0,0,1,.58.12L203,65.8a1.49,1.49,0,0,1,.92,1.38v1a1.5,1.5,0,0,1-.61,1.2A1.45,1.45,0,0,1,202.45,69.69Z"/><path class="cls-23" d="M172.15,54.4l30.3,12.78v1l-30.34-9.28,0-4.51m0-3a3.06,3.06,0,0,0-1.65.49,3,3,0,0,0-1.35,2.48l0,4.52a3,3,0,0,0,2.12,2.89l30.34,9.28a3,3,0,0,0,3.88-2.87v-1a3,3,0,0,0-1.83-2.76l-30.3-12.78a3,3,0,0,0-1.17-.24Z"/><path class="cls-24" d="M183.77,124.46c-3,.85-6,1.74-9,2.61-13,3.83-25.5,7.54-38.11,7.54A55.25,55.25,0,0,1,109,127.39C86.23,114.63,62.14,93.74,44.76,71.91c-.3.57-.6,1.13-.91,1.69-8,14.33-19.43,30.63-16.37,47.86a53.18,53.18,0,0,0,3.59,11.86,56.31,56.31,0,0,0,2.52,5.11c9.23,16.59,26.48,28.79,44.24,34.38,20.21,6.35,41.74,5.5,62.4,2.05,19.19-3.21,39.29-8.89,54.79-21.17a52.58,52.58,0,0,0,18.39-27.37c-1.3-.78-2.57-1.51-3.33-1.88A40.87,40.87,0,0,0,183.77,124.46Z"/><path class="cls-20" d="M213.89,124.28c-1.18-.7-2.29-1.33-3-1.67l-.11,0a42.71,42.71,0,0,0-27.58,0c-3,.84-6,1.73-8.94,2.6-21.94,6.49-42.66,12.62-64.31.49C87.18,112.88,63,91.87,45.77,70c-.89-1.13-1.74-2.25-2.59-3.38-.11.23-.22.45-.34.68-.21.43-.45.86-.67,1.29.85,1.12,1.7,2.23,2.59,3.33C62.14,93.74,86.23,114.63,109,127.39a55.25,55.25,0,0,0,27.74,7.22c12.61,0,25.15-3.71,38.11-7.54,2.91-.87,5.93-1.76,9-2.61a40.87,40.87,0,0,1,26.31,0c.76.37,2,1.1,3.33,1.88,1.14.69,2.3,1.43,3.17,2,.11-.44.23-.87.33-1.31.06-.25.1-.51.16-.76C216.12,125.63,215,124.92,213.89,124.28Z"/><path class="cls-25" d="M75,75.89c13.14-6.22,26.19-8.11,41.31-5.62,4.31,1.17,8.62,2.35,11.82,4.59,10.67,7.81,20.24,16.68,24.34,27.61a105.68,105.68,0,0,1,4.2,11.15c1,20.44-10.77,40.76-28.24,49-18.62,9.36-39.14,5.67-56.26-4.45a14.44,14.44,0,0,1-5.28-6.61c-5.23-8.79-.64-20.61-8.09-27.27C39.67,106.57,58.57,84.21,75,75.89Z"/><path class="cls-26" d="M116.28,126a30.12,30.12,0,0,1-6.85,1.34,30.12,30.12,0,0,0,6.85-1.34q2.61.66,5.12,1.54-2.5-.89-5.12-1.54c9.08-2.8,17.12-9.13,26.25-12.53-3.89,15.93-8.14,35.09-23,41.12-18.51,10-42.1,6.36-61.87-2.31a5.23,5.23,0,0,1-1.46-6.7C69.35,126.87,95.06,120.68,116.28,126Z"/><g class="cls-27"><path class="cls-28" d="M68.89,145.67A6,6,0,0,0,71,147.83a15.13,15.13,0,0,0,2.69,1.37,35.24,35.24,0,0,0,5.81,1.71,85,85,0,0,0,12,1.61c4,.26,8.08.34,12.11.24,2-.06,4-.15,6-.34a30.15,30.15,0,0,0,5.86-1c.21-.08.43-.17.61-.26s.29-.22.25-.2l.58-1.45c.41-.95.86-1.87,1.32-2.78.94-1.82,1.94-3.59,2.94-5.37,2-3.53,4.18-7,6.38-10.4s4.46-6.81,6.82-10.16c1.19-1.67,2.41-3.33,3.69-5,.66-.82,1.29-1.64,2-2.46l1.13-1.21c.45-.42,1-.83,1.45-1.24h0l1.77,4.37a234.21,234.21,0,0,1-23.18,3.42,222.8,222.8,0,0,1-23.4,1A161.65,161.65,0,0,1,74.42,118a119.77,119.77,0,0,1-22.93-5.76l1.87-4.4h0a25.42,25.42,0,0,1,7.85,7.84,33.15,33.15,0,0,1,4,9.78,89.44,89.44,0,0,1,1.73,10.18c.21,1.7.43,3.4.68,5.09A20.9,20.9,0,0,0,68.89,145.67Zm-.06,0a20.75,20.75,0,0,1-1.35-4.95c-.33-1.68-.57-3.38-.87-5.06a59.09,59.09,0,0,0-2.46-9.91,26.47,26.47,0,0,0-4.92-8.61,17,17,0,0,0-7.91-5h0l-.07,0a2.39,2.39,0,0,1,1.93-4.37,114.83,114.83,0,0,0,22,5.51A158.4,158.4,0,0,0,97.89,115a216.5,216.5,0,0,0,22.9-1,226.13,226.13,0,0,0,22.66-3.33,2.38,2.38,0,0,1,2,4.16l-.24.2h0l-.94.63-1.05.9c-.71.62-1.4,1.33-2.1,2-1.36,1.42-2.7,2.91-4,4.42-2.62,3-5.09,6.23-7.53,9.43s-4.75,6.52-7,9.89c-1.11,1.67-2.17,3.39-3.17,5.12-.49.88-1,1.76-1.4,2.64l-.61,1.35a1.51,1.51,0,0,1-.84.8,4.34,4.34,0,0,1-.8.3,30.23,30.23,0,0,1-6.13.8q-3,.17-6.09.16-6.09,0-12.15-.58a95.37,95.37,0,0,1-12-1.75,36.86,36.86,0,0,1-5.82-1.77,15.32,15.32,0,0,1-2.69-1.41A6.1,6.1,0,0,1,68.83,145.7Z"/></g><g class="cls-27"><path class="cls-28" d="M68.88,145.68a6,6,0,0,0,2.06,2.17,14.84,14.84,0,0,0,2.69,1.38A36.3,36.3,0,0,0,79.44,151a88.23,88.23,0,0,0,12,1.64c4,.29,8.08.4,12.12.32,2,0,4.05-.12,6.06-.29a31.4,31.4,0,0,0,5.92-1,4.67,4.67,0,0,0,.65-.27c.2-.11.37-.24.39-.34l.59-1.43c.41-.93.87-1.85,1.33-2.75.95-1.8,2-3.56,3-5.31,2.08-3.49,4.29-6.89,6.55-10.26s4.56-6.72,7-10c1.22-1.63,2.47-3.24,3.78-4.82.67-.79,1.32-1.58,2-2.34L142,113c.42-.37.87-.73,1.32-1.09h0l.89,2.18a228,228,0,0,1-23.06,3.39,220.23,220.23,0,0,1-23.27,1.06,160.41,160.41,0,0,1-23.26-1.74,118.94,118.94,0,0,1-22.69-5.7l.94-2.2h0a23.16,23.16,0,0,1,7.86,7.14,31.61,31.61,0,0,1,4.23,9.48,77.89,77.89,0,0,1,1.9,10.11c.23,1.7.47,3.39.74,5.08A21.12,21.12,0,0,0,68.88,145.68Zm0,0a20.55,20.55,0,0,1-1.35-4.94c-.31-1.69-.53-3.39-.82-5.07a63.86,63.86,0,0,0-2.28-10,27.8,27.8,0,0,0-4.68-8.9,19,19,0,0,0-7.89-5.72h0a1.2,1.2,0,0,1,1-2.19A116.22,116.22,0,0,0,75,114.45a158.12,158.12,0,0,0,22.92,1.71,218.53,218.53,0,0,0,23-1,229.36,229.36,0,0,0,22.8-3.35,1.19,1.19,0,0,1,1,2.1l-.1.08h0l-1.07.79-1.07,1c-.71.66-1.39,1.4-2.08,2.12-1.34,1.48-2.64,3-3.92,4.57-2.54,3.12-5,6.34-7.36,9.6s-4.64,6.62-6.8,10q-1.62,2.55-3.11,5.18c-.49.88-1,1.77-1.39,2.67l-.6,1.37a1.3,1.3,0,0,1-.7.66,4.4,4.4,0,0,1-.76.29,30.69,30.69,0,0,1-6.06.84c-2,.13-4,.19-6.08.2-4,0-8.11-.14-12.14-.49a91.55,91.55,0,0,1-12-1.72,35.36,35.36,0,0,1-5.81-1.75,15,15,0,0,1-2.7-1.4A6,6,0,0,1,68.85,145.69Z"/></g><path class="cls-18" d="M68.86,145.69c4.16,8.71,46.89,8.58,48,5.5,2.9-8,21.69-34.86,27.07-38.25-9.1,1.89-56,10.5-91.6-2.94C68.23,117.5,65.63,138.92,68.86,145.69Z"/><g class="cls-29"><path class="cls-18" d="M62.63,115.7a152.33,152.33,0,0,0,36.86,4.09,236,236,0,0,0,37.38-3.12c-3.76,4.45-7.75,10-9.35,12.3-4.65,6.6-10.59,15.77-12.62,20.7-1.31.4-5.42,1-12.85,1-17.38,0-29.64-3.14-31-6-.74-1.56-1.19-4.6-1.66-7.81-.92-6.2-2.14-14.54-6.73-21.14M52.34,110c15.89,7.5,13.29,28.92,16.52,35.69,2.59,5.41,20,7.41,33.19,7.41,8,0,14.4-.75,14.82-1.91,2.9-8,21.69-34.86,27.07-38.25a231.69,231.69,0,0,1-44.45,4.46c-15.3,0-32.22-1.76-47.15-7.4Z"/></g><path class="cls-30" d="M67.26,138.33c2.49,2.7,13.35-6.69,12.88-11-1.22-10.83-13-10.88-17.19-12.09s-12-5.92-8.63-4.41c9.45,4.28,28.39,5.36,30.53,6.32,2.72,1.21,3.22,12.9.1,15.11s-14.87,16-16,13.16C67.74,142.48,67.73,140,67.26,138.33Z"/><path class="cls-30" d="M113.31,131.65c2,2.48,7.54,5.85,11.4,5a28.52,28.52,0,0,1-3.45,5.57c-25.18-5.51-16-22.49-13.83-23.92s26.11-1.75,30.82-2.17C131.12,116.8,106.47,123.05,113.31,131.65Z"/><path class="cls-2" d="M101.37,152.93c-12.49,0-28.28-1.73-31.71-6.61-.12-.26.1-1.65,1.59-4,3.66-5.72,11.77-12.41,22.56-12.41.6,0,1.2,0,1.82.07,16.08,1.09,25.48,10.55,25.59,12.26-.24.44-.57,1-1,1.67-1.07,1.84-2.67,4.61-4.19,7.74C115.18,152.22,109.71,152.93,101.37,152.93Z"/><path class="cls-3" d="M93.81,129.15v1.59c.58,0,1.18,0,1.77.06,14.42,1,23.72,9.1,24.77,11.39-.21.38-.47.83-.77,1.35-1,1.79-2.59,4.47-4.08,7.52-1.24.42-6.11,1.07-14.13,1.07-15.69,0-28-2.44-30.93-6.09.07-.72,1-3.21,3.91-6.4,2.44-2.68,9.2-8.9,19.46-8.9v-1.59m0,0c-16.72,0-26.35,15.43-24.8,17.63,3.72,5.3,19.86,6.95,32.36,6.95,8.28,0,15-.73,15.38-1.59,2.09-4.33,4.31-7.91,5.21-9.55,1-1.79-9.39-12.23-26.28-13.38-.63,0-1.26-.06-1.87-.06Z"/><path class="cls-31" d="M69.42,145.81c-1.87,5.34,35-17.13,51.29-2,4.32-4.44-14.47-15.44-26.34-15C84.34,129.26,73.46,134.24,69.42,145.81Z"/><path class="cls-32" d="M79.93,118c1.28,3.23,2.57,18.39,3.87,18.9s9.2,3.91,10.44,3.56,1.52-3.21,2.67-2.22c.92.8,1.25,2.21,2.32,1.84,1.91-.67,7.74-3.26,8.77-4.66s2-9.8,2.14-16.59C106.43,119.86,85.87,119.43,79.93,118Z"/><g class="cls-29"><path class="cls-33" d="M81.07,119a140.2,140.2,0,0,0,19.37,1.16,76.12,76.12,0,0,0,8.87-.4c-.28,7.48-1.25,14.18-2,15.13s-6,3.56-8.4,4.38l-.07,0c-.12,0-.39-.41-.55-.64a6.2,6.2,0,0,0-.91-1.06,1.47,1.47,0,0,0-1-.4c-.85,0-1.29.77-1.68,1.45-.21.37-.52.93-.76,1-1.33,0-7.06-2.35-8.94-3.13l-.85-.34c-.53-.89-1.25-5.68-1.78-9.2-.46-3.1-.91-6.07-1.37-8m-1.14-1c1.28,3.23,2.57,18.39,3.87,18.9s8.44,3.58,10.21,3.58l.23,0c1.05-.3,1.42-2.43,2.21-2.43a.75.75,0,0,1,.46.21c.81.71,1.16,1.9,2,1.9a1.11,1.11,0,0,0,.34-.06c1.91-.67,7.74-3.26,8.77-4.66s2-9.8,2.14-16.59a51.84,51.84,0,0,1-9.7.58c-7.44,0-16.81-.51-20.51-1.41Z"/></g><path class="cls-34" d="M81.37,125.32c.13-5.49,25.5-4,28.57-3.19.22-1.28.06-2.21.3-3.65C105.83,120.07,83,119.4,80,118A50.16,50.16,0,0,1,81.37,125.32Z"/><path class="cls-35" d="M94.49,122.82c.42,1.24.72,2.49,1,3.74s.54,2.51.79,3.77L97,134.1l.66,3.75-2.13.33-.33-3.84-.37-3.79c-.13-1.27-.28-2.53-.45-3.79a37.31,37.31,0,0,0-.65-3.71Z"/><g class="cls-36"><path class="cls-37" d="M80.82,100.49c0,1.9,3.71,3.44,8.31,3.43s8.36-1.56,8.38-3.46S93.8,97,89.2,97,80.84,98.58,80.82,100.49Z"/></g><path class="cls-38" d="M95.78,91.39c-1.89-1.24-12.08-.81-13.36.44s-4.2,6.52-.93,8.69c1.12.74,1.23-2.37,3.73-1.87,3.07.62,1.41,4.52,3.78,4.45,3.71-.12.17-4.22,3.43-4.77,2.45-.42,3,1.83,4,1.65C100.06,99.35,98.44,93.12,95.78,91.39Z"/><path class="cls-39" d="M81.49,100.52c1.12.74,1.23-2.37,3.73-1.87,3.07.62,1.41,4.52,3.78,4.45,3.71-.12.17-4.22,3.43-4.77,2.45-.42,3,1.83,4,1.65,3.61-.63,2-6.86-.67-8.59-1.89-1.24-12.08-.81-13.36.44S78.22,98.35,81.49,100.52Zm-.29-2.64c-.18-1.95,1.35-4.52,2-5.2h0a5,5,0,0,1,1.17-.34c3.56-.74,9.71-.61,10.71,0a6.2,6.2,0,0,1,2.17,5.27c-.15.77-.53,1-.88,1.1l-.31-.27a4.22,4.22,0,0,0-3.88-1.34l-.16,0c-2.42.51-2.39,2.6-2.38,3.61a3.12,3.12,0,0,1-.08,1,.64.64,0,0,1-.23.08,2.42,2.42,0,0,1-.42,0h-.12a5.05,5.05,0,0,1-.27-.9c-.29-1.14-.76-3-3.12-3.52a3.58,3.58,0,0,0-1.42,0,3.8,3.8,0,0,0-2.3,1.7A2.13,2.13,0,0,1,81.2,97.88Z"/><path class="cls-22" d="M16.41,60.72c0,.4.07.76.11,1.14,0,.14,0,.3.05.45a.13.13,0,0,0,0,.06v.05c0,.17.06.33.08.48s0,.12,0,.18.07.34.11.5a.94.94,0,0,0,0,.16c0,.16.08.3.13.44s0,.09,0,.12.13.32.19.45h0a5.57,5.57,0,0,0,1.22,1.37,16.54,16.54,0,0,0,1.67,1.19c.59.37,1.19.73,1.75,1.09a11.78,11.78,0,0,1,1.49,1.11,23.26,23.26,0,0,1,2.41,4.16c1.14,2.24,2.56,5.14,4.09,8.22S33,88.28,34.62,91.2A64.74,64.74,0,0,0,39,98.46a7.56,7.56,0,0,0,2.33,2,17,17,0,0,0,3.43,1.46,31.1,31.1,0,0,0,4.26,1,45.08,45.08,0,0,0,4.79.5c.69,0,1.38.06,2.08.08h2.21l.43,0,1.5-.05.64,0,.89-.06.51,0,.3,0,.36,0,1.36-.14.63-.09.56-.07.76-.13.37,0,.2,0,1.33-.26.47-.1.29-.06.34-.08.33-.09.33-.09a2,2,0,0,0,.33-.09c.65-.18,1.26-.38,1.84-.59s1.1-.44,1.58-.68a10.65,10.65,0,0,0,1.27-.76,5.5,5.5,0,0,0,.93-.84c1.33-1.58,2.17-4.15,2.77-7.2s.94-6.61,1.28-10.13.69-7,1.28-10,1.43-5.35,2.76-6.67l.13-.1.08,0,.09,0,.09,0,.11,0,.1,0,.18,0h.24l.48-.06c.17,0,.34,0,.53,0l.56,0h.58l1.14,0,1.07.08.9.08.64,0c.89,0,1.86,1.67,3,4.24s2.45,6.07,4,9.88a102.22,102.22,0,0,0,5.55,11.68,36.36,36.36,0,0,0,7.62,9.74,15.2,15.2,0,0,0,3.21,1.61c1.64.67,3.8,1.44,6.28,2.19s5.3,1.47,8.24,2a67,67,0,0,0,9.06,1.19c.82,0,1.64.07,2.45.07s1.62,0,2.41-.06,1.56-.12,2.32-.21,1.51-.23,2.23-.38,1.36-.33,2-.54a18.29,18.29,0,0,0,1.88-.72,15.43,15.43,0,0,0,1.71-.91,12.45,12.45,0,0,0,1.54-1.13,28.57,28.57,0,0,0,6.69-9.41,67.76,67.76,0,0,0,4.21-11.88c1-4,1.76-7.75,2.24-10.7s.73-5.06.84-5.73A3.4,3.4,0,0,1,169.26,64a14.22,14.22,0,0,1,2-1.58c.74-.51,1.48-1,2.11-1.5a4.41,4.41,0,0,0,1.35-1.58,2.94,2.94,0,0,0,.17-.64,6.84,6.84,0,0,0,.08-.85,8.33,8.33,0,0,0,0-1c0-.36,0-.73-.07-1.12l0-.2a1.23,1.23,0,0,0,0-.2l0-.21a1.49,1.49,0,0,1,0-.21c0-.22-.07-.44-.11-.66s-.08-.45-.13-.67-.09-.45-.15-.67-.11-.44-.17-.65a12.8,12.8,0,0,0-.52-1.55,8.16,8.16,0,0,0-.63-1.29,3.9,3.9,0,0,0-.74-.91,1.54,1.54,0,0,0-.84-.39h-.42a9.05,9.05,0,0,0-1,0c-.37,0-.77.08-1.21.14l-1.37.19-1.51.22-1.58.22c-.54.07-1.08.14-1.63.19s-1.11.1-1.66.13-1.11,0-1.65,0l-.67,0-.66,0-.64-.07c-.22,0-.43-.06-.64-.09q-5-.87-9.47-1.49t-8.51-1c-2.68-.27-5.22-.46-7.62-.59s-4.66-.21-6.79-.24c-2.77,0-5.32,0-7.67.15s-4.49.31-6.45.55-3.74.52-5.35.83-3.05.66-4.34,1S98,49,97,49.31s-2,.66-2.76.93l-1.9.69c-.49.18-.86.31-1.11.38h0l-1.58.42c-.57.14-1.17.27-1.79.38s-1.28.22-2,.28a17.54,17.54,0,0,1-2.07.09l-.71,0-.71-.06c-.24,0-.48-.06-.72-.09l-.73-.14c-2.31-.48-4.52-.9-6.64-1.24s-4.14-.63-6.07-.86-3.77-.39-5.52-.5-3.42-.18-5-.21q-3.27,0-6.1.14c-1.89.11-3.64.28-5.26.5s-3.11.49-4.49.78c-1,.21-1.92.44-2.8.67l-.55.15-.43.11-.44.14-.09,0-.14.05-.56.17-.28.09-.33.11-.53.18-.17.06-.42.16-.47.17-.07,0-.91.36h-.06l0,0h0l0,0c-.76.32-1.43.63-2,.92s-1.13.58-1.6.83l-1.2.67c-.34.19-.62.35-.84.45h-.21l-.05,0,.91-.34-.91.34h0l-.11,0h0l-.49.17.49-.17h0l-.06,0-.34.08-.36.05a2.22,2.22,0,0,1-.37,0h-.38a10.65,10.65,0,0,1-2-.26c-.71-.15-1.42-.35-2.11-.56l-2-.61a15.75,15.75,0,0,0-1.63-.44h-.38l-.08.05-.13.07a.7.7,0,0,0-.19.16,1.31,1.31,0,0,0-.11.12,3,3,0,0,0-.16.26.8.8,0,0,0-.08.16,2.83,2.83,0,0,0-.14.35.79.79,0,0,0,0,.09.36.36,0,0,0,0,.1l-.06.17-.06.26c0,.07,0,.14,0,.21s-.06.33-.09.51l0,.21c0,.19,0,.38-.05.57a1.49,1.49,0,0,0,0,.21l0,.63s0,.09,0,.13v.26c0,.33,0,.66,0,1S16.4,60.54,16.41,60.72Z"/><path class="cls-13" d="M30.92,66.7c3.62-5.46,6.51-9.53,20.64-8.53s21.54,1.72,23,6.82c1.35,4.91.45,29-10.1,29.72C38,96.57,40.66,94.6,36.16,87.34A33.86,33.86,0,0,1,30.92,66.7Z"/><path class="cls-13" d="M157,63.44c-3.63-5.47-19.11-8.27-33.24-7.27s-20.14,2.34-23,6.82,6.64,32.1,26,34.32c26.27,3,25.59,1.72,29.77-16C159.47,69.11,157,63.44,157,63.44Z"/><path class="cls-40" d="M155.44,65.94c.12,1.44.51,8.12.59,9.59s0,2.74,0,3.84a3.51,3.51,0,0,1-.86,2,64.39,64.39,0,0,0-1.62-8,18.55,18.55,0,0,0-3.34-6.69,16.79,16.79,0,0,0-6.8-4.83,39.13,39.13,0,0,0-11.9-2.46l-1.09-.07-1.08-.06-1.06,0-1,0a67.85,67.85,0,0,0-9.17.4A43.91,43.91,0,0,0,110.79,61a19.85,19.85,0,0,0-5,2.13,5.26,5.26,0,0,0-2.34,2.54,8.76,8.76,0,0,0,0,3.36,33.13,33.13,0,0,0,1.32,5.77,47.74,47.74,0,0,0,3,7.33,52.72,52.72,0,0,0,5.05,8l-.21-.22-.22-.23-.22-.25-.22-.26a48.9,48.9,0,0,1-4.5-6.87c-1.41-2.53-3.09-4.29-4.12-6.79a64,64,0,0,1-2.65-7.34L100.35,63l5-3.45,17.32-3.86,24.58,2.35Z"/><path class="cls-41" d="M129.25,54.56l.77,0,.78,0,.78,0,.78,0c-1,0-1.93.08-2.81.15s-1.67.13-2.38.21-1.34.17-1.86.25l-1.25.21c5.5.63,9.82,1.23,13.26,1.84a57.07,57.07,0,0,1,8,1.88,17.53,17.53,0,0,1,4.58,2.16,18.47,18.47,0,0,1,3,2.7c-.33-.33-.68-.64-1-.94s-.7-.58-1.05-.86-.7-.52-1-.76-.68-.45-1-.65-.46-.28-.69-.4-.45-.25-.66-.35-.43-.21-.63-.29a6.06,6.06,0,0,0-.59-.21l-.43-.14-.44-.12-.44-.13-.43-.12-1.08-.29q-.55-.15-1.14-.27l-1.19-.26-1.24-.23c-.87-.15-1.75-.29-2.62-.41s-1.74-.22-2.61-.3-1.74-.15-2.6-.2-1.72-.08-2.58-.1H127.2c-.76,0-1.5,0-2.24.06s-1.47.07-2.19.13-1.43.11-2.13.19-1.53.16-2.28.26-1.51.21-2.25.34-1.47.26-2.19.42-1.43.32-2.13.5c-1.19.29-2.3.61-3.33.95s-2,.7-2.82,1.07a19.82,19.82,0,0,0-2.22,1.13,9.85,9.85,0,0,0-1.57,1.16l-.11.09-.11.08-.11.08-.11.08c-.7.53-.72,2-.28,4a42.7,42.7,0,0,0,2.5,7.24,83.12,83.12,0,0,0,4,8,45.55,45.55,0,0,0,4.25,6.34q.47.59.93,1.11c.32.35.63.68.94,1s.62.6.93.86a11.31,11.31,0,0,0,.93.7l0,0,0,0,.05,0,0,0A9.62,9.62,0,0,0,118,94.11a40.92,40.92,0,0,0,4.26,1.47,58.13,58.13,0,0,0,5.82,1.35,55.19,55.19,0,0,0,6.87.78c1,.05,1.95.06,2.95.05s2-.06,3-.14,2-.21,3-.37,2-.38,3-.63l.28-.07.26-.07.26-.07.25-.08.26-.08.26-.08.27-.08.26-.09a5,5,0,0,0,1.76-1,7.73,7.73,0,0,0,1.37-1.66,12,12,0,0,0,1-2.07,19.25,19.25,0,0,0,.7-2.27,32,32,0,0,0,1.24-6,53.76,53.76,0,0,0,.35-6.29c0-2-.1-4-.26-5.66a38.94,38.94,0,0,0-.58-4.1V66.7c.25,1.2.51,2.81.73,4.71s.38,4.07.43,6.41a59,59,0,0,1-.3,7.31,41.67,41.67,0,0,1-1.43,7.43,2.73,2.73,0,0,0,.79-.72,6.66,6.66,0,0,0,.75-1.21A14.77,14.77,0,0,0,156.3,89c.22-.61.44-1.27.64-2a27.85,27.85,0,0,1-1,3.72,19.43,19.43,0,0,1-1.36,3.08,13.32,13.32,0,0,1-1.7,2.44,9.78,9.78,0,0,1-2,1.75,2.77,2.77,0,0,1-.66.27l-.75.2a5.51,5.51,0,0,0-.83.29,4,4,0,0,0-.88.56,19.36,19.36,0,0,1-2.14.33c-.77.09-1.6.14-2.48.18s-1.8.05-2.75,0-1.94,0-2.94-.09c-2.23-.11-4.54-.32-6.82-.6s-4.51-.65-6.57-1.07a51.5,51.5,0,0,1-5.55-1.44A15.26,15.26,0,0,1,114.71,95a22.61,22.61,0,0,1-4.95-5,56.86,56.86,0,0,1-4.48-7.12,83.36,83.36,0,0,1-3.57-7.55A56.9,56.9,0,0,1,99.48,69c-.21-.78-.37-1.49-.49-2.14a13.48,13.48,0,0,1-.2-1.74,6.58,6.58,0,0,1,.1-1.38,3.44,3.44,0,0,1,.38-1.08,6.88,6.88,0,0,1,2-2.08,16.5,16.5,0,0,1,2.93-1.68,31.49,31.49,0,0,1,3.26-1.29c1.07-.36,2.09-.65,2.95-.88,1.25-.33,2.6-.64,4-.91s3-.51,4.55-.71,3.27-.34,5-.43,3.49-.13,5.3-.1"/><path class="cls-23" d="M35.86,87.94l.2.31.2.29a3.16,3.16,0,0,0,.2.27c.06.09.13.17.19.25l.48.88.46.86c.16.28.31.56.47.83l.45.8c-.14-.17-.27-.35-.41-.53l-.4-.54-.39-.57c-.13-.19-.26-.38-.38-.58s-.17-.36-.26-.55-.17-.37-.26-.56l-.27-.57c-.09-.2-.19-.39-.28-.59"/><path class="cls-23" d="M34.34,85.27l.39.74.38.69.38.65.37.59c.09.2.19.39.28.59l.27.57c.09.19.17.38.26.56s.17.37.26.55c-.24-.38-.47-.77-.7-1.16s-.45-.81-.66-1.22-.43-.84-.63-1.26-.4-.86-.6-1.3"/><path class="cls-42" d="M93.64,55.27c-.29.37-.57.73-.85,1.07a11.44,11.44,0,0,1-.88.94,4.58,4.58,0,0,1-1,.7,3.15,3.15,0,0,1-1.15.35l-1.17.12-1.19.11-1.19.08c-.39,0-.77,0-1.14,0s-.62,0-.91-.06a7.37,7.37,0,0,1-.84-.13,5.33,5.33,0,0,1-.74-.22,4.32,4.32,0,0,1-.64-.34l-.71-.47-.87-.57-1-.62-1-.62.61.12.61.13.62.13.62.13,1.08.2,1.06.14,1,.09,1,0c.79,0,1.55,0,2.27-.06s1.41-.13,2-.22,1.23-.2,1.76-.32,1-.23,1.41-.34l.26-.08.27-.09.27-.1.3-.13"/><path class="cls-23" d="M16.41,60.72c0,.4.07.76.11,1.14,0,.14,0,.3.05.45a.13.13,0,0,0,0,.06v.05c0,.17.06.33.08.48s0,.12,0,.18.07.34.11.5a.94.94,0,0,0,0,.16c0,.16.08.3.13.44s0,.09,0,.12.13.32.19.45h0a5.57,5.57,0,0,0,1.22,1.37,16.54,16.54,0,0,0,1.67,1.19c.59.37,1.19.73,1.75,1.09a11.78,11.78,0,0,1,1.49,1.11,23.26,23.26,0,0,1,2.41,4.16c1.14,2.24,2.56,5.14,4.09,8.22S33,88.28,34.62,91.2A64.74,64.74,0,0,0,39,98.46a7.56,7.56,0,0,0,2.33,2,17,17,0,0,0,3.43,1.46,31.1,31.1,0,0,0,4.26,1,45.08,45.08,0,0,0,4.79.5c.69,0,1.38.06,2.08.08h2.21l.43,0,1.5-.05.64,0,.89-.06.51,0,.3,0,.36,0,1.36-.14.63-.09.56-.07.76-.13.37,0,.2,0,1.33-.26.47-.1.29-.06.34-.08.33-.09.33-.09a2,2,0,0,0,.33-.09c.65-.18,1.26-.38,1.84-.59s1.1-.44,1.58-.68a10.65,10.65,0,0,0,1.27-.76,5.5,5.5,0,0,0,.93-.84c1.33-1.58,2.17-4.15,2.77-7.2s.94-6.61,1.28-10.13.69-7,1.28-10,1.43-5.35,2.76-6.67l.13-.1.08,0,.09,0,.09,0,.11,0,.1,0,.18,0h.24l.48-.06c.17,0,.34,0,.53,0l.56,0h.58l1.14,0,1.07.08.9.08.64,0c.89,0,1.86,1.67,3,4.24s2.45,6.07,4,9.88a102.22,102.22,0,0,0,5.55,11.68,36.36,36.36,0,0,0,7.62,9.74,15.2,15.2,0,0,0,3.21,1.61c1.64.67,3.8,1.44,6.28,2.19s5.3,1.47,8.24,2a67,67,0,0,0,9.06,1.19c.82,0,1.64.07,2.45.07s1.62,0,2.41-.06,1.56-.12,2.32-.21,1.51-.23,2.23-.38,1.36-.33,2-.54a18.29,18.29,0,0,0,1.88-.72,15.43,15.43,0,0,0,1.71-.91,12.45,12.45,0,0,0,1.54-1.13,28.57,28.57,0,0,0,6.69-9.41,67.76,67.76,0,0,0,4.21-11.88c1-4,1.76-7.75,2.24-10.7s.73-5.06.84-5.73A3.4,3.4,0,0,1,169.26,64a14.22,14.22,0,0,1,2-1.58c.74-.51,1.48-1,2.11-1.5a4.41,4.41,0,0,0,1.35-1.58,2.94,2.94,0,0,0,.17-.64,6.84,6.84,0,0,0,.08-.85,8.33,8.33,0,0,0,0-1c0-.36,0-.73-.07-1.12l0-.2a1.23,1.23,0,0,0,0-.2l0-.21a1.49,1.49,0,0,1,0-.21c0-.22-.07-.44-.11-.66s-.08-.45-.13-.67-.09-.45-.15-.67-.11-.44-.17-.65a12.8,12.8,0,0,0-.52-1.55,8.16,8.16,0,0,0-.63-1.29,3.9,3.9,0,0,0-.74-.91,1.54,1.54,0,0,0-.84-.39h-.42a9.05,9.05,0,0,0-1,0c-.37,0-.77.08-1.21.14l-1.37.19-1.51.22-1.58.22c-.54.07-1.08.14-1.63.19s-1.11.1-1.66.13-1.11,0-1.65,0l-.67,0-.66,0-.64-.07c-.22,0-.43-.06-.64-.09q-5-.87-9.47-1.49t-8.51-1c-2.68-.27-5.22-.46-7.62-.59s-4.66-.21-6.79-.24c-2.77,0-5.32,0-7.67.15s-4.49.31-6.45.55-3.74.52-5.35.83-3.05.66-4.34,1S98,49,97,49.31s-2,.66-2.76.93l-1.9.69c-.49.18-.86.31-1.11.38h0l-1.58.42c-.57.14-1.17.27-1.79.38s-1.28.22-2,.28a17.54,17.54,0,0,1-2.07.09l-.71,0-.71-.06c-.24,0-.48-.06-.72-.09l-.73-.14c-2.31-.48-4.52-.9-6.64-1.24s-4.14-.63-6.07-.86-3.77-.39-5.52-.5-3.42-.18-5-.21q-3.27,0-6.1.14c-1.89.11-3.64.28-5.26.5s-3.11.49-4.49.78c-1,.21-1.92.44-2.8.67l-.55.15-.43.11-.44.14-.09,0-.14.05-.56.17-.28.09-.33.11-.53.18-.17.06-.42.16-.47.17-.07,0-.91.36h-.06l0,0h0l0,0c-.76.32-1.43.63-2,.92s-1.13.58-1.6.83l-1.2.67c-.34.19-.62.35-.84.45h-.21l-.05,0,.91-.34-.91.34h0l-.11,0h0l-.49.17.49-.17h0l-.06,0-.34.08-.36.05a2.22,2.22,0,0,1-.37,0h-.38a10.65,10.65,0,0,1-2-.26c-.71-.15-1.42-.35-2.11-.56l-2-.61a15.75,15.75,0,0,0-1.63-.44h-.38l-.08.05-.13.07a.7.7,0,0,0-.19.16,1.31,1.31,0,0,0-.11.12,3,3,0,0,0-.16.26.8.8,0,0,0-.08.16,2.83,2.83,0,0,0-.14.35.79.79,0,0,0,0,.09.36.36,0,0,0,0,.1l-.06.17-.06.26c0,.07,0,.14,0,.21s-.06.33-.09.51l0,.21c0,.19,0,.38-.05.57a1.49,1.49,0,0,0,0,.21l0,.63s0,.09,0,.13v.26c0,.33,0,.66,0,1S16.4,60.54,16.41,60.72Zm2.88.26c0-.46,0-.92,0-1.36a11.16,11.16,0,0,1,.07-1.22l.22.07.21.07.22.06.23.08,1.3.4q.68.21,1.38.39c.47.12.94.23,1.41.31a11.78,11.78,0,0,0,1.42.19h.9l.45,0,.45,0,.45-.07.43-.11.11,0,.1,0,.1,0,.1,0,.37-.15.38-.19.43-.23.49-.27.85-.47,1-.55c.38-.19.79-.39,1.24-.59s.92-.42,1.44-.63a17.29,17.29,0,0,1,4-2.11,39.63,39.63,0,0,1,5.31-1.59,52.47,52.47,0,0,1,5.85-1,43.84,43.84,0,0,1,5.59-.29h.6l.3,0H57c.78,0,1.86.15,3.1.3s2.67.37,4.14.63,3,.57,4.41.91a36.4,36.4,0,0,1,3.9,1.13l1.43.23,1.45.26,1.47.26,1.48.29.61.12.61.13.62.13.62.13,1.08.2,1.06.14,1,.09,1,0c.79,0,1.55,0,2.27-.06s1.41-.13,2-.22,1.23-.2,1.76-.32,1-.23,1.41-.34l.26-.08.27-.09.27-.1.3-.13.16-.07.18-.07.18-.09.2-.08,1.26-.56c.49-.21,1-.43,1.67-.67s1.32-.49,2.09-.75,1.62-.51,2.55-.76c1.45-.39,3-.73,4.55-1s3.25-.55,5-.76,3.53-.36,5.39-.47,3.81-.18,5.8-.2h4.13l.45,0c2.19.05,4.44.16,6.77.32s4.72.38,7.18.64,5,.59,7.59,1,5.26.8,8,1.29l.74.11c.25,0,.5.06.75.08l.76.06.77,0c.7,0,1.4,0,2.09,0s1.39-.1,2.07-.18l2-.26,1.89-.29.66-.11.7-.1.69-.1.63-.08a8,8,0,0,1,.29.9c.09.33.18.68.25,1s.14.72.19,1.08.09.71.12,1c0,.13,0,.25,0,.37s0,.23,0,.34,0,.21,0,.31a2.45,2.45,0,0,1,0,.27c-.09.08-.21.19-.35.3l-.47.35-.51.37-.48.33-1,.72c-.35.25-.7.51-1,.79a11.23,11.23,0,0,0-1,.88,7.15,7.15,0,0,0-.82,1,4.15,4.15,0,0,0-.35.57,5.76,5.76,0,0,0-.3.61c-.08.21-.16.43-.23.66s-.11.47-.15.71q0,.09,0,.21a1.59,1.59,0,0,0,0,.26c0,.09,0,.2,0,.32s0,.24-.06.37c-.13,1-.28,2-.43,3s-.3,1.92-.46,2.84-.32,1.81-.49,2.68-.34,1.7-.52,2.51a83.79,83.79,0,0,1-2.52,9.28A52,52,0,0,1,157.3,93a31.09,31.09,0,0,1-2.83,4.61,18.43,18.43,0,0,1-2.66,2.9,9.73,9.73,0,0,1-1.18.87,12,12,0,0,1-1.38.74,15.82,15.82,0,0,1-1.56.6c-.56.18-1.14.34-1.76.48s-1.33.26-2,.35-1.4.16-2.12.2-1.46.06-2.2.06-1.49,0-2.25-.06a63.71,63.71,0,0,1-8.25-1c-2.69-.51-5.27-1.15-7.56-1.81s-4.3-1.34-5.86-1.93a19.46,19.46,0,0,1-3.14-1.41,25.53,25.53,0,0,1-4-4.42,49.41,49.41,0,0,1-3.43-5.54c-1-2-2-4-2.93-6.06s-1.73-4.07-2.49-6L99.48,75l-.21-.51-.2-.51c-.06-.16-.13-.33-.19-.5-.63-1.58-1.21-3-1.76-4.35S96,66.67,95.51,65.66a14.9,14.9,0,0,0-1.64-2.54A5.65,5.65,0,0,0,92,61.59a3.52,3.52,0,0,0-.39-.17,2.64,2.64,0,0,0-.4-.12,3.15,3.15,0,0,0-.42-.09,3.27,3.27,0,0,0-.44,0H90l-.22,0-.25,0-.77-.06L88,61l-.76,0-.74,0c-.3,0-.6,0-.89,0s-.57,0-.84,0-.54,0-.78.09a6.87,6.87,0,0,0-.71.14l-.48.16a2.77,2.77,0,0,0-.43.18,3.64,3.64,0,0,0-.39.23l-.35.26,0,0-.05,0,0,0,0,0a10.18,10.18,0,0,0-2.1,3.26A23.62,23.62,0,0,0,78,69.85c-.35,1.62-.61,3.38-.84,5.22s-.41,3.76-.59,5.7l-.06.57c0,.19,0,.38,0,.57l-.06.57-.06.57c-.14,1.38-.29,2.77-.46,4.11s-.38,2.63-.62,3.81a22,22,0,0,1-.86,3.18,7.25,7.25,0,0,1-1.18,2.21,2.75,2.75,0,0,1-.65.55,7.54,7.54,0,0,1-1.13.62c-.47.21-1,.43-1.66.65s-1.37.42-2.2.61c-1,.25-2.13.46-3.28.63s-2.34.31-3.56.4-2.45.15-3.69.17-2.46,0-3.66-.07l-.53,0-.52,0-.53,0-.51,0c-1-.09-2-.22-2.84-.37s-1.63-.31-2.32-.48-1.31-.37-1.85-.56a14.5,14.5,0,0,1-1.41-.58c-.25-.12-.47-.24-.67-.35l-.51-.33a3.35,3.35,0,0,1-.38-.31,1.84,1.84,0,0,1-.24-.26c-.2-.26-.4-.55-.6-.85s-.42-.63-.64-1-.44-.7-.67-1.08l-.7-1.18c-.14-.17-.27-.35-.41-.53l-.4-.54-.39-.57c-.13-.19-.26-.38-.38-.58-.24-.38-.47-.77-.7-1.16s-.45-.81-.66-1.22-.43-.84-.63-1.26-.4-.86-.6-1.3-.47-.93-.7-1.43-.47-1-.71-1.52-.46-1.06-.69-1.6-.45-1.09-.68-1.65l-.17-.35-.17-.34L31.05,78l-.16-.33c-1-1.94-1.74-3.52-2.4-4.81s-1.17-2.28-1.61-3.07A19.32,19.32,0,0,0,25.78,68a6.54,6.54,0,0,0-.88-1c-.23-.2-.46-.4-.7-.58s-.49-.37-.74-.54l-.77-.5-.77-.48-.4-.24-.45-.29L20.61,64l-.42-.3L20,63.61l-.16-.13-.14-.12-.12-.11a9.79,9.79,0,0,1-.19-1C19.35,61.87,19.31,61.43,19.29,61Z"/><path class="cls-42" d="M134.8,54.67a54.6,54.6,0,0,1,5.84.4,41.1,41.1,0,0,1,6,1.2,28.59,28.59,0,0,1,5.74,2.27,20.3,20.3,0,0,1,4.9,3.61A7.14,7.14,0,0,1,158.55,66a40.14,40.14,0,0,1,.16,6.55,73.64,73.64,0,0,1-.75,7.58A55,55,0,0,1,156.5,87q.12-.54.21-1.11c.07-.37.13-.75.19-1.14s.11-.79.15-1.19.09-.82.13-1.24c.15-1.62.23-3.45.22-5.31s-.07-3.76-.22-5.52a37.63,37.63,0,0,0-.66-4.71,7.64,7.64,0,0,0-1.08-2.89,17.09,17.09,0,0,0-1.8-1.94,28.38,28.38,0,0,0-2.38-2,23.48,23.48,0,0,0-2.59-1.7,12.53,12.53,0,0,0-2.44-1.11c-1.18-.36-2.37-.68-3.56-1s-2.39-.52-3.59-.73-2.4-.37-3.59-.51-2.38-.23-3.56-.31h2.87"/><path class="cls-43" d="M132.36,54.68c1.18.08,2.37.18,3.57.31s2.39.31,3.59.51,2.39.45,3.59.73,2.38.6,3.55,1a12.33,12.33,0,0,1,2.45,1.11A24.46,24.46,0,0,1,151.7,60a30.09,30.09,0,0,1,2.38,2,17.09,17.09,0,0,1,1.8,1.94A7.66,7.66,0,0,1,157,66.81a37.63,37.63,0,0,1,.66,4.71c.15,1.76.23,3.66.23,5.52s-.07,3.69-.22,5.31c0,.42-.08.83-.13,1.24l-.15,1.19c-.06.39-.12.77-.19,1.14s-.13.75-.21,1.11c-.2.71-.42,1.37-.64,2a14.77,14.77,0,0,1-.71,1.62,6.66,6.66,0,0,1-.75,1.21,2.73,2.73,0,0,1-.79.72,41.67,41.67,0,0,0,1.43-7.43,59,59,0,0,0,.3-7.31c-.05-2.34-.22-4.52-.43-6.41s-.48-3.51-.73-4.71a2.54,2.54,0,0,0,0-.29,2.36,2.36,0,0,0,0-.28l0-.25c0-.07,0-.15,0-.22l-.35-.4c-.12-.14-.25-.27-.37-.4l-.39-.4c-.13-.13-.26-.26-.4-.38a18.47,18.47,0,0,0-3-2.7,17.53,17.53,0,0,0-4.58-2.16,57.07,57.07,0,0,0-8-1.88c-3.44-.61-7.76-1.21-13.26-1.84l1.25-.21c.52-.08,1.15-.17,1.86-.25s1.51-.15,2.38-.21,1.82-.12,2.81-.15"/><path class="cls-42" d="M47.88,57.53h.35c-.69.05-1.38.12-2,.2s-1.33.17-2,.28-1.26.23-1.87.36-1.19.27-1.75.43-1,.28-1.42.43-.92.31-1.36.48-.88.34-1.31.53-.83.38-1.24.58a6.67,6.67,0,0,0-1.47,1.06,12.66,12.66,0,0,0-1.41,1.57,16.12,16.12,0,0,0-1.19,1.77,10.5,10.5,0,0,0-.79,1.7,6.12,6.12,0,0,0-.06,1.95,34.21,34.21,0,0,0,.5,3.46c.25,1.35.6,2.87,1,4.47s.94,3.28,1.54,5l-.48-1-.48-1-.48-1-.48-1c-.52-1.38-1-2.76-1.43-4.09s-.79-2.57-1.06-3.7A19.9,19.9,0,0,1,28.46,67a3.64,3.64,0,0,1,.13-1.77,10.59,10.59,0,0,1,3.62-4.11,17.88,17.88,0,0,1,5.15-2.35,31.15,31.15,0,0,1,5.59-1,41.56,41.56,0,0,1,4.93-.18"/><path class="cls-43" d="M47.77,57.54l.91,0,.78,0,.64.06.5,0c-4.4,1-7.67,1.86-10.15,2.65a24.14,24.14,0,0,0-5.33,2.25A7.49,7.49,0,0,0,32.64,65a26.26,26.26,0,0,0-1.47,2.87c.06.79.22,2,.48,3.58s.65,3.42,1.17,5.47,1.18,4.26,2,6.52a52,52,0,0,0,3,6.76,1.43,1.43,0,0,1-.26-.19,3,3,0,0,1-.28-.24c-.09-.09-.19-.19-.29-.31s-.2-.23-.3-.36c-.24-.44-.47-.89-.71-1.34l-.72-1.38c-.24-.46-.48-.92-.71-1.39S34,84,33.8,83.55l-.21-.44-.21-.45-.21-.45L33,81.76c-.6-1.67-1.12-3.36-1.55-5s-.77-3.12-1-4.47a33.83,33.83,0,0,1-.49-3.46A5.83,5.83,0,0,1,30,66.93a10.5,10.5,0,0,1,.79-1.7,14.82,14.82,0,0,1,1.19-1.77,12.66,12.66,0,0,1,1.41-1.57,6.67,6.67,0,0,1,1.47-1.06c.4-.2.81-.4,1.24-.58s.86-.36,1.3-.53.9-.33,1.37-.48.93-.3,1.41-.43,1.15-.3,1.76-.43,1.22-.25,1.86-.36,1.3-.2,2-.28,1.36-.15,2.05-.2"/><path class="cls-23" d="M33.8,83.55c.23.47.47.93.71,1.4s.47.93.71,1.39l.72,1.38c.24.45.47.9.71,1.34-.06-.08-.13-.16-.19-.25a3.16,3.16,0,0,1-.2-.27l-.2-.29-.2-.31c-.16-.35-.33-.7-.5-1.06l-.51-1.09-.52-1.11c-.18-.37-.35-.75-.53-1.13"/><path class="cls-23" d="M31.56,79.07c.13.25.25.5.38.76l.38.77q.2.38.39.78l.39.78c.1.26.19.53.29.79s.2.52.31.78.21.51.31.77l.33.77c-.23-.46-.47-.93-.7-1.43s-.47-1-.71-1.52-.46-1.06-.69-1.6-.45-1.09-.68-1.65"/><path class="cls-45" d="M33,81.76l.21.45.21.45.21.45.21.44-.18-.35-.17-.34-.18-.35-.17-.35,0-.1,0-.1,0-.1,0-.1"/><path class="cls-23" d="M33.1,82.16l.17.35.18.35.17.34.18.35c.18.38.35.76.53,1.13l.52,1.11.51,1.09c.17.36.34.71.5,1.06l-.37-.59-.38-.65L34.73,86l-.39-.74L34,84.5c-.1-.26-.21-.51-.31-.77s-.21-.52-.31-.78-.19-.53-.29-.79"/><path class="cls-46" d="M101.85,63.26l-.11.09-.11.08-.11.08-.11.08c-.7.53-.72,2-.28,4a42.7,42.7,0,0,0,2.5,7.24,83.12,83.12,0,0,0,4,8,45.55,45.55,0,0,0,4.25,6.34,48.9,48.9,0,0,1-4.5-6.87,74.84,74.84,0,0,1-3.71-7.69A48.7,48.7,0,0,1,101.4,68c-.46-1.86-.58-3.23-.24-3.82l.13-.22.16-.21c.06-.07.12-.15.19-.22l.21-.22m18.79-5.83c-.77.07-1.53.16-2.28.26s-1.51.21-2.25.34-1.47.26-2.19.42-1.43.32-2.13.5c.66-.17,1.34-.32,2-.47s1.42-.28,2.16-.41,1.5-.25,2.27-.36,1.57-.2,2.38-.28"/><path class="cls-46" d="M115.81,93A9.62,9.62,0,0,0,118,94.11a40.92,40.92,0,0,0,4.26,1.47,58.13,58.13,0,0,0,5.82,1.35,55.19,55.19,0,0,0,6.87.78c1,.05,1.95.06,2.95.05s2-.06,3-.14,2-.21,3-.37,2-.38,3-.63c-.63.14-1.34.26-2.1.35s-1.57.16-2.43.2-1.75,0-2.68,0-1.89,0-2.87-.08c-2.1-.1-4.27-.29-6.41-.55s-4.21-.59-6.13-1a50.22,50.22,0,0,1-5.12-1.24A14.78,14.78,0,0,1,115.81,93m38.09-4a18.65,18.65,0,0,1-.8,2.1,14.27,14.27,0,0,1-1,1.86,10.46,10.46,0,0,1-1.21,1.56,8.32,8.32,0,0,1-1.46,1.2l-.3.18-.34.16-.37.16-.4.14.26-.08.26-.08.27-.08.26-.09a5,5,0,0,0,1.76-1,7.73,7.73,0,0,0,1.37-1.66,12,12,0,0,0,1-2.07,19.25,19.25,0,0,0,.7-2.27"/><path class="cls-40" d="M53.23,59.42c1.61,0,3.52,0,5.15.22a41.93,41.93,0,0,1,4.88.74,36,36,0,0,1,4.68,1.33A33,33,0,0,1,72.57,64c.83.5.93,2.45,1.08,4.54A39.44,39.44,0,0,1,73.31,76a58.62,58.62,0,0,1-1.54,7.93,21.18,21.18,0,0,1-2.2,5.62A35,35,0,0,0,71.8,82a37.73,37.73,0,0,0,.62-6.93A31.27,31.27,0,0,0,72,69.59a10.21,10.21,0,0,0-1-3.17,6.38,6.38,0,0,0-2.08-1.9A16.68,16.68,0,0,0,65.34,63a32,32,0,0,0-4.72-1.08A41.9,41.9,0,0,0,55,61.4c-.69,0-1.4,0-2.12,0l-2.18.09c-.73.05-1.47.11-2.22.19s-1.51.18-2.27.3a21.66,21.66,0,0,0-7.83,2.47,8.86,8.86,0,0,0-3.72,4.06,12.77,12.77,0,0,0-.92,5.34,47.8,47.8,0,0,0,.62,6.32c-.48-1.45-.93-2.31-1.28-3.66s-.7-2.62-.92-3.72-.45-2.31-.53-3a7.59,7.59,0,0,1-.09-1.63,8.33,8.33,0,0,1,.58-1.52,13.06,13.06,0,0,1,.93-1.4,9.38,9.38,0,0,1,1-1.14A7.62,7.62,0,0,1,35.36,63a29.29,29.29,0,0,1,2.81-1.2c.93-.34,1.93-.83,2.91-1.08s2.14-.63,3.15-.81,2.14-.15,3.17-.25c.48,0,1-.2,1.45-.24s.88,0,1.39,0,1,0,1.48,0,.49,0,1,0Z"/><path class="cls-40" d="M154.65,81.78a2.24,2.24,0,0,1,0,.62c0,.39,0,.95-.05,1.63s-.12,1.46-.24,2.3a24.84,24.84,0,0,1-.5,2.64,18.65,18.65,0,0,1-.8,2.1,14.27,14.27,0,0,1-1,1.86,10.46,10.46,0,0,1-1.21,1.56,8.32,8.32,0,0,1-1.46,1.2l-.3.18-.34.16-.37.16-.4.14-.26.07-.26.08-.27.07-.26.07c-.63.14-1.34.26-2.1.35s-1.57.16-2.43.2-1.75,0-2.68,0-1.89,0-2.87-.08c-2.1-.1-4.27-.29-6.41-.55s-4.21-.59-6.13-1a50.22,50.22,0,0,1-5.12-1.24A14.78,14.78,0,0,1,115.81,93a.27.27,0,0,1-.08-.07.17.17,0,0,1-.06-.06l0-.06s0,0,0,0a13.57,13.57,0,0,0,1.82.59c1,.27,2.23.6,3.73.92s3.24.64,5.11.9,3.89.47,5.94.57a43.61,43.61,0,0,0,7.67-.26,24.07,24.07,0,0,0,7-1.92,13.33,13.33,0,0,0,5.29-4.24,13.54,13.54,0,0,0,2.4-7.21s0-.09,0-.13a.22.22,0,0,1,0-.09.07.07,0,0,1,0,0s0,0,0,0"/><path class="cls-46" d="M47.4,59.89c-1,.11-2.06.25-3.07.43s-2,.39-3,.65a29.49,29.49,0,0,0-2.85.89A23.7,23.7,0,0,0,35.82,63a4.9,4.9,0,0,0-1.17.86,11.62,11.62,0,0,0-1.18,1.31,15.16,15.16,0,0,0-1,1.5,8.48,8.48,0,0,0-.67,1.42,4.49,4.49,0,0,0,0,1.37c.08.71.23,1.66.45,2.76s.5,2.36.85,3.71.78,2.78,1.26,4.23l0,.23,0,.23,0,.22,0,.23a10.35,10.35,0,0,1-.8-2.21c-.3-1.09-.64-2.44-1-3.83s-.62-2.81-.87-4-.43-2.25-.51-2.83a13.07,13.07,0,0,1,.76-1.55,16.19,16.19,0,0,1,.93-1.4,13.07,13.07,0,0,1,1-1.14,5.68,5.68,0,0,1,.9-.76,13.45,13.45,0,0,1,2.22-1.15,25.21,25.21,0,0,1,2.9-1c1.06-.3,2.22-.56,3.45-.78s2.53-.39,3.88-.52"/><path class="cls-46" d="M35.41,83c.42,1.09.89,2.16,1.39,3.19a27.79,27.79,0,0,0,1.62,2.91,18.88,18.88,0,0,0,1.82,2.44,10.63,10.63,0,0,0,2,1.8,6.76,6.76,0,0,0,1.32.64,12.76,12.76,0,0,0,1.69.47,18.54,18.54,0,0,0,2,.33c.71.08,1.46.14,2.24.18a46.69,46.69,0,0,0,4.73,0c1.62-.08,3.25-.23,4.81-.43s3-.47,4.35-.78a20.45,20.45,0,0,0,3.34-1,17.29,17.29,0,0,1-2.36,1,29.75,29.75,0,0,1-3.47,1,34.29,34.29,0,0,1-4.32.69,32.9,32.9,0,0,1-4.9.12c-.77,0-1.54-.1-2.32-.2s-1.57-.22-2.37-.39-1.59-.36-2.39-.6-1.6-.51-2.4-.83a6.74,6.74,0,0,1-2.38-1.81,16.1,16.1,0,0,1-2-2.85,30.86,30.86,0,0,1-1.51-3.14c-.41-1-.75-2-1-2.69"/><path class="cls-40" d="M35,81.42s0,0,0,0a.08.08,0,0,1,0,0l0,.07s0,.07,0,.11a17.6,17.6,0,0,0,3.09,5.68A15.54,15.54,0,0,0,42.55,91a20.39,20.39,0,0,0,5.2,2,29.82,29.82,0,0,0,5.52.77,40,40,0,0,0,5.17-.11,42.32,42.32,0,0,0,4.49-.6c1.33-.24,2.45-.51,3.29-.75a8.5,8.5,0,0,0,1.58-.54.22.22,0,0,1,0,.16,1,1,0,0,1-.2.21l-.32.24-.46.27a20.45,20.45,0,0,1-3.34,1c-1.31.31-2.79.57-4.35.78s-3.19.35-4.81.43a46.69,46.69,0,0,1-4.73,0c-.78,0-1.53-.1-2.24-.18a18.54,18.54,0,0,1-2-.33A12.76,12.76,0,0,1,43.61,94a6.76,6.76,0,0,1-1.32-.64,10.63,10.63,0,0,1-2-1.8,18.88,18.88,0,0,1-1.82-2.44,27.79,27.79,0,0,1-1.62-2.91c-.5-1-1-2.1-1.39-3.19l-.21-.65c-.05-.2-.1-.36-.14-.5S35,81.6,35,81.53a.45.45,0,0,1,0-.11"/><path class="cls-47" d="M125.6,49.77h1.62a98.8,98.8,0,0,1,10.22.87c3.13.43,6,1,8.44,1.51s4.59,1.08,6.28,1.51,3,.78,3.77.91l.69.1.68.08.67.06.65,0c-.1,0-.2.09-.28.14a.77.77,0,0,0-.2.13.34.34,0,0,0-.12.12.17.17,0,0,0,0,.12s.05.09.12.13a.9.9,0,0,0,.27.1l.41.06.54,0H160l.74-.05c.26,0,.53,0,.81-.08l.86-.11c.39-.06.76-.13,1.11-.2s.69-.14,1-.22l.84-.24a4.51,4.51,0,0,0,.64-.25l1.17-.07,1.22,0,1.3,0h1.39a16.64,16.64,0,0,1-1.5,1.69,7,7,0,0,1-1.41,1.08,5.24,5.24,0,0,1-1.47.58,7.34,7.34,0,0,1-1.66.14l-.63,0-.66-.06-.72-.1-.77-.12q-6.25-1.08-11.8-1.93T140,54.22q-4.87-.59-9.13-.92T123,52.91a75.6,75.6,0,0,0-8.66.31,39.67,39.67,0,0,0-7,1.3,22,22,0,0,0-5.4,2.33,16,16,0,0,0-4,3.41l-.14.14-.13.1-.12.06a.17.17,0,0,1-.1,0c-.28,0-.46-.42-.52-1a8.6,8.6,0,0,1,.2-2.37,8,8,0,0,1,1-2.53A3.34,3.34,0,0,1,100,53.07q3-.85,5.92-1.46c2-.41,3.88-.74,5.77-1s3.76-.46,5.58-.6,3.63-.21,5.37-.24h3"/><path class="cls-48" d="M125.41,49.76h1.36l.45,0h-1.81"/><path class="cls-47" d="M57,53.14c1.19,0,2.42.06,3.66.14s2.53.16,3.83.28,2.62.27,4,.44,2.74.37,4.14.59c.35.13.67.25,1,.38a9.21,9.21,0,0,1,.83.4,5,5,0,0,1,.66.41,2.75,2.75,0,0,1,.47.42,3.42,3.42,0,0,1,.42,1.38,12.82,12.82,0,0,1,.15,2.3A6.54,6.54,0,0,1,75.74,62c-.22.58-.56,1-1.06.94a1.87,1.87,0,0,1-.3,0,3,3,0,0,1-.33-.14l-.38-.24c-.13-.1-.26-.21-.41-.35A23.29,23.29,0,0,0,69,59.1,27.15,27.15,0,0,0,64.06,57a33.75,33.75,0,0,0-5.32-1.25,42.54,42.54,0,0,0-5.55-.47,48.39,48.39,0,0,0-5.38.21,52.86,52.86,0,0,0-5.24.75c-1.71.33-3.37.75-5,1.22A44.07,44.07,0,0,0,33.11,59a2.87,2.87,0,0,1,.27-.66,5,5,0,0,1,.42-.64,6.45,6.45,0,0,1,.57-.61,8.18,8.18,0,0,1,.69-.59l.91-.35c.31-.12.64-.24,1-.35s.69-.24,1.06-.35.74-.23,1.13-.34c1.28-.36,2.61-.68,4-.94s2.82-.48,4.3-.65,3-.29,4.61-.36,3.23-.09,4.93-.06"/><path class="cls-48" d="M55.83,51.58h.6l.3,0H57c.78,0,1.86.15,3.1.3s2.67.37,4.14.63,3,.57,4.41.91a36.4,36.4,0,0,1,3.9,1.13c-1.4-.22-2.78-.42-4.14-.59s-2.67-.32-4-.44-2.58-.21-3.83-.28-2.47-.12-3.66-.14c-1.7,0-3.34,0-4.93.06s-3.12.19-4.61.36-2.92.38-4.3.65-2.71.58-4,.94c-.39.11-.77.22-1.13.34s-.72.23-1.06.35-.67.23-1,.35l-.91.35a17.29,17.29,0,0,1,4-2.11,39.63,39.63,0,0,1,5.31-1.59,52.47,52.47,0,0,1,5.85-1,43.84,43.84,0,0,1,5.59-.29"/><path class="cls-40" d="M26.05,60h.58c.37,0,.73.06,1.05.1s.62.11.87.17a2.58,2.58,0,0,1,.6.21c.14.07.22.15.23.23s-.05.14-.17.2a1.76,1.76,0,0,1-.5.15,7.13,7.13,0,0,1-.77.09c-.3,0-.63,0-1,0h-.38c-.4,0-.77,0-1.12-.1a6.9,6.9,0,0,1-.92-.17,3.29,3.29,0,0,1-.63-.21c-.15-.08-.24-.16-.25-.24s0-.13.14-.18a1.34,1.34,0,0,1,.42-.15,5.28,5.28,0,0,1,.66-.09,7.46,7.46,0,0,1,.85,0h.32"/><path class="cls-40" d="M165.15,53.77l.54,0,.42.07a.84.84,0,0,1,.28.09c.07,0,.11.08.12.13a.15.15,0,0,1,0,.11.35.35,0,0,1-.1.12.83.83,0,0,1-.17.12l-.25.12a4.51,4.51,0,0,1-.64.25l-.84.24c-.3.08-.63.15-1,.22s-.72.14-1.11.2l-.86.11c-.28,0-.55.06-.81.08l-.74.05h-.64l-.54,0-.41-.06a.9.9,0,0,1-.27-.1c-.07,0-.11-.08-.12-.13a.17.17,0,0,1,0-.12.34.34,0,0,1,.12-.12.77.77,0,0,1,.2-.13c.08-.05.18-.09.28-.14a4.64,4.64,0,0,1,.64-.23c.24-.08.51-.16.8-.23s.61-.15.94-.21l1.06-.19q.44-.08.87-.12l.81-.08.75,0c.24,0,.46,0,.66,0"/><path class="cls-23" d="M119.9,78.58c-.52,4.74.88,8.84,3.12,9.14s4.5-3.33,5-8.1-.89-8.86-3.15-9.13S120.41,73.84,119.9,78.58Z"/><circle class="cls-49" cx="121.94" cy="74.67" r="1.43"/><path class="cls-23" d="M49.18,78.31c0,4,1.55,7.3,3.35,7.37s3.23-3.13,3.18-7.14-1.55-7.33-3.36-7.38S49.13,74.31,49.18,78.31Z"/><circle class="cls-49" cx="50.24" cy="74.36" r="1.29"/><path class="cls-41" d="M66.77,92.69a17.29,17.29,0,0,1-2.36,1,29.75,29.75,0,0,1-3.47,1,34.29,34.29,0,0,1-4.32.69,32.9,32.9,0,0,1-4.9.12c-.77,0-1.54-.1-2.32-.2s-1.57-.22-2.37-.39-1.59-.36-2.39-.6-1.6-.51-2.4-.83a6.74,6.74,0,0,1-2.38-1.81,16.1,16.1,0,0,1-2-2.85,30.86,30.86,0,0,1-1.51-3.14c-.41-1-.75-2-1-2.69-.1-.23-.19-.47-.28-.71s-.17-.47-.26-.71-.17-.47-.25-.71l-.24-.71,0,.23,0,.23,0,.22,0,.23a10.35,10.35,0,0,1-.8-2.21c-.3-1.09-.64-2.44-1-3.83s-.62-2.81-.87-4-.43-2.25-.51-2.83a13.07,13.07,0,0,1,.76-1.55,16.19,16.19,0,0,1,.93-1.4,13.07,13.07,0,0,1,1-1.14,5.68,5.68,0,0,1,.9-.76,13.45,13.45,0,0,1,2.22-1.15,25.21,25.21,0,0,1,2.9-1c1.06-.3,2.22-.56,3.45-.78s2.53-.39,3.88-.52c.53,0,1.05-.1,1.58-.13s1.06-.07,1.59-.09,1.06,0,1.59,0,1.05,0,1.57,0a56.26,56.26,0,0,1,6.38.51,47.43,47.43,0,0,1,5.63,1.13,26.09,26.09,0,0,1,4.4,1.58,8.28,8.28,0,0,1,2.68,1.82c.56.65.88,2.4,1,4.73a51.74,51.74,0,0,1-.51,8.16,47.8,47.8,0,0,1-1.88,8.49,13.88,13.88,0,0,1-3.18,5.77l-.28.22-.33.21-.38.21-.44.21m-13-35.32-1.51,0c-.5,0-1,0-1.5,0s-1,0-1.48.06-1,.06-1.46.1l.91,0,.78,0,.64.06.5,0c-4.4,1-7.67,1.86-10.15,2.65a24.14,24.14,0,0,0-5.33,2.25A7.49,7.49,0,0,0,32.64,65a26.26,26.26,0,0,0-1.47,2.87c.06.79.22,2,.48,3.58s.65,3.42,1.17,5.47,1.18,4.26,2,6.52a52,52,0,0,0,3,6.76,1.43,1.43,0,0,1-.26-.19,3,3,0,0,1-.28-.24c-.09-.09-.19-.19-.29-.31s-.2-.23-.3-.36l.48.88.46.86c.16.28.31.56.47.83l.45.8c.24.29.48.57.72.83s.5.52.75.76.52.47.78.68.53.4.8.58a7.86,7.86,0,0,0,1.59.79,14.06,14.06,0,0,0,2,.58c.71.16,1.48.29,2.28.39s1.64.17,2.51.22c1.22.06,2.5.07,3.78,0s2.58-.11,3.84-.23,2.5-.27,3.66-.46,2.24-.4,3.21-.63c.64-.16,1.22-.32,1.75-.48A14,14,0,0,0,67.61,95a9,9,0,0,0,1.16-.57,4.87,4.87,0,0,0,.86-.62,12.44,12.44,0,0,0,2.82-4.28,35.86,35.86,0,0,0,2-6.25,59.2,59.2,0,0,0,1.14-6.95,50.23,50.23,0,0,0,.29-6.39,23.19,23.19,0,0,0-.2-2.8,11.61,11.61,0,0,0-.4-1.92,6.18,6.18,0,0,0-.51-1.26,5,5,0,0,0-.56-.78,10.63,10.63,0,0,0-3.34-2.42A26.21,26.21,0,0,0,66,58.94a45.64,45.64,0,0,0-5.89-1.11,57.49,57.49,0,0,0-6.35-.46"/><path class="cls-50" d="M77.15,215.94c0-.17,0-.34,0-.5l.09-.48c0-.16.07-.31.11-.46s.09-.29.14-.43l.15-.41.18-.38a3.9,3.9,0,0,1,.19-.35l.2-.33.22-.29.22-.26c.08-.08.15-.16.23-.23l.22-.2.22-.16.22-.12.21-.1.19-.05.15,0h.13l.12,0,.1.06a.46.46,0,0,1,.12.12.71.71,0,0,1,.1.14.89.89,0,0,1,.08.17,1,1,0,0,1,0,.18,1.23,1.23,0,0,1,0,.2,1.48,1.48,0,0,1,0,.21,1.7,1.7,0,0,1,0,.22l-.06.24-.09.24-.12.25-.14.25-.17.25A2.35,2.35,0,0,1,80,214l-.22.26-.25.24-.27.25-.2.16-.18.14-.18.14-.17.12-.15.1-.15.09-.14.09-.12.07-.12.06-.11,0-.09,0-.09,0-.09,0-.07,0-.06,0h-.06l-.07,0h-.09m28.24,1.82h-.17l-.15,0-.15,0-.14,0-.13,0-.12,0-.12,0-.1,0-.09,0-.08,0-.07,0-.06,0-.05,0,0,0h0v-.07a.25.25,0,0,1,0-.08.62.62,0,0,1,0-.13s0-.09,0-.15a1.77,1.77,0,0,1,0-.2q0-.11.06-.24c0-.08,0-.17.08-.27s.07-.21.1-.32.09-.24.13-.37l.17-.42.19-.45c.08-.17.15-.34.24-.52l.28-.56.32-.61c.12-.21.24-.44.38-.67s.15-.25.22-.37.15-.22.22-.33l.23-.3.23-.26.22-.23.23-.2.23-.17a1.07,1.07,0,0,1,.22-.15l.22-.12.21-.1.21-.08.2-.06.18,0,.17,0h.39l.13,0h.12l.11,0,.11,0,.11,0,.09,0,.09,0,.08,0,.07,0,.07,0,0,0,.05,0,.08.05,0,0,0,0,.06.09s.05.09.07.14,0,.11.08.17,0,.14.07.22a1.58,1.58,0,0,1,.05.25,2.54,2.54,0,0,1,0,.29,1.93,1.93,0,0,1,0,.34c0,.12,0,.25,0,.39a4.15,4.15,0,0,1-.09.43,4.77,4.77,0,0,1-.13.47c-.06.17-.13.34-.21.52s-.17.37-.28.57-.22.4-.35.61-.27.43-.43.66l-.26.36-.27.32-.27.29-.26.25-.27.22-.26.19-.27.16-.25.13-.26.12-.25.09-.25.07-.24.05-.23,0-.23,0h-.42m14.4-2.61h0v0s0,0,0-.07l0-.1a.93.93,0,0,1,0-.13.64.64,0,0,1,.06-.16l.07-.18c0-.06.06-.13.1-.2l.12-.23.16-.26c0-.09.12-.18.18-.28l.22-.3.26-.32.3-.35.35-.36.39-.38.2-.18.19-.16.18-.15.16-.12.17-.11a.83.83,0,0,1,.16-.09l.14-.08.14-.07.14-.05.12,0,.12,0,.11,0h.38l.08,0,.08,0,.07,0,.06,0,.06.05,0,0,0,0,0,0,.11.16,0,.06v.06l0,.08a.36.36,0,0,1,0,.11l0,.13s0,.1,0,.16v.17a1.62,1.62,0,0,1,0,.2,1.91,1.91,0,0,1,0,.21c0,.07,0,.15-.07.23s-.07.16-.11.25a1.65,1.65,0,0,1-.15.25,2.14,2.14,0,0,1-.19.26l-.23.27a3.83,3.83,0,0,1-.29.28,3.3,3.3,0,0,1-.35.28l-.33.24-.32.19a2.38,2.38,0,0,1-.31.17l-.31.14L122,215l-.28.09-.28.06-.25,0-.24,0-.22,0h-.95m-12.9-7.65c0-.11.08-.24.13-.38s.12-.31.2-.48.15-.35.24-.54.19-.4.29-.6.21-.42.32-.64.23-.44.34-.67l.36-.67c.12-.23.25-.45.37-.67l.36-.65.34-.61c.12-.19.22-.38.33-.55l.28-.49.24-.41c.08-.12.14-.23.19-.31l.12-.2,0-.07,0,0,.08-.11.13-.18.18-.23a2.47,2.47,0,0,1,.21-.27l.24-.31.26-.32.29-.33c.09-.12.19-.23.29-.34l.3-.32.3-.3.3-.27a2.83,2.83,0,0,1,.28-.23,1.28,1.28,0,0,1,.26-.17,1,1,0,0,1,.23-.11.51.51,0,0,1,.2,0l.16,0,.1.14,0,0a.14.14,0,0,1,0,.06s0,0,0,.06a.17.17,0,0,0,0,.07v.35a2.79,2.79,0,0,1-.13.58,4.3,4.3,0,0,1-.3.68,7.55,7.55,0,0,1-.43.76c-.16.27-.35.54-.54.83l-.64.87-.69.89-.74.9c-.24.3-.49.6-.74.89s-.49.58-.74.86l-.7.8-.65.74-.59.64-.48.54-.37.4c-.1.12-.18.2-.24.26l-.08.09m9.37-14.44h-.78l-.07,0h-.14l-.08,0-.07,0-.46.13-.42.15-.4.15-.36.15-.33.15-.3.15-.27.15-.25.14-.2.13-.19.13-.15.11-.12.09-.1.08-.07.06,0,0h0l0,0-.13.12a2.08,2.08,0,0,0-.2.21l-.27.28-.32.35c-.12.12-.24.27-.37.42s-.27.31-.41.49l-.43.55c-.15.2-.31.4-.46.62s-.32.44-.48.68-.31.48-.47.74-.32.52-.47.79-.31.55-.46.84-.3.59-.44.89-.29.62-.42.94-.26.65-.38,1-.24.67-.37,1-.24.68-.37,1-.25.68-.37,1l-.38,1-.36,1-.36,1c-.11.32-.23.63-.34.94s-.22.6-.32.89l-.3.82c-.09.26-.18.51-.27.74s-.16.46-.24.67l-.2.56c-.06.18-.12.33-.17.47s-.09.25-.12.34l-.08.21,0,.08h0l0,0-.08.05-.09.07-.13.09-.15.1-.16.1-.18.11-.19.11-.2.1-.21.1a1,1,0,0,1-.21.09l-.21.08-.21.07-.21.05-.21,0h-.06a.33.33,0,0,1-.15,0,.38.38,0,0,1-.12-.1.59.59,0,0,1-.07-.16.53.53,0,0,1,0-.19,2,2,0,0,1,0-.25c0-.08,0-.17,0-.27l0-.28.06-.3c0-.1,0-.2.06-.3s.05-.2.07-.29,0-.19.07-.28,0-.16.08-.24l.06-.2,0-.16a1,1,0,0,0,0-.11l0,0,0-.06a1.16,1.16,0,0,1,.06-.16c0-.07.06-.15.09-.25s.08-.2.12-.32.1-.25.15-.39.1-.29.16-.44l.18-.48.18-.5.19-.51.18-.5.17-.49c.06-.16.11-.32.16-.47s.1-.28.14-.41.08-.25.11-.36.06-.2.08-.29a1,1,0,0,0,0-.2l0-.15s0-.1,0-.15,0-.09,0-.13v-.24a.37.37,0,0,0,0-.11.43.43,0,0,0,0-.11l0-.09a.31.31,0,0,0-.05-.1l-.06-.08-.07-.08-.09-.07-.11-.07-.13-.06-.15-.05-.18-.06h-.33l-.18,0-.18,0-.18.05-.18.08-.18.08-.17.09-.16.1-.16.1-.14.1-.13.09-.11.09-.1.08-.08.07-.06.05,0,0h0l0,.05-.12.14-.19.22-.24.29-.3.34-.32.39-.35.42-.36.44-.36.45c-.13.15-.24.3-.36.45s-.23.29-.34.43-.21.27-.31.4l-.27.36-.23.31-.17.24-.1.17,0,.07,0,.06,0,.07,0,.07-.12-.17,0-.07.09-.18.14-.29.18-.38.2-.45c.07-.16.14-.32.21-.5l.21-.53.21-.55.18-.54c0-.19.1-.36.15-.54s.07-.33.1-.49,0-.31,0-.44a2,2,0,0,0,0-.36.79.79,0,0,0-.1-.27.52.52,0,0,0-.18-.18.61.61,0,0,0-.28-.08h-.2l-.36.05-.35.1-.34.13-.32.16-.31.18-.29.2-.26.21-.25.21-.22.21-.2.2-.18.19-.14.17-.12.14L91,209l-.06.07v0l0,0-.09.12a1.82,1.82,0,0,1-.14.19l-.17.25-.21.29-.23.33-.25.36-.26.37-.25.37-.25.37-.24.35q-.11.18-.21.33l-.18.29-.15.24a1.18,1.18,0,0,0-.1.19l-.06.11,0,0,0,0,0,0,0,0v-.05l0-.13c0-.06,0-.14.07-.22s0-.17.08-.28.07-.21.11-.33l.12-.38c0-.13.09-.27.13-.41s.09-.29.13-.44.09-.29.13-.44.09-.3.13-.45.08-.29.11-.43.08-.28.11-.42l.09-.38.06-.34c0-.1,0-.2,0-.28a1.86,1.86,0,0,0,0-.22s0-.09,0-.13a.43.43,0,0,0,0-.11l0-.09a.36.36,0,0,1,0-.09l0-.07-.06-.05-.06-.05-.06,0-.07,0-.07,0-.08,0h-.33l-.09,0h-.44l-.08,0-.09,0-.1,0-.1,0-.1,0-.11,0-.1,0-.1.05-.11,0-.09.07-.1.07-.08.09a.24.24,0,0,0-.08.09l-.07.09-.07.11-.09.21a2.33,2.33,0,0,0-.12.3c0,.11-.1.24-.15.37s-.11.29-.16.45-.12.33-.18.51-.13.36-.19.55-.13.38-.19.58l-.2.6c-.06.21-.13.41-.19.62s-.13.41-.19.61-.12.41-.18.6-.11.39-.17.57-.09.37-.14.53-.09.34-.12.49-.08.29-.11.42,0,.25-.07.35l0,0-.11.08-.16.13-.23.17-.27.2-.31.23-.35.24-.37.26-.4.26-.4.25-.42.25-.42.24-.42.2a3.65,3.65,0,0,1-.41.18,3,3,0,0,1-.39.14,2.54,2.54,0,0,1-.37.1H79a.69.69,0,0,1-.2,0l-.18,0H78.1l-.08,0-.07,0-.16-.06-.13-.07-.1-.09-.07-.1,0-.1a.69.69,0,0,1,0-.1s0-.07,0-.1,0-.06,0-.09V218h0l.08-.05.22-.13.35-.2.45-.29L79,217l.57-.42c.2-.15.41-.3.61-.47l.63-.54c.2-.18.4-.38.6-.58s.39-.41.57-.63.35-.44.51-.67.29-.47.42-.72a4.89,4.89,0,0,0,.3-.75,4.28,4.28,0,0,0,.17-.79,3.66,3.66,0,0,0,0-.81,3.75,3.75,0,0,0-.21-.83,1.39,1.39,0,0,0-.15-.19l-.15-.16-.17-.15-.17-.13-.17-.11-.18-.1-.19-.07-.2-.07-.14,0-.15,0-.15,0h-.66l-.25,0-.25,0-.27.05h-.15l-.29.07-.3.1-.3.12a2.2,2.2,0,0,0-.31.15l-.31.17-.31.2-.31.23-.32.25-.3.28-.3.32c-.1.11-.2.22-.29.34l-.29.37-.27.41c-.1.14-.18.29-.27.44s-.17.31-.26.47l-.24.51c0,.08-.07.17-.11.25a2.44,2.44,0,0,1-.1.24l-.09.24a2.25,2.25,0,0,1-.08.24c0,.08,0,.16-.07.24a1.87,1.87,0,0,0-.07.22l-.06.22-.06.22a1.6,1.6,0,0,1,0,.21c0,.07,0,.14,0,.21a1.77,1.77,0,0,0,0,.2,1.42,1.42,0,0,0,0,.2l0,.19,0,.18,0,.18c0,.06,0,.12,0,.17h0l0,0-.15.06h0l-.06,0,0,0-.06,0-.06,0-.06,0h-.07l-.07,0-.07,0-.08,0h-.08l-.08,0h-.66l-.07,0-.07,0-.07,0-.06,0-.16-.08-.15,0h-.25l-.06,0-.05,0,0,0,0,0-.14.13-.09.1,0,0h0l0,.06,0,.08-.06.11-.07.13-.07.14-.06.15a.64.64,0,0,0-.06.16,1.09,1.09,0,0,0,0,.17l0,.16v.15a.59.59,0,0,0,0,.14.67.67,0,0,0,.06.12.28.28,0,0,0,.09.1.47.47,0,0,0,.14.08l.18,0h1.39l.23,0h.21l.21,0h.19l.17,0,.15,0h.29l0,.14c0,.05,0,.1,0,.15s0,.1,0,.16l.06.17.06.17c0,.06.05.12.08.19a.76.76,0,0,0,.09.18,3.32,3.32,0,0,0,.21.37c0,.07.09.13.13.19l.15.18.16.18.18.18.19.16.22.16a1.14,1.14,0,0,0,.23.15l.12.07.12.06.13.05.13,0,.13,0,.14,0,.14,0,.14,0h.74l.16,0,.15,0,.16,0,.34-.07.33-.09.34-.09.32-.11.32-.11.3-.12.29-.12.27-.12.26-.12.22-.11.2-.09.18-.09.14-.07.1-.06.06,0,0,0,.46-.31.4-.27.4-.27.46-.31v.25s0,.07,0,.11,0,.09,0,.13l0,.15a1,1,0,0,0,0,.14.88.88,0,0,0,0,.15.61.61,0,0,0,.07.14.64.64,0,0,0,.08.14l.11.12.12.11.15.09.18.06a1.2,1.2,0,0,0,.2,0h.48l.16,0,.16-.05.17-.08.17-.11.17-.15a1.11,1.11,0,0,0,.18-.19,2.36,2.36,0,0,0,.2-.23l.22-.28.22-.33.25-.4.28-.46.3-.52q.16-.28.33-.6l.37-.67.4-.75c.15-.26.29-.54.45-.84l.26-.45c.09-.14.16-.28.24-.4s.14-.24.21-.35l.19-.3.16-.26.14-.22a.94.94,0,0,0,.12-.18l.1-.15.09-.12.07-.09,0-.07,0,0,.07-.07h0l.15,0,0,.06a1.2,1.2,0,0,1-.06.17l-.08.27c0,.1-.08.22-.12.34s-.08.28-.13.43-.09.31-.14.47-.1.35-.16.52l-.15.56c0,.18-.11.37-.16.56s-.1.38-.14.57l-.14.56c0,.18-.08.36-.11.53l-.09.49c0,.16,0,.3-.06.44s0,.27,0,.38a2.91,2.91,0,0,0,0,.31,1.42,1.42,0,0,0,0,.2l.06.17a.53.53,0,0,0,.08.15.67.67,0,0,0,.09.14l.1.11L90,220l.13.08.12.06.14.05.13,0,.13,0h.75l.06,0,.08,0,.09,0,.1-.07.11-.09.12-.11.14-.14.15-.17c0-.07.1-.13.15-.21l.16-.24.18-.29q.09-.15.18-.33l.19-.37c.06-.14.13-.28.2-.43s.15-.33.22-.5l.25-.5.25-.5.26-.49.26-.49.26-.46c.09-.15.18-.3.26-.45l.24-.41c.09-.14.17-.27.24-.4l.22-.35.19-.31.18-.26.13-.22.11-.16.07-.1,0,0h.18l0,.06,0,.17-.08.28-.1.37c0,.13-.08.28-.12.44s-.08.32-.12.5-.09.36-.13.55-.09.38-.13.58l-.12.6c0,.2-.07.41-.11.61l-.09.6c0,.19,0,.39-.07.57s0,.38,0,.55a4.17,4.17,0,0,0,0,.5,3,3,0,0,0,0,.44,3.21,3.21,0,0,0,.08.36.69.69,0,0,1,0,.13l.06.12.07.11.08.1.08.09.09.08.09.06a.53.53,0,0,0,.1.06l.1.05.11,0,.11,0,.11,0h.93l.15,0,.15,0,.14,0,.13,0,.12,0,.11,0,.1,0,.09,0,.08,0,.06,0,0,0h.06l.06,0,.1,0,.12-.05.15-.07.16-.08.18-.08.19-.09.19-.09.19-.09.19-.09.17-.09.16-.09.14-.08.11-.06.08-.06,0,0,0,0,.08.07.11.11.14.12.16.13.2.14.23.15.25.16.28.15.31.14.34.14.37.11.39.1.42.08.45,0h.7l1.21-.16,1.13-.16,1-.16,1-.16.88-.16.8-.16.72-.17.64-.15.56-.15.49-.14.4-.13.34-.11.25-.1.18-.07.1,0,0,0v0a.41.41,0,0,0,0,.1,1.15,1.15,0,0,0,0,.16c0,.06,0,.13,0,.21s0,.16.06.25a1.8,1.8,0,0,0,.09.28c0,.1.07.21.11.31a2.41,2.41,0,0,0,.15.33,2.27,2.27,0,0,0,.19.34,2.64,2.64,0,0,0,.23.35,2.88,2.88,0,0,0,.27.34,3.51,3.51,0,0,0,.33.34c.12.1.25.21.39.31a4,4,0,0,0,.46.29c.16.09.33.18.51.26l.59.22.16,0,.17.05.16,0,.16,0,.37.08.37.06.35,0,.36,0h1l.57-.05.53-.07.5-.1.46-.12.43-.12.38-.13.33-.13.28-.12.22-.1.16-.08.1-.06,0,0v0l0,.06,0,.08a.56.56,0,0,0,0,.12l0,.15a1.24,1.24,0,0,1,0,.16l0,.19,0,.2a1.48,1.48,0,0,0,0,.21v.22l0,.23a1.74,1.74,0,0,0,0,.22,2.09,2.09,0,0,0,.08.23,1.13,1.13,0,0,0,.11.22l.14.21a1.8,1.8,0,0,0,.19.2l.07.06.07,0,.08,0,.07,0h.2a.67.67,0,0,0,.2,0,.78.78,0,0,0,.21,0l.21-.07.21-.11a1.56,1.56,0,0,0,.28-.16l.28-.19a1.86,1.86,0,0,0,.28-.21,2.75,2.75,0,0,0,.26-.22l.26-.23.23-.22.21-.22a1.57,1.57,0,0,0,.18-.19l.16-.17.11-.12.07-.09,0,0,1.52-1.61,1.31-1.37c.43-.45.87-.89,1.34-1.37l1.57-1.58.07,0,.05,0,0,0,.06,0,0,0-.06.14c0,.07-.06.14-.09.23s-.08.19-.12.3-.08.23-.12.36-.08.27-.13.41l-.12.45c0,.16-.07.32-.1.48s-.06.33-.09.5,0,.34-.05.51a4.17,4.17,0,0,0,0,.5,2.63,2.63,0,0,0,0,.49,2.46,2.46,0,0,0,.1.47,3.29,3.29,0,0,0,.16.44,2.84,2.84,0,0,0,.25.39,2.13,2.13,0,0,0,.34.33s0,0,0,0l.06,0,.05,0,0,0,.06,0,.06,0,.05,0,.06,0,.06,0,0,0,.06,0,.06,0,.06,0,.06,0,.06,0,.07,0c.13.06.28.11.42.16l.44.11a3.4,3.4,0,0,0,.46.09l.46.06h1.79l.41,0,.37,0,.33,0,.28,0,.24,0,.18,0h.25l.06,0,.09,0,.09,0,.11-.05.12,0,.13-.07.13-.1.13-.11.14-.13.13-.15.13-.18.12-.2c0-.08.08-.15.12-.24a.75.75,0,0,0,.06-.13.93.93,0,0,0,0-.13l0-.12a.41.41,0,0,0,0-.11.34.34,0,0,0,0-.1.28.28,0,0,0,0-.09.29.29,0,0,0,0-.09.13.13,0,0,0,0-.08.21.21,0,0,0,0-.07l0-.07a.12.12,0,0,0-.05,0l0-.06-.06,0-.06,0-.06,0-.06,0-.19-.07-.17,0h-.27l-.13,0-.17,0-.21,0-.24,0-.27,0-.29,0H140.3l-.34,0-.33-.06-.31-.08-.31-.1-.07,0-.06,0-.06,0-.07,0a.79.79,0,0,1-.25-.19.73.73,0,0,1-.16-.23,1.31,1.31,0,0,1-.09-.28,1.45,1.45,0,0,1,0-.3,2,2,0,0,1,0-.34c0-.12.05-.23.08-.35s.07-.24.11-.36.09-.24.14-.36.1-.23.16-.35a3.41,3.41,0,0,1,.17-.33l.17-.31.16-.27.14-.22.11-.17a.9.9,0,0,0,.07-.11l0,0,0,0,.07-.11.1-.16.13-.2.14-.25a2.54,2.54,0,0,0,.16-.28l.17-.31.15-.32c.06-.11.11-.22.16-.33l.13-.33c0-.11.08-.22.11-.32s0-.21.07-.3a1.41,1.41,0,0,0,0-.28.92.92,0,0,0,0-.24.77.77,0,0,0-.07-.2.67.67,0,0,0-.14-.15l-.08,0-.08-.05-.08,0-.09,0-.14,0-.15,0-.15,0h-.54l-.2,0a.64.64,0,0,0-.2,0l-.19,0-.17,0-.17,0-.14,0-.12,0-.11,0-.07,0,0,0H138l-.07,0-.13.07-.17.09-.2.1-.24.13-.27.16-.29.18-.31.2-.33.22-.34.24-.35.26-.34.27-.35.3-.33.32-.33.33h-.23l0-.05.06-.11.1-.18.13-.24.15-.27.17-.32.18-.35.18-.36.19-.38.19-.38c.06-.12.12-.25.17-.37s.12-.24.17-.36.09-.22.13-.32l.11-.3a1.44,1.44,0,0,0,.08-.25,1.94,1.94,0,0,0,.05-.2l-.06-.15,0,0s0,0,0,0l0,0-.05,0,0,0-.06,0-.07,0-.06,0-.07,0-.08,0-.08,0-.07,0-.12,0-.12,0-.13,0-.12,0h-.63l-.11,0-.11,0-.11,0-.1,0-.09.05-.09.06-.08.07-.15.16-.22.25-.28.32-.33.39-.36.44-.39.49-.41.53-.42.55-.43.57-.42.58-.41.57-.39.57c-.12.18-.24.36-.35.54s-.22.34-.32.51-.2.32-.28.47-.16.29-.22.42h0l-.13.05-.2.07-.26.1-.32.12-.37.12-.41.14-.45.13-.48.14-.5.13-.51.12-.52.1-.52.08-.51.06-.49,0a3.76,3.76,0,0,1-.48,0h-.4l-.17,0-.18,0-.3-.08-.26-.1-.23-.11-.19-.12-.17-.13-.14-.13-.11-.14a.55.55,0,0,1-.09-.14.83.83,0,0,1-.07-.13l-.06-.12a.36.36,0,0,0,0-.11.44.44,0,0,1,0-.1.29.29,0,0,1,0-.09s0,0,0-.06v0h.08l.22,0,.36,0,.46-.08.57-.11.64-.16.7-.19.74-.25.77-.3a7.76,7.76,0,0,0,.77-.37,8.46,8.46,0,0,0,.77-.44,7.57,7.57,0,0,0,.74-.52,6.44,6.44,0,0,0,.69-.6,8.47,8.47,0,0,0,.63-.7,9.31,9.31,0,0,0,.54-.8,6.86,6.86,0,0,0,.42-.91,4.35,4.35,0,0,0,.17-.51,4.64,4.64,0,0,0,.12-.47,2.4,2.4,0,0,0,.07-.43,2.91,2.91,0,0,0,0-.4c0-.13,0-.25,0-.36a2.79,2.79,0,0,0-.06-.33c0-.1-.07-.2-.11-.3a1.3,1.3,0,0,0-.14-.26,2,2,0,0,0-.16-.24,1.89,1.89,0,0,0-.2-.2,1.24,1.24,0,0,0-.22-.18,1.43,1.43,0,0,0-.24-.16,2.1,2.1,0,0,0-.26-.13l-.27-.11-.29-.08-.29-.07-.21,0-.21,0-.21,0-.21,0h-.87l-.22,0-.21,0-.19,0-.18,0-.16,0-.15,0-.12,0-.1,0-.08,0-.17.07-.24.09-.29.12-.35.16-.39.19-.43.23-.47.28-.49.32-.51.38-.52.43-.53.49c-.18.18-.36.36-.53.55s-.36.4-.53.62-.35.45-.52.69-.33.49-.5.76-.32.54-.47.83l0,0,0,.05,0,0,0,.07,0,.07,0,.07,0,.07,0,.07,0,.07,0,.07,0,.07,0,.05,0,.11,0,0-.1,0-.16.06-.2.08-.26.11-.29.11-.31.13-.35.13-.36.13-.37.14-.37.13-.37.12-.36.12-.35.1-.32.09-.29.06.06-.07.18-.19.27-.31.33-.41c.13-.15.26-.32.39-.5l.41-.58c.14-.21.28-.42.42-.65s.27-.45.4-.69.24-.49.35-.74a7.15,7.15,0,0,0,.29-.77,5.53,5.53,0,0,0,.19-.78,4.23,4.23,0,0,0,.08-.79,4.9,4.9,0,0,0-.06-.77,3.28,3.28,0,0,0-.24-.75,3.68,3.68,0,0,0-.42-.71,4.48,4.48,0,0,0-.65-.66l-.07-.05-.07,0-.07,0-.07,0-.07,0-.07,0-.07,0-.07,0-.07,0-.07,0-.07,0h-.08l-.07,0h-.72l-.14,0-.16,0-.16,0-.15,0-.16.06-.15.06-.14.06-.14.07-.14.08-.14.07-.13.08-.12.08-.12.08q.21-.17.45-.39l.52-.46.57-.52.62-.58.65-.64.67-.68.68-.73.67-.77c.22-.26.44-.53.65-.8s.42-.55.62-.83.39-.57.57-.86.35-.58.51-.88.3-.59.43-.89.24-.59.33-.89a7.43,7.43,0,0,0,.23-.9,6.86,6.86,0,0,0,.09-.9c0-.14,0-.27,0-.39s0-.25,0-.36a3,3,0,0,0,0-.33l-.06-.29c0-.1,0-.19-.08-.27a1.33,1.33,0,0,0-.1-.24,1,1,0,0,0-.11-.21c0-.07-.09-.13-.13-.19l-.15-.16a1.07,1.07,0,0,0-.16-.14l-.17-.11a.76.76,0,0,0-.18-.09l-.19-.07-.2-.06-.21,0-.22,0"/></g></g></g></svg>
