<?xml version="1.0" encoding="UTF-8"?>
<svg width="9000px" height="77px" viewBox="0 0 9000 77" version="1.1" xmlns="http://www.w3.org/2000/svg" xmlns:xlink="http://www.w3.org/1999/xlink">
    <!-- Generator: Sketch 52.1 (67048) - http://www.bohemiancoding.com/sketch -->
    <title>logo-grid-black</title>
    <desc>Created with Sketch.</desc>
    <g id="logo-grid-black" stroke="none" stroke-width="1" fill="none" fill-rule="evenodd" stroke-linecap="round" stroke-linejoin="round">
        <g id="Group" transform="translate(1.000000, 1.000000)" stroke="#96E0FF">
            <polygon id="Frame" transform="translate(61.500000, 37.500000) rotate(-360.000000) translate(-61.500000, -37.500000) " points="74.4635394 0.729266435 0.856916362 29.4126758 3.71130973 58.470636 85.516101 74.2707336 122.143084 56.4010749 115.313991 32.4701985"></polygon>
            <polyline id="Path-18" transform="translate(58.194853, 38.973476) rotate(-360.000000) translate(-58.194853, -38.973476) " points="115.040879 32.3864883 84.4979746 48.2574982 1.34882812 29.6894531"></polyline>
            <polyline id="Line-16" transform="translate(93.536056, 56.619807) rotate(-360.000000) translate(-93.536056, -56.619807) " points="101.998969 39.1096668 85.0731437 48.1152302 85.0731437 74.1299474"></polyline>
        </g>
        <g id="Group-2" transform="translate(126.000000, 1.000000)" stroke="#96E0FF">
            <polygon id="Frame" transform="translate(61.500000, 37.500000) rotate(-360.000000) translate(-61.500000, -37.500000) " points="74.4635394 0.729266435 0.856916362 29.4126758 3.71130973 58.470636 85.516101 74.2707336 122.143084 56.4010749 115.313991 32.4701985"></polygon>
            <polyline id="Path-17" transform="translate(94.662581, 21.263405) rotate(-360.000000) translate(-94.662581, -21.263405) " points="114.878287 33.0256153 89.5240992 41.6287636 74.446875 0.898046875"></polyline>
        </g>
        <g id="Group-3" transform="translate(251.000000, 1.000000)" stroke="#96E0FF">
            <polygon id="Frame" transform="translate(61.500000, 37.500000) rotate(-360.000000) translate(-61.500000, -37.500000) " points="74.4635394 0.729266435 0.856916362 29.4126758 3.71130973 58.470636 85.516101 74.2707336 122.143084 56.4010749 115.313991 32.4701985"></polygon>
            <polyline id="Path-20" transform="translate(62.936523, 32.606641) rotate(-360.000000) translate(-62.936523, -32.606641) " points="4.09726563 58.3074219 20.3643859 22.0035002 33.5144531 64.1863281 74.5715326 1.02695313 121.775781 56.0078125"></polyline>
        </g>
        <g id="Group-4" transform="translate(376.000000, 1.000000)" stroke="#96E0FF">
            <polygon id="Frame" transform="translate(61.500000, 37.500000) rotate(-360.000000) translate(-61.500000, -37.500000) " points="74.4635394 0.729266435 0.856916362 29.4126758 3.71130973 58.470636 85.516101 74.2707336 122.143084 56.4010749 115.313991 32.4701985"></polygon>
            <polyline id="Path-28" transform="translate(58.235447, 38.101172) rotate(-360.000000) translate(-58.235447, -38.101172) " points="75.7664063 2.053125 4.0341699 56.4302641 74.6294601 32.4144463 85.7811602 74.1492188 115.290471 32.4144463 1.18042338 32.4144463"></polyline>
        </g>
        <g id="Group-5" transform="translate(501.000000, 1.000000)" stroke="#96E0FF">
            <polygon id="Frame" transform="translate(61.500000, 37.500000) rotate(-360.000000) translate(-61.500000, -37.500000) " points="74.4635394 0.729266435 0.856916362 29.4126758 3.71130973 58.470636 85.516101 74.2707336 122.143084 56.4010749 115.313991 32.4701985"></polygon>
            <polyline id="Path-30" transform="translate(62.670094, 28.671094) rotate(-360.000000) translate(-62.670094, -28.671094) " points="73.1367188 1.334375 121.859766 56.0078125 3.48042201 55.8740384"></polyline>
        </g>
        <g id="Group-6" transform="translate(626.000000, 1.000000)" stroke="#96E0FF">
            <polygon id="Frame" transform="translate(61.500000, 37.500000) rotate(-360.000000) translate(-61.500000, -37.500000) " points="74.4635394 0.729266435 0.856916362 29.4126758 3.71130973 58.470636 85.516101 74.2707336 122.143084 56.4010749 115.313991 32.4701985"></polygon>
            <polyline id="Path-37" transform="translate(62.286884, 49.767902) rotate(-360.000000) translate(-62.286884, -49.767902) " points="2.69876701 43.5279922 83.4927556 43.5279922 121.875 56.0078125"></polyline>
            <path d="M95.3839844,17.4597656 L83.5976562,43.4488281" id="Path-38" transform="translate(89.490820, 30.454297) rotate(-360.000000) translate(-89.490820, -30.454297) "></path>
        </g>
        <g id="Group-7" transform="translate(751.000000, 1.000000)" stroke="#96E0FF">
            <polygon id="Frame" transform="translate(61.500000, 37.500000) rotate(-360.000000) translate(-61.500000, -37.500000) " points="74.4635394 0.729266435 0.856916362 29.4126758 3.71130973 58.470636 85.516101 74.2707336 122.143084 56.4010749 115.313991 32.4701985"></polygon>
            <polyline id="Path-39" transform="translate(50.272070, 45.211523) rotate(-360.000000) translate(-50.272070, -45.211523) " points="32.9371094 17.0414063 82.1808594 73.3816406 96.4613281 18.08125 4.0828125 58.2207031"></polyline>
        </g>
        <g id="Group-8" transform="translate(876.000000, 1.000000)" stroke="#96E0FF">
            <polygon id="Frame" transform="translate(61.500000, 37.500000) rotate(-360.000000) translate(-61.500000, -37.500000) " points="74.4635394 0.729266435 0.856916362 29.4126758 3.71130973 58.470636 85.516101 74.2707336 122.143084 56.4010749 115.313991 32.4701985"></polygon>
            <path d="M24.2652344,62.3632812 L1.23203125,29.7160156" id="Path-40" transform="translate(12.748633, 46.039648) rotate(-360.000000) translate(-12.748633, -46.039648) "></path>
            <polyline id="Path-41" transform="translate(82.229082, 33.903919) rotate(-360.000000) translate(-82.229082, -33.903919) " points="74.3792969 1.0125 49.2773052 66.7953383 115.180859 32.6664063"></polyline>
        </g>
        <g id="Group-9" transform="translate(1001.000000, 1.000000)" stroke="#96E0FF">
            <polygon id="Frame" transform="translate(61.500000, 37.500000) rotate(-360.000000) translate(-61.500000, -37.500000) " points="74.4635394 0.729266435 0.856916362 29.4126758 3.71130973 58.470636 85.516101 74.2707336 122.143084 56.4010749 115.313991 32.4701985"></polygon>
            <polyline id="Path-53" transform="translate(64.444010, 34.052060) rotate(-360.000000) translate(-64.444010, -34.052060) " points="112.654222 60.4650578 57.6007812 7.6390625 16.2337975 60.4650578"></polyline>
            <path d="M28.4566406,45.4777344 L101.673438,66.2804687" id="Path-54" transform="translate(65.065039, 55.879102) rotate(-360.000000) translate(-65.065039, -55.879102) "></path>
        </g>
        <g id="Group-10" transform="translate(1126.000000, 1.000000)" stroke="#96E0FF">
            <polygon id="Frame" transform="translate(61.500000, 37.500000) rotate(-360.000000) translate(-61.500000, -37.500000) " points="74.4635394 0.729266435 0.856916362 29.4126758 3.71130973 58.470636 85.516101 74.2707336 122.143084 56.4010749 115.313991 32.4701985"></polygon>
            <path d="M16,24 L22.95625,61.8582031" id="Path-55" transform="translate(19.478125, 42.929102) rotate(-360.000000) translate(-19.478125, -42.929102) "></path>
            <path d="M39.1851563,14.6339844 L34.674985,64.3566406" id="Path-56" transform="translate(36.930071, 39.495312) rotate(-360.000000) translate(-36.930071, -39.495312) "></path>
            <polyline id="Path-57" transform="translate(65.499805, 43.880469) rotate(-360.000000) translate(-65.499805, -43.880469) " points="63.065625 69.928125 96.1648438 17.8328125 34.8347656 64.4257813"></polyline>
        </g>
        <g id="Group-11" transform="translate(1251.000000, 1.000000)" stroke="#96E0FF">
            <polygon id="Frame" transform="translate(61.500000, 37.500000) rotate(-360.000000) translate(-61.500000, -37.500000) " points="74.4635394 0.729266435 0.856916362 29.4126758 3.71130973 58.470636 85.516101 74.2707336 122.143084 56.4010749 115.313991 32.4701985"></polygon>
            <path d="M50.5339844,10.2511719 L106.116611,64.0939468" id="Path-62" transform="translate(78.325298, 37.172559) rotate(-360.000000) translate(-78.325298, -37.172559) "></path>
            <path d="M104.738672,24.4058594 L18.8523437,61.3851563" id="Path-63" transform="translate(61.795508, 42.895508) rotate(-360.000000) translate(-61.795508, -42.895508) "></path>
        </g>
        <g id="Group-12" transform="translate(1376.000000, 1.000000)" stroke="#96E0FF">
            <polygon id="Frame" transform="translate(61.500000, 37.500000) rotate(-360.000000) translate(-61.500000, -37.500000) " points="74.4635394 0.729266435 0.856916362 29.4126758 3.71130973 58.470636 85.516101 74.2707336 122.143084 56.4010749 115.313991 32.4701985"></polygon>
            <polyline id="Path-128" transform="translate(77.869503, 53.572469) rotate(-360.000000) translate(-77.869503, -53.572469) " points="38.1515066 64.9233532 56.0589811 42.2215849 117.5875 42.2566026"></polyline>
            <path d="M56.0589811,42.2215849 L74.8017719,1.36004994" id="Path-129" transform="translate(65.430376, 21.790817) rotate(-360.000000) translate(-65.430376, -21.790817) "></path>
        </g>
        <g id="Group-13" transform="translate(1501.000000, 1.000000)" stroke="#96E0FF">
            <polygon id="Frame" transform="translate(61.500000, 37.500000) rotate(-360.000000) translate(-61.500000, -37.500000) " points="74.4635394 0.729266435 0.856916362 29.4126758 3.71130973 58.470636 85.516101 74.2707336 122.143084 56.4010749 115.313991 32.4701985"></polygon>
            <polyline id="Path-133" transform="translate(49.180715, 46.354015) rotate(-360.000000) translate(-49.180715, -46.354015) " points="13.1590865 24.9596708 85.2023437 74.0996094 29.7007883 18.6084214"></polyline>
        </g>
        <g id="Group-14" transform="translate(1626.000000, 1.000000)" stroke="#96E0FF">
            <polygon id="Frame" transform="translate(61.500000, 37.500000) rotate(-360.000000) translate(-61.500000, -37.500000) " points="74.4635394 0.729266435 0.856916362 29.4126758 3.71130973 58.470636 85.516101 74.2707336 122.143084 56.4010749 115.313991 32.4701985"></polygon>
            <polyline id="Path-134" transform="translate(47.904485, 31.534098) rotate(-360.000000) translate(-47.904485, -31.534098) " points="21.6118372 61.899675 34.2116996 36.8920119 65.7535281 51.9307541 74.197133 1.16852091"></polyline>
            <path d="M28.3919228,48.1474419 L1.23499694,29.5499677" id="Path-136" transform="translate(14.813460, 38.848705) rotate(-360.000000) translate(-14.813460, -38.848705) "></path>
            <path d="M69.2451909,32.0538842 L121.151665,56.1195301" id="Path-135" transform="translate(95.198428, 44.086707) rotate(-360.000000) translate(-95.198428, -44.086707) "></path>
        </g>
        <g id="Group-15" transform="translate(1751.000000, 1.000000)" stroke="#96E0FF">
            <polygon id="Frame" transform="translate(61.500000, 37.500000) rotate(-360.000000) translate(-61.500000, -37.500000) " points="74.4635394 0.729266435 0.856916362 29.4126758 3.71130973 58.470636 85.516101 74.2707336 122.143084 56.4010749 115.313991 32.4701985"></polygon>
            <polyline id="Path-137" transform="translate(51.019603, 55.604439) rotate(-360.000000) translate(-51.019603, -55.604439) " points="42.8117993 66.1017836 98.5747522 45.1070938 3.46445313 54.807738"></polyline>
            <path d="M51.249307,49.9320109 L47.0473205,11.5152344" id="Path-138" transform="translate(49.148314, 30.723623) rotate(-360.000000) translate(-49.148314, -30.723623) "></path>
            <path d="M98.5747522,45.1070938 L85.3326514,74.1958157" id="Path-139" transform="translate(91.953702, 59.651455) rotate(-360.000000) translate(-91.953702, -59.651455) "></path>
        </g>
        <g id="Group-16" transform="translate(1876.000000, 1.000000)" stroke="#96E0FF">
            <polygon id="Frame" transform="translate(61.500000, 37.500000) rotate(-360.000000) translate(-61.500000, -37.500000) " points="74.4635394 0.729266435 0.856916362 29.4126758 3.71130973 58.470636 85.516101 74.2707336 122.143084 56.4010749 115.313991 32.4701985"></polygon>
            <path d="M85.3628906,74.1816406 L43.3925781,12.9765625" id="Path-141" transform="translate(64.377734, 43.579102) rotate(-360.000000) translate(-64.377734, -43.579102) "></path>
            <path d="M62.8773437,5.31914063 L4.16893998,58.0036513" id="Path-142" transform="translate(33.523142, 31.661396) rotate(-360.000000) translate(-33.523142, -31.661396) "></path>
        </g>
        <g id="Group-17" transform="translate(2001.000000, 1.000000)" stroke="#96E0FF">
            <polygon id="Frame" transform="translate(61.500000, 37.500000) rotate(-360.000000) translate(-61.500000, -37.500000) " points="74.4635394 0.729266435 0.856916362 29.4126758 3.71130973 58.470636 85.516101 74.2707336 122.143084 56.4010749 115.313991 32.4701985"></polygon>
            <polyline id="Path-146" transform="translate(43.642035, 51.552140) rotate(-360.000000) translate(-43.642035, -51.552140) " points="1.5845697 29.131722 82.1082491 44.5799928 85.6994995 73.9725584"></polyline>
        </g>
        <g id="Group-18" transform="translate(2126.000000, 1.000000)" stroke="#96E0FF">
            <polygon id="Frame" transform="translate(61.500000, 37.500000) rotate(-360.000000) translate(-61.500000, -37.500000) " points="74.4635394 0.729266435 0.856916362 29.4126758 3.71130973 58.470636 85.516101 74.2707336 122.143084 56.4010749 115.313991 32.4701985"></polygon>
            <polyline id="Path-19" transform="translate(61.485938, 32.623633) rotate(-360.000000) translate(-61.485938, -32.623633) " points="1.15859375 29.7167969 53.6005148 42.8910409 53.6005148 9.021875 121.813281 56.2253906"></polyline>
        </g>
        <g id="Group-19" transform="translate(2251.000000, 1.000000)" stroke="#96E0FF">
            <polygon id="Frame" transform="translate(61.500000, 37.500000) rotate(-360.000000) translate(-61.500000, -37.500000) " points="74.4635394 0.729266435 0.856916362 29.4126758 3.71130973 58.470636 85.516101 74.2707336 122.143084 56.4010749 115.313991 32.4701985"></polygon>
            <polyline id="Path-21" transform="translate(43.072070, 37.597461) rotate(-360.000000) translate(-43.072070, -37.597461) " points="1.08515625 32.3953125 85.0589844 74.0542969 74.4515625 1.140625"></polyline>
        </g>
        <g id="Group-20" transform="translate(2376.000000, 1.000000)" stroke="#96E0FF">
            <polygon id="Frame" transform="translate(61.500000, 37.500000) rotate(-360.000000) translate(-61.500000, -37.500000) " points="74.4635394 0.729266435 0.856916362 29.4126758 3.71130973 58.470636 85.516101 74.2707336 122.143084 56.4010749 115.313991 32.4701985"></polygon>
            <polyline id="Path-22" transform="translate(86.545143, 53.425116) rotate(-360.000000) translate(-86.545143, -53.425116) " points="85.3523438 74.1828125 57.7609896 49.3523231 115.329297 32.6674194"></polyline>
            <polyline id="Path-23" transform="translate(39.165781, 29.873213) rotate(-360.000000) translate(-39.165781, -29.873213) " points="74.0571542 1.23388494 57.7609896 49.3523231 4.27440778 58.5125411"></polyline>
            <path d="M57.7609896,49.3523231 L1.1265625,31.9777344" id="Path-24" transform="translate(29.443776, 40.665029) rotate(-360.000000) translate(-29.443776, -40.665029) "></path>
        </g>
        <g id="Group-21" transform="translate(2501.000000, 1.000000)" stroke="#96E0FF">
            <polygon id="Frame" transform="translate(61.500000, 37.500000) rotate(-360.000000) translate(-61.500000, -37.500000) " points="74.4635394 0.729266435 0.856916362 29.4126758 3.71130973 58.470636 85.516101 74.2707336 122.143084 56.4010749 115.313991 32.4701985"></polygon>
            <polyline id="Path-25" transform="translate(59.195325, 44.635316) rotate(-360.000000) translate(-59.195325, -44.635316) " points="3.89648438 58.4773437 38.4453977 15.0593034 114.494166 32.3951243 85.3246094 74.2113281"></polyline>
        </g>
        <g id="Group-22" transform="translate(2626.000000, 1.000000)" stroke="#96E0FF">
            <polygon id="Frame" transform="translate(61.500000, 37.500000) rotate(-360.000000) translate(-61.500000, -37.500000) " points="74.4635394 0.729266435 0.856916362 29.4126758 3.71130973 58.470636 85.516101 74.2707336 122.143084 56.4010749 115.313991 32.4701985"></polygon>
            <path d="M114.994141,32.6890625 L0.972265625,29.5644531" id="Path-26" transform="translate(57.983203, 31.126758) rotate(-360.000000) translate(-57.983203, -31.126758) "></path>
        </g>
        <g id="Group-23" transform="translate(2751.000000, 1.000000)" stroke="#96E0FF">
            <polygon id="Frame" transform="translate(61.500000, 37.500000) rotate(-360.000000) translate(-61.500000, -37.500000) " points="74.4635394 0.729266435 0.856916362 29.4126758 3.71130973 58.470636 85.516101 74.2707336 122.143084 56.4010749 115.313991 32.4701985"></polygon>
            <polyline id="Path-27" transform="translate(59.569141, 37.620679) rotate(-360.000000) translate(-59.569141, -37.620679) " points="74.3320313 1.10390625 85.8105555 74.137452 115.182031 32.540625 3.95625 58.1007813"></polyline>
        </g>
        <g id="Group-24" transform="translate(2876.000000, 1.000000)" stroke="#96E0FF">
            <polygon id="Frame" transform="translate(61.500000, 37.500000) rotate(-360.000000) translate(-61.500000, -37.500000) " points="74.4635394 0.729266435 0.856916362 29.4126758 3.71130973 58.470636 85.516101 74.2707336 122.143084 56.4010749 115.313991 32.4701985"></polygon>
            <polyline id="Path-29" transform="translate(58.054114, 51.743164) rotate(-360.000000) translate(-58.054114, -51.743164) " points="115.114062 32.5574219 85.51875 73.9214844 0.994165951 29.5648438"></polyline>
        </g>
        <g id="Group-25" transform="translate(3001.000000, 1.000000)" stroke="#96E0FF">
            <polygon id="Frame" transform="translate(61.500000, 37.500000) rotate(-360.000000) translate(-61.500000, -37.500000) " points="74.4635394 0.729266435 0.856916362 29.4126758 3.71130973 58.470636 85.516101 74.2707336 122.143084 56.4010749 115.313991 32.4701985"></polygon>
            <polyline id="Path-31" transform="translate(43.338918, 46.944910) rotate(-360.000000) translate(-43.338918, -46.944910) " points="1.36767877 29.6012064 69.4681479 19.8304444 85.3101562 74.059375"></polyline>
            <path d="M115.319933,32.5253906 L69.4681479,19.8304444" id="Path-32" transform="translate(92.394040, 26.177918) rotate(-360.000000) translate(-92.394040, -26.177918) "></path>
        </g>
        <g id="Group-26" transform="translate(3126.000000, 1.000000)" stroke="#96E0FF">
            <polygon id="Frame" transform="translate(61.500000, 37.500000) rotate(-360.000000) translate(-61.500000, -37.500000) " points="74.4635394 0.729266435 0.856916362 29.4126758 3.71130973 58.470636 85.516101 74.2707336 122.143084 56.4010749 115.313991 32.4701985"></polygon>
            <polyline id="Path-33" transform="translate(13.776743, 44.526803) rotate(-360.000000) translate(-13.776743, -44.526803) " points="4.01683358 57.4809489 26.4007519 51.6886095 26.4007519 32.8153707 1.15273437 31.5726563"></polyline>
            <polyline id="Path-33" transform="translate(55.978696, 37.506836) rotate(-360.000000) translate(-55.978696, -37.506836) " points="85.5566406 74.0878906 26.4007519 51.6886095 26.4007519 32.8153707 74.3938071 0.92578125"></polyline>
        </g>
        <g id="Group-27" transform="translate(3251.000000, 1.000000)" stroke="#96E0FF">
            <polygon id="Frame" transform="translate(61.500000, 37.500000) rotate(-360.000000) translate(-61.500000, -37.500000) " points="74.4635394 0.729266435 0.856916362 29.4126758 3.71130973 58.470636 85.516101 74.2707336 122.143084 56.4010749 115.313991 32.4701985"></polygon>
            <polyline id="Path-34" transform="translate(81.276502, 53.683078) rotate(-360.000000) translate(-81.276502, -53.683078) " points="85.1710938 74.1207031 115.02605 33.2454536 47.5269531 67.1707031"></polyline>
            <polyline id="Path-35" transform="translate(41.735023, 25.121309) rotate(-360.000000) translate(-41.735023, -25.121309) " points="74.4535156 0.987109375 82.3740057 49.2555094 1.09603937 31.9073294"></polyline>
        </g>
        <g id="Group-28" transform="translate(3376.000000, 1.000000)" stroke="#96E0FF">
            <polygon id="Frame" transform="translate(61.500000, 37.500000) rotate(-360.000000) translate(-61.500000, -37.500000) " points="74.4635394 0.729266435 0.856916362 29.4126758 3.71130973 58.470636 85.516101 74.2707336 122.143084 56.4010749 115.313991 32.4701985"></polygon>
            <polyline id="Path-36" transform="translate(65.018359, 55.559581) rotate(-360.000000) translate(-65.018359, -55.559581) " points="44.7292969 66.2695313 65.2380051 36.8972879 85.3074219 74.221875"></polyline>
            <polyline id="Path-36" transform="translate(37.853320, 18.892980) rotate(-360.000000) translate(-37.853320, -18.892980) " points="1.2984375 31.6878906 65.2380051 36.8972879 74.4082031 0.888671875"></polyline>
        </g>
        <g id="Group-29" transform="translate(3501.000000, 1.000000)" stroke="#96E0FF">
            <polygon id="Frame" transform="translate(61.500000, 37.500000) rotate(-360.000000) translate(-61.500000, -37.500000) " points="74.4635394 0.729266435 0.856916362 29.4126758 3.71130973 58.470636 85.516101 74.2707336 122.143084 56.4010749 115.313991 32.4701985"></polygon>
            <polyline id="Path-42" transform="translate(58.815329, 53.302197) rotate(-360.000000) translate(-58.815329, -53.302197) " points="2.40682979 43.044208 85.5569997 74.0848634 115.223828 32.5195312"></polyline>
            <path d="M43.844095,12.9151536 L24.614529,51.1453536" id="Path-43" transform="translate(34.229312, 32.030254) rotate(-360.000000) translate(-34.229312, -32.030254) "></path>
        </g>
        <g id="Group-30" transform="translate(3626.000000, 1.000000)" stroke="#96E0FF">
            <polygon id="Frame" transform="translate(61.500000, 37.500000) rotate(-360.000000) translate(-61.500000, -37.500000) " points="74.4635394 0.729266435 0.856916362 29.4126758 3.71130973 58.470636 85.516101 74.2707336 122.143084 56.4010749 115.313991 32.4701985"></polygon>
            <path d="M97.1488832,68.2273761 L42.1705866,13.929344" id="Path-44" transform="translate(69.659735, 41.078360) rotate(-360.000000) translate(-69.659735, -41.078360) "></path>
            <polyline id="Path-45" transform="translate(49.573836, 42.860904) rotate(-360.000000) translate(-49.573836, -42.860904) " points="84.6014717 55.7476861 17.8191406 61.1996094 14.5462004 24.5221979"></polyline>
            <path d="M96.8661131,18.692781 L63.2902356,34.398219" id="Path-46" transform="translate(80.078174, 26.545500) rotate(-360.000000) translate(-80.078174, -26.545500) "></path>
        </g>
        <g id="Group-31" transform="translate(3751.000000, 1.000000)" stroke="#96E0FF">
            <polygon id="Frame" transform="translate(61.500000, 37.500000) rotate(-360.000000) translate(-61.500000, -37.500000) " points="74.4635394 0.729266435 0.856916362 29.4126758 3.71130973 58.470636 85.516101 74.2707336 122.143084 56.4010749 115.313991 32.4701985"></polygon>
            <polyline id="Path-47" transform="translate(75.185271, 35.569727) rotate(-360.000000) translate(-75.185271, -35.569727) " points="118.876011 45.1302011 57.7113281 7.46523438 31.4945312 63.6742187"></polyline>
            <polyline id="Path-48" transform="translate(100.743632, 49.152148) rotate(-360.000000) translate(-100.743632, -49.152148) " points="85.1826768 24.5152344 83.3601562 73.7890625 118.127107 44.9112592"></polyline>
        </g>
        <g id="Group-32" transform="translate(3876.000000, 1.000000)" stroke="#96E0FF">
            <polygon id="Frame" transform="translate(61.500000, 37.500000) rotate(-360.000000) translate(-61.500000, -37.500000) " points="74.4635394 0.729266435 0.856916362 29.4126758 3.71130973 58.470636 85.516101 74.2707336 122.143084 56.4010749 115.313991 32.4701985"></polygon>
            <polyline id="Path-50" transform="translate(50.388576, 28.369141) rotate(-360.000000) translate(-50.388576, -28.369141) " points="47.0011719 11.6445312 98.3630897 19.9200697 2.4140625 45.09375"></polyline>
        </g>
        <g id="Group-33" transform="translate(4001.000000, 1.000000)" stroke="#96E0FF">
            <polygon id="Frame" transform="translate(61.500000, 37.500000) rotate(-360.000000) translate(-61.500000, -37.500000) " points="74.4635394 0.729266435 0.856916362 29.4126758 3.71130973 58.470636 85.516101 74.2707336 122.143084 56.4010749 115.313991 32.4701985"></polygon>
            <polyline id="Path-51" transform="translate(74.275710, 35.293085) rotate(-360.000000) translate(-74.275710, -35.293085) " points="33.709375 16.7960937 114.842045 59.578208 87.3565589 11.0079612"></polyline>
            <path d="M81.6738281,42.3273438 L19.3832031,61.3921875" id="Path-52" transform="translate(50.528516, 51.859766) rotate(-360.000000) translate(-50.528516, -51.859766) "></path>
        </g>
        <g id="Group-34" transform="translate(4126.000000, 1.000000)" stroke="#96E0FF">
            <polygon id="Frame" transform="translate(61.500000, 37.500000) rotate(-360.000000) translate(-61.500000, -37.500000) " points="74.4635394 0.729266435 0.856916362 29.4126758 3.71130973 58.470636 85.516101 74.2707336 122.143084 56.4010749 115.313991 32.4701985"></polygon>
            <path d="M3.11990226,49.5307038 L119.435937,57.6476562" id="Path-60" transform="translate(61.277920, 53.589180) rotate(-360.000000) translate(-61.277920, -53.589180) "></path>
            <path d="M71.8660156,54.178125 L92.3660156,14.9109375" id="Path-61" transform="translate(82.116016, 34.544531) rotate(-360.000000) translate(-82.116016, -34.544531) "></path>
        </g>
        <g id="Group-35" transform="translate(4251.000000, 1.000000)" stroke="#96E0FF">
            <polygon id="Frame" transform="translate(61.500000, 37.500000) rotate(-360.000000) translate(-61.500000, -37.500000) " points="74.4635394 0.729266435 0.856916362 29.4126758 3.71130973 58.470636 85.516101 74.2707336 122.143084 56.4010749 115.313991 32.4701985"></polygon>
            <path d="M70.0746693,70.9743401 L43.3523438,13.046875" id="Path-64" transform="translate(56.713507, 42.010608) rotate(-360.000000) translate(-56.713507, -42.010608) "></path>
            <path d="M64.7324219,59.3425781 L121.969922,56.0585937" id="Path-65" transform="translate(93.351172, 57.700586) rotate(-360.000000) translate(-93.351172, -57.700586) "></path>
        </g>
        <g id="Group-36" transform="translate(4376.000000, 1.000000)" stroke="#96E0FF">
            <polygon id="Frame" transform="translate(61.500000, 37.500000) rotate(-360.000000) translate(-61.500000, -37.500000) " points="74.4635394 0.729266435 0.856916362 29.4126758 3.71130973 58.470636 85.516101 74.2707336 122.143084 56.4010749 115.313991 32.4701985"></polygon>
            <polyline id="Path-59" transform="translate(91.546422, 53.233789) rotate(-360.000000) translate(-91.546422, -53.233789) " points="115.014844 32.4832031 68.0780006 53.5922985 85.1371094 73.984375"></polyline>
            <path d="M87.7633085,44.4683478 L47.0833442,11.4946937" id="Path-66" transform="translate(67.423326, 27.981521) rotate(-360.000000) translate(-67.423326, -27.981521) "></path>
            <path d="M68.0780006,53.5922985 L62.3625,69.4542969" id="Path-67" transform="translate(65.220250, 61.523298) rotate(-360.000000) translate(-65.220250, -61.523298) "></path>
        </g>
        <g id="Group-37" transform="translate(4501.000000, 1.000000)" stroke="#96E0FF">
            <polygon id="Frame" transform="translate(61.500000, 37.500000) rotate(-360.000000) translate(-61.500000, -37.500000) " points="74.4635394 0.729266435 0.856916362 29.4126758 3.71130973 58.470636 85.516101 74.2707336 122.143084 56.4010749 115.313991 32.4701985"></polygon>
            <polyline id="Path-58" transform="translate(44.233398, 44.021875) rotate(-360.000000) translate(-44.233398, -44.021875) " points="3.23789062 51.5210938 41.4667969 13.8144531 85.2289063 74.2292969"></polyline>
        </g>
        <g id="Group-38" transform="translate(4626.000000, 1.000000)" stroke="#96E0FF">
            <polygon id="Frame" transform="translate(61.500000, 37.500000) rotate(-360.000000) translate(-61.500000, -37.500000) " points="74.4635394 0.729266435 0.856916362 29.4126758 3.71130973 58.470636 85.516101 74.2707336 122.143084 56.4010749 115.313991 32.4701985"></polygon>
            <polyline id="Path-68" transform="translate(72.724417, 46.272798) rotate(-360.000000) translate(-72.724417, -46.272798) " points="61.164198 69.4903004 30.4160217 18.5014547 115.032812 32.5824219 85.1679687 74.0441406"></polyline>
        </g>
        <g id="Group-39" transform="translate(4751.000000, 1.000000)" stroke="#96E0FF">
            <polygon id="Frame" transform="translate(61.500000, 37.500000) rotate(-360.000000) translate(-61.500000, -37.500000) " points="74.4635394 0.729266435 0.856916362 29.4126758 3.71130973 58.470636 85.516101 74.2707336 122.143084 56.4010749 115.313991 32.4701985"></polygon>
            <path d="M74.1863281,1.03359375 L120.854297,56.9074219" id="Path-69" transform="translate(97.520313, 28.970508) rotate(-360.000000) translate(-97.520313, -28.970508) "></path>
            <path d="M105.896094,39.3519531 L53.5929687,68.1644531" id="Path-70" transform="translate(79.744531, 53.758203) rotate(-360.000000) translate(-79.744531, -53.758203) "></path>
        </g>
        <g id="Group-40" transform="translate(4876.000000, 1.000000)" stroke="#96E0FF">
            <polygon id="Frame" transform="translate(61.500000, 37.500000) rotate(-360.000000) translate(-61.500000, -37.500000) " points="74.4635394 0.729266435 0.856916362 29.4126758 3.71130973 58.470636 85.516101 74.2707336 122.143084 56.4010749 115.313991 32.4701985"></polygon>
            <path d="M48.6941406,10.9175781 L97.3542969,18.6839844" id="Path-71" transform="translate(73.024219, 14.800781) rotate(-360.000000) translate(-73.024219, -14.800781) "></path>
            <path d="M110.887109,28.9289062 L3.76479935,58.5240728" id="Path-72" transform="translate(57.325954, 43.726490) rotate(-360.000000) translate(-57.325954, -43.726490) "></path>
            <path d="M68.4359375,40.89375 L102.697456,65.7933351" id="Path-73" transform="translate(85.566697, 53.343543) rotate(-360.000000) translate(-85.566697, -53.343543) "></path>
        </g>
        <g id="Group-41" transform="translate(5001.000000, 1.000000)" stroke="#96E0FF">
            <polygon id="Frame" transform="translate(61.500000, 37.500000) rotate(-360.000000) translate(-61.500000, -37.500000) " points="74.4635394 0.729266435 0.856916362 29.4126758 3.71130973 58.470636 85.516101 74.2707336 122.143084 56.4010749 115.313991 32.4701985"></polygon>
            <path d="M38.7237915,14.7276761 L38.7237915,64.7673911" id="Path-74" transform="translate(38.723792, 39.747534) rotate(-360.000000) translate(-38.723792, -39.747534) "></path>
            <path d="M3.9875,58.0898437 L85.5304688,9.478125" id="Path-75" transform="translate(44.758984, 33.783984) rotate(-360.000000) translate(-44.758984, -33.783984) "></path>
        </g>
        <g id="Group-42" transform="translate(5126.000000, 1.000000)" stroke="#96E0FF">
            <polygon id="Frame" transform="translate(61.500000, 37.500000) rotate(-360.000000) translate(-61.500000, -37.500000) " points="74.4635394 0.729266435 0.856916362 29.4126758 3.71130973 58.470636 85.516101 74.2707336 122.143084 56.4010749 115.313991 32.4701985"></polygon>
            <polyline id="Path-76" transform="translate(49.365234, 61.880822) rotate(-360.000000) translate(-49.365234, -61.880822) " points="62.3023437 69.7191406 51.3596857 54.0425043 36.428125 64.6960937"></polyline>
            <polyline id="Path-77" transform="translate(85.517752, 31.650746) rotate(-360.000000) translate(-85.517752, -31.650746) " points="53.6397759 9.25898709 51.3596857 54.0425043 119.675818 47.9092574"></polyline>
        </g>
        <g id="Group-43" transform="translate(5251.000000, 1.000000)" stroke="#96E0FF">
            <polygon id="Frame" transform="translate(61.500000, 37.500000) rotate(-360.000000) translate(-61.500000, -37.500000) " points="74.4635394 0.729266435 0.856916362 29.4126758 3.71130973 58.470636 85.516101 74.2707336 122.143084 56.4010749 115.313991 32.4701985"></polygon>
            <path d="M49.9496094,10.4160156 L118.63797,44.6564075" id="Path-80" transform="translate(84.293790, 27.536212) rotate(-360.000000) translate(-84.293790, -27.536212) "></path>
            <path d="M107.630426,39.2278677 L20.0945312,21.946875" id="Path-81" transform="translate(63.862479, 30.587371) rotate(-360.000000) translate(-63.862479, -30.587371) "></path>
            <path d="M83.3945312,34.6089844 L102.204518,65.8868556" id="Path-82" transform="translate(92.799525, 50.247920) rotate(-360.000000) translate(-92.799525, -50.247920) "></path>
        </g>
        <g id="Group-44" transform="translate(5376.000000, 1.000000)" stroke="#96E0FF">
            <polygon id="Frame" transform="translate(61.500000, 37.500000) rotate(-360.000000) translate(-61.500000, -37.500000) " points="74.4635394 0.729266435 0.856916362 29.4126758 3.71130973 58.470636 85.516101 74.2707336 122.143084 56.4010749 115.313991 32.4701985"></polygon>
            <path d="M16.6223651,23.5514617 L99.4808594,67.4007812" id="Path-83" transform="translate(58.051612, 45.476121) rotate(-360.000000) translate(-58.051612, -45.476121) "></path>
            <polyline id="Path-84" transform="translate(87.034685, 32.231423) rotate(-360.000000) translate(-87.034685, -32.231423) " points="116.435093 37.599409 79.9757812 56.6929687 80.6001279 21.214202 57.6342769 7.7698774"></polyline>
        </g>
        <g id="Group-45" transform="translate(5501.000000, 1.000000)" stroke="#96E0FF">
            <polygon id="Frame" transform="translate(61.500000, 37.500000) rotate(-360.000000) translate(-61.500000, -37.500000) " points="74.4635394 0.729266435 0.856916362 29.4126758 3.71130973 58.470636 85.516101 74.2707336 122.143084 56.4010749 115.313991 32.4701985"></polygon>
            <polyline id="Path-85" transform="translate(81.869448, 51.722988) rotate(-360.000000) translate(-81.869448, -51.722988) " points="45.1228813 66.4928051 76.0635118 36.9531702 118.616016 58.1503906"></polyline>
            <path d="M56.6046249,55.5022514 L0.933984375,29.6011719" id="Path-86" transform="translate(28.769305, 42.551712) rotate(-360.000000) translate(-28.769305, -42.551712) "></path>
        </g>
        <g id="Group-46" transform="translate(5626.000000, 1.000000)" stroke="#96E0FF">
            <polygon id="Frame" transform="translate(61.500000, 37.500000) rotate(-360.000000) translate(-61.500000, -37.500000) " points="74.4635394 0.729266435 0.856916362 29.4126758 3.71130973 58.470636 85.516101 74.2707336 122.143084 56.4010749 115.313991 32.4701985"></polygon>
            <polyline id="Path-88" transform="translate(61.355153, 49.699837) rotate(-360.000000) translate(-61.355153, -49.699837) " points="103.533028 65.5634117 55.5369261 33.8362621 19.1772774 61.5432799"></polyline>
        </g>
        <g id="Group-47" transform="translate(5751.000000, 1.000000)" stroke="#96E0FF">
            <polygon id="Frame" transform="translate(61.500000, 37.500000) rotate(-360.000000) translate(-61.500000, -37.500000) " points="74.4635394 0.729266435 0.856916362 29.4126758 3.71130973 58.470636 85.516101 74.2707336 122.143084 56.4010749 115.313991 32.4701985"></polygon>
            <polyline id="Path-89" transform="translate(45.797552, 34.398633) rotate(-360.000000) translate(-45.797552, -34.398633) " points="73.0867188 1.515625 49.5445312 67.2816406 18.5083846 22.9076974"></polyline>
            <path d="M57.605451,45.7600006 L84.7042536,73.8691058" id="Path-90" transform="translate(71.154852, 59.814553) rotate(-360.000000) translate(-71.154852, -59.814553) "></path>
            <path d="M65.0215599,24.6547879 L114.78751,32.5859852" id="Path-91" transform="translate(89.904535, 28.620387) rotate(-360.000000) translate(-89.904535, -28.620387) "></path>
            <path d="M121.834736,55.9570584 L60.8558594,36.3859375" id="Path-92" transform="translate(91.345298, 46.171498) rotate(-360.000000) translate(-91.345298, -46.171498) "></path>
        </g>
        <g id="Group-48" transform="translate(5876.000000, 1.000000)" stroke="#96E0FF">
            <polygon id="Frame" transform="translate(61.500000, 37.500000) rotate(-360.000000) translate(-61.500000, -37.500000) " points="74.4635394 0.729266435 0.856916362 29.4126758 3.71130973 58.470636 85.516101 74.2707336 122.143084 56.4010749 115.313991 32.4701985"></polygon>
            <polyline id="Path-93" transform="translate(59.101172, 51.353274) rotate(-360.000000) translate(-59.101172, -51.353274) " points="2.94179688 48.3289062 54.4087802 28.4320258 77.2788149 51.6283675 115.260547 32.3230469 85.5639457 74.2745219"></polyline>
            <polyline id="Path-94" transform="translate(60.703666, 33.452525) rotate(-360.000000) translate(-60.703666, -33.452525) " points="44.1285163 65.9780962 77.2788149 51.6283675 74.2824219 0.926953125"></polyline>
            <path d="M54.4087802,28.4320258 L74.2824219,0.926953125" id="Path-95" transform="translate(64.345601, 14.679489) rotate(-360.000000) translate(-64.345601, -14.679489) "></path>
        </g>
        <g id="Group-49" transform="translate(6001.000000, 1.000000)" stroke="#96E0FF">
            <polygon id="Frame" transform="translate(61.500000, 37.500000) rotate(-360.000000) translate(-61.500000, -37.500000) " points="74.4635394 0.729266435 0.856916362 29.4126758 3.71130973 58.470636 85.516101 74.2707336 122.143084 56.4010749 115.313991 32.4701985"></polygon>
            <polyline id="Path-96" transform="translate(62.863672, 40.322424) rotate(-360.000000) translate(-62.863672, -40.322424) " points="3.84492188 58.4542969 40.0969899 14.8999264 41.115625 65.7449219 121.882422 56.3113281"></polyline>
        </g>
        <g id="Group-50" transform="translate(6126.000000, 1.000000)" stroke="#96E0FF">
            <polygon id="Frame" transform="translate(61.500000, 37.500000) rotate(-360.000000) translate(-61.500000, -37.500000) " points="74.4635394 0.729266435 0.856916362 29.4126758 3.71130973 58.470636 85.516101 74.2707336 122.143084 56.4010749 115.313991 32.4701985"></polygon>
            <polyline id="Path-98" transform="translate(72.520966, 28.566992) rotate(-360.000000) translate(-72.520966, -28.566992) " points="121.938672 56.2203125 23.1032599 46.2969419 74.4867188 0.913671875"></polyline>
        </g>
        <g id="Group-51" transform="translate(6251.000000, 1.000000)" stroke="#96E0FF">
            <polygon id="Frame" transform="translate(61.500000, 37.500000) rotate(-360.000000) translate(-61.500000, -37.500000) " points="74.4635394 0.729266435 0.856916362 29.4126758 3.71130973 58.470636 85.516101 74.2707336 122.143084 56.4010749 115.313991 32.4701985"></polygon>
            <polyline id="Path-100" transform="translate(62.011719, 44.468506) rotate(-360.000000) translate(-62.011719, -44.468506) " points="26.190625 19.9117188 93.4055818 69.8674815 97.8328125 19.0695313"></polyline>
        </g>
        <g id="Group-52" transform="translate(6376.000000, 1.000000)" stroke="#96E0FF">
            <polygon id="Frame" transform="translate(61.500000, 37.500000) rotate(-360.000000) translate(-61.500000, -37.500000) " points="74.4635394 0.729266435 0.856916362 29.4126758 3.71130973 58.470636 85.516101 74.2707336 122.143084 56.4010749 115.313991 32.4701985"></polygon>
            <path d="M119.882813,57.3394531 L32.3464844,17.4199219" id="Path-101" transform="translate(76.114648, 37.379687) rotate(-360.000000) translate(-76.114648, -37.379687) "></path>
            <polyline id="Path-102" transform="translate(44.588672, 45.838867) rotate(-360.000000) translate(-44.588672, -45.838867) " points="85.2210938 74.2578125 78.4875483 38.6518395 53.7460937 68.1390625 32.3464844 17.4199219 3.95625 58.3390625"></polyline>
        </g>
        <g id="Group-53" transform="translate(6501.000000, 1.000000)" stroke="#96E0FF">
            <polygon id="Frame" transform="translate(61.500000, 37.500000) rotate(-360.000000) translate(-61.500000, -37.500000) " points="74.4635394 0.729266435 0.856916362 29.4126758 3.71130973 58.470636 85.516101 74.2707336 122.143084 56.4010749 115.313991 32.4701985"></polygon>
            <path d="M74.1928602,0.821912016 L121.913281,56.4769531" id="Path-103" transform="translate(98.053071, 28.649433) rotate(-360.000000) translate(-98.053071, -28.649433) "></path>
            <path d="M115.264062,32.8199219 L102.317187,66.35" id="Path-104" transform="translate(108.790625, 49.584961) rotate(-360.000000) translate(-108.790625, -49.584961) "></path>
            <path d="M110.843359,43.85625 L3.95078125,58.1382812" id="Path-105" transform="translate(57.397070, 50.997266) rotate(-360.000000) translate(-57.397070, -50.997266) "></path>
        </g>
        <g id="Group-54" transform="translate(6626.000000, 1.000000)" stroke="#96E0FF">
            <polygon id="Frame" transform="translate(61.500000, 37.500000) rotate(-360.000000) translate(-61.500000, -37.500000) " points="74.4635394 0.729266435 0.856916362 29.4126758 3.71130973 58.470636 85.516101 74.2707336 122.143084 56.4010749 115.313991 32.4701985"></polygon>
            <polyline id="Path-106" transform="translate(59.425713, 41.225439) rotate(-360.000000) translate(-59.425713, -41.225439) " points="3.91462059 57.4088365 39.578249 14.9645496 117.725253 43.355664 49.7035156 67.4863281 1.12617187 29.4761719"></polyline>
        </g>
        <g id="Group-55" transform="translate(6751.000000, 1.000000)" stroke="#96E0FF">
            <polygon id="Frame" transform="translate(61.500000, 37.500000) rotate(-360.000000) translate(-61.500000, -37.500000) " points="74.4635394 0.729266435 0.856916362 29.4126758 3.71130973 58.470636 85.516101 74.2707336 122.143084 56.4010749 115.313991 32.4701985"></polygon>
            <polyline id="Path-107" transform="translate(68.821502, 55.049075) rotate(-360.000000) translate(-68.821502, -55.049075) " points="53.0107149 67.3797227 52.4121451 36.0176808 75.4691406 45.2488281 85.2308594 74.0804688"></polyline>
            <path d="M38.2234375,15.2597656 L52.4121451,36.0176808" id="Path-108" transform="translate(45.317791, 25.638723) rotate(-360.000000) translate(-45.317791, -25.638723) "></path>
            <path d="M75.4691406,45.2488281 L114.707875,32.7882784" id="Path-109" transform="translate(95.088508, 39.018553) rotate(-360.000000) translate(-95.088508, -39.018553) "></path>
        </g>
        <g id="Group-56" transform="translate(6876.000000, 1.000000)" stroke="#96E0FF">
            <polygon id="Frame" transform="translate(61.500000, 37.500000) rotate(-360.000000) translate(-61.500000, -37.500000) " points="74.4635394 0.729266435 0.856916362 29.4126758 3.71130973 58.470636 85.516101 74.2707336 122.143084 56.4010749 115.313991 32.4701985"></polygon>
            <polyline id="Path-110" transform="translate(45.703632, 55.047657) rotate(-360.000000) translate(-45.703632, -55.047657) " points="25.328125 62.5988281 87.7431469 47.4964865 3.66411725 57.122948"></polyline>
            <path d="M73.8956076,1.07037821 L95.3558594,69.3367188" id="Path-111" transform="translate(84.625733, 35.203548) rotate(-360.000000) translate(-84.625733, -35.203548) "></path>
        </g>
        <g id="Group-57" transform="translate(7001.000000, 1.000000)" stroke="#96E0FF">
            <polygon id="Frame" transform="translate(61.500000, 37.500000) rotate(-360.000000) translate(-61.500000, -37.500000) " points="74.4635394 0.729266435 0.856916362 29.4126758 3.71130973 58.470636 85.516101 74.2707336 122.143084 56.4010749 115.313991 32.4701985"></polygon>
            <polyline id="Path-112" transform="translate(57.009784, 38.345312) rotate(-360.000000) translate(-57.009784, -38.345312) " points="12.1754274 25.1164063 101.844141 66.3695313 50.0835938 10.3210937"></polyline>
            <path d="M115.304297,32.5113281 L3.84882813,58.3121094" id="Path-113" transform="translate(59.576563, 45.411719) rotate(-360.000000) translate(-59.576563, -45.411719) "></path>
        </g>
        <g id="Group-58" transform="translate(7126.000000, 1.000000)" stroke="#96E0FF">
            <polygon id="Frame" transform="translate(61.500000, 37.500000) rotate(-360.000000) translate(-61.500000, -37.500000) " points="74.4635394 0.729266435 0.856916362 29.4126758 3.71130973 58.470636 85.516101 74.2707336 122.143084 56.4010749 115.313991 32.4701985"></polygon>
            <polyline id="Path-114" transform="translate(78.806250, 45.740083) rotate(-360.000000) translate(-78.806250, -45.740083) " points="35.8925781 64.6125 36.0334722 43.3030156 83.8968578 26.867666 121.719922 56.2351562"></polyline>
            <path d="M36.0334722,43.3030156 L1.01992187,29.5503906" id="Path-115" transform="translate(18.526697, 36.426703) rotate(-360.000000) translate(-18.526697, -36.426703) "></path>
            <path d="M74.1536499,0.838390933 L83.8968578,26.867666" id="Path-116" transform="translate(79.025254, 13.853028) rotate(-360.000000) translate(-79.025254, -13.853028) "></path>
        </g>
        <g id="Group-59" transform="translate(7251.000000, 1.000000)" stroke="#96E0FF">
            <polygon id="Frame" transform="translate(61.500000, 37.500000) rotate(-360.000000) translate(-61.500000, -37.500000) " points="74.4635394 0.729266435 0.856916362 29.4126758 3.71130973 58.470636 85.516101 74.2707336 122.143084 56.4010749 115.313991 32.4701985"></polygon>
            <polyline id="Path-117" transform="translate(58.779102, 53.217773) rotate(-360.000000) translate(-58.779102, -53.217773) " points="2.36757813 44.4046875 56.2590803 44.4040682 85.4628906 73.9765625 115.190625 32.4589844"></polyline>
        </g>
        <g id="Group-60" transform="translate(7376.000000, 1.000000)" stroke="#96E0FF">
            <polygon id="Frame" transform="translate(61.500000, 37.500000) rotate(-360.000000) translate(-61.500000, -37.500000) " points="74.4635394 0.729266435 0.856916362 29.4126758 3.71130973 58.470636 85.516101 74.2707336 122.143084 56.4010749 115.313991 32.4701985"></polygon>
            <polyline id="Path-78" transform="translate(59.345241, 42.210802) rotate(-360.000000) translate(-59.345241, -42.210802) " points="14.9790199 60.552194 96.9577643 49.6920657 103.711462 23.8694103"></polyline>
            <path d="M97.0089908,49.6768227 L74.1373965,1.2467683" id="Path-79" transform="translate(85.573194, 25.461796) rotate(-360.000000) translate(-85.573194, -25.461796) "></path>
            <path d="M96.9577643,49.6920657 L74.1373965,1.2467683" id="Path-79" transform="translate(85.547580, 25.469417) rotate(-360.000000) translate(-85.547580, -25.469417) "></path>
        </g>
        <g id="Group-61" transform="translate(7501.000000, 1.000000)" stroke="#96E0FF">
            <polygon id="Frame" transform="translate(61.500000, 37.500000) rotate(-360.000000) translate(-61.500000, -37.500000) " points="74.4635394 0.729266435 0.856916362 29.4126758 3.71130973 58.470636 85.516101 74.2707336 122.143084 56.4010749 115.313991 32.4701985"></polygon>
            <path d="M56.3078125,68.6160156 L114.501528,32.2582624" id="Path-118" transform="translate(85.404670, 50.437139) rotate(-360.000000) translate(-85.404670, -50.437139) "></path>
            <path d="M103.124219,65.7148438 L33.6620598,16.4177385" id="Path-119" transform="translate(68.393139, 41.066291) rotate(-360.000000) translate(-68.393139, -41.066291) "></path>
            <path d="M83.7656456,51.9461191 L3.17001587,51.9461191" id="Path-120" transform="translate(43.467831, 51.946119) rotate(-360.000000) translate(-43.467831, -51.946119) "></path>
        </g>
        <g id="Group-62" transform="translate(7626.000000, 1.000000)" stroke="#96E0FF">
            <polygon id="Frame" transform="translate(61.500000, 37.500000) rotate(-360.000000) translate(-61.500000, -37.500000) " points="74.4635394 0.729266435 0.856916362 29.4126758 3.71130973 58.470636 85.516101 74.2707336 122.143084 56.4010749 115.313991 32.4701985"></polygon>
            <polyline id="Path-121" transform="translate(70.766270, 53.101172) rotate(-360.000000) translate(-70.766270, -53.101172) " points="83.0546875 73.6042969 26.4430866 41.3898527 115.089453 32.5980469"></polyline>
            <polyline id="Path-122" transform="translate(85.861174, 40.863668) rotate(-360.000000) translate(-85.861174, -40.863668) " points="56.6328944 8.12303871 83.0546875 73.6042969 115.089453 32.5980469"></polyline>
            <polyline id="Path-123" transform="translate(15.170957, 40.366992) rotate(-360.000000) translate(-15.170957, -40.366992) " points="3.89882812 58.5027344 26.4430866 41.3898527 19.5328125 22.23125"></polyline>
        </g>
        <g id="Group-63" transform="translate(7751.000000, 1.000000)" stroke="#96E0FF">
            <polygon id="Frame" transform="translate(61.500000, 37.500000) rotate(-360.000000) translate(-61.500000, -37.500000) " points="74.4635394 0.729266435 0.856916362 29.4126758 3.71130973 58.470636 85.516101 74.2707336 122.143084 56.4010749 115.313991 32.4701985"></polygon>
            <polyline id="Path-124" transform="translate(58.367271, 45.266580) rotate(-360.000000) translate(-58.367271, -45.266580) " points="2.81904503 47.6208709 66.983854 30.0889821 113.915497 60.4441775"></polyline>
            <path d="M114.7802,33.0160498 L18.7871094,61.396875" id="Path-125" transform="translate(66.783654, 47.206462) rotate(-360.000000) translate(-66.783654, -47.206462) "></path>
        </g>
        <g id="Group-64" transform="translate(7876.000000, 1.000000)" stroke="#96E0FF">
            <polygon id="Frame" transform="translate(61.500000, 37.500000) rotate(-360.000000) translate(-61.500000, -37.500000) " points="74.4635394 0.729266435 0.856916362 29.4126758 3.71130973 58.470636 85.516101 74.2707336 122.143084 56.4010749 115.313991 32.4701985"></polygon>
            <polyline id="Path-126" transform="translate(46.328516, 37.299609) rotate(-360.000000) translate(-46.328516, -37.299609) " points="9.49257812 59.4539063 34.8386719 16.2960938 49.4371094 67.3085938 74.346875 0.907421875 83.1644531 73.6917969"></polyline>
            <path d="M80.5017409,49.1035075 L114.731568,32.6752837" id="Path-127" transform="translate(97.616654, 40.889396) rotate(-360.000000) translate(-97.616654, -40.889396) "></path>
        </g>
        <g id="Group-65" transform="translate(8001.000000, 1.000000)" stroke="#96E0FF">
            <polygon id="Frame" transform="translate(61.500000, 37.500000) rotate(-360.000000) translate(-61.500000, -37.500000) " points="74.4635394 0.729266435 0.856916362 29.4126758 3.71130973 58.470636 85.516101 74.2707336 122.143084 56.4010749 115.313991 32.4701985"></polygon>
            <polyline id="Path-130" transform="translate(61.240203, 48.781057) rotate(-360.000000) translate(-61.240203, -48.781057) " points="101.335161 66.2679315 55.0387927 31.2941818 24.7864226 41.5083585 21.1452451 61.7599178"></polyline>
            <polyline id="Path-131" transform="translate(52.902539, 43.068435) rotate(-360.000000) translate(-52.902539, -43.068435) " points="104.823437 24.3769531 21.1452451 61.7599178 0.981640625 29.4804688"></polyline>
            <path d="M55.0387927,31.2941818 L74.3511719,0.989453125" id="Path-132" transform="translate(64.694982, 16.141817) rotate(-360.000000) translate(-64.694982, -16.141817) "></path>
        </g>
        <g id="Group-66" transform="translate(8126.000000, 1.000000)" stroke="#96E0FF">
            <polygon id="Frame" transform="translate(61.500000, 37.500000) rotate(-360.000000) translate(-61.500000, -37.500000) " points="74.4635394 0.729266435 0.856916362 29.4126758 3.71130973 58.470636 85.516101 74.2707336 122.143084 56.4010749 115.313991 32.4701985"></polygon>
            <polyline id="Path-87" transform="translate(79.442436, 49.678008) rotate(-360.000000) translate(-79.442436, -49.678008) " points="53.1064642 68.2069094 36.916512 37.8498566 90.6029732 31.1491061 121.968359 56.2097656"></polyline>
            <path d="M36.916512,37.8498566 L3.9328125,58.4035156" id="Path-97" transform="translate(20.424662, 48.126686) rotate(-360.000000) translate(-20.424662, -48.126686) "></path>
            <path d="M90.6029732,31.1491061 L74.4277344,0.955859375" id="Path-140" transform="translate(82.515354, 16.052483) rotate(-360.000000) translate(-82.515354, -16.052483) "></path>
        </g>
        <g id="Group-67" transform="translate(8251.000000, 1.000000)" stroke="#96E0FF">
            <polygon id="Frame" transform="translate(61.500000, 37.500000) rotate(-360.000000) translate(-61.500000, -37.500000) " points="74.4635394 0.729266435 0.856916362 29.4126758 3.71130973 58.470636 85.516101 74.2707336 122.143084 56.4010749 115.313991 32.4701985"></polygon>
            <polyline id="Path-143" transform="translate(77.569922, 39.818016) rotate(-360.000000) translate(-77.569922, -39.818016) " points="104.505333 64.9977502 69.2799635 48.7568435 115.961719 35.4183594 39.178125 14.6382813"></polyline>
        </g>
        <g id="Group-68" transform="translate(8376.000000, 1.000000)" stroke="#96E0FF">
            <polygon id="Frame" transform="translate(61.500000, 37.500000) rotate(-360.000000) translate(-61.500000, -37.500000) " points="74.4635394 0.729266435 0.856916362 29.4126758 3.71130973 58.470636 85.516101 74.2707336 122.143084 56.4010749 115.313991 32.4701985"></polygon>
            <polyline id="Path-144" transform="translate(34.462690, 25.337560) rotate(-360.000000) translate(-34.462690, -25.337560) " points="15.6078028 23.8982926 46.8036984 41.4907451 53.3175781 9.184375"></polyline>
            <polyline id="Path-145" transform="translate(62.283313, 48.724056) rotate(-360.000000) translate(-62.283313, -48.724056) " points="2.89954011 48.7149101 46.8036984 41.4907451 121.667086 55.9573668"></polyline>
        </g>
        <g id="Group-69" transform="translate(8501.000000, 1.000000)" stroke="#96E0FF">
            <polygon id="Frame" transform="translate(61.500000, 37.500000) rotate(-360.000000) translate(-61.500000, -37.500000) " points="74.4635394 0.729266435 0.856916362 29.4126758 3.71130973 58.470636 85.516101 74.2707336 122.143084 56.4010749 115.313991 32.4701985"></polygon>
            <polyline id="Path-99" transform="translate(66.686217, 51.416903) rotate(-360.000000) translate(-66.686217, -51.416903) " points="25.9560287 62.5354205 78.0717901 39.5916181 107.416406 63.2421875"></polyline>
            <path d="M49.7181556,52.0434727 L45.9988281,11.9347656" id="Path-147" transform="translate(47.858492, 31.989119) rotate(-360.000000) translate(-47.858492, -31.989119) "></path>
            <path d="M78.0717901,39.5916181 L74.5007813,0.906640625" id="Path-148" transform="translate(76.286286, 20.249129) rotate(-360.000000) translate(-76.286286, -20.249129) "></path>
        </g>
        <g id="Group-70" transform="translate(8626.000000, 1.000000)" stroke="#96E0FF">
            <polygon id="Frame" transform="translate(61.500000, 37.500000) rotate(-360.000000) translate(-61.500000, -37.500000) " points="74.4635394 0.729266435 0.856916362 29.4126758 3.71130973 58.470636 85.516101 74.2707336 122.143084 56.4010749 115.313991 32.4701985"></polygon>
            <path d="M20.7589844,61.7390625 L117.86254,42.5015573" id="Path-149" transform="translate(69.310762, 52.120310) rotate(-360.000000) translate(-69.310762, -52.120310) "></path>
            <path d="M64.1066406,4.80195312 L114.466406,60.075" id="Path-150" transform="translate(89.286523, 32.438477) rotate(-360.000000) translate(-89.286523, -32.438477) "></path>
        </g>
        <g id="Group-71" transform="translate(8751.000000, 1.000000)" stroke="#96E0FF">
            <polygon id="Frame" transform="translate(61.500000, 37.500000) rotate(-360.000000) translate(-61.500000, -37.500000) " points="74.4635394 0.729266435 0.856916362 29.4126758 3.71130973 58.470636 85.516101 74.2707336 122.143084 56.4010749 115.313991 32.4701985"></polygon>
            <polyline id="Path-151" transform="translate(76.243849, 36.772468) rotate(-360.000000) translate(-76.243849, -36.772468) " points="98.190876 68.026089 62.9560842 5.27532377 54.2968213 68.2696128"></polyline>
        </g>
        <g id="Group-72" transform="translate(8876.000000, 1.000000)" stroke="#96E0FF">
            <polygon id="Frame" transform="translate(61.500000, 37.500000) rotate(-360.000000) translate(-61.500000, -37.500000) " points="74.4635394 0.729266435 0.856916362 29.4126758 3.71130973 58.470636 85.516101 74.2707336 122.143084 56.4010749 115.313991 32.4701985"></polygon>
            <polyline id="Path-152" transform="translate(60.656433, 44.557038) rotate(-360.000000) translate(-60.656433, -44.557038) " points="17.4484509 23.0605297 103.864415 65.342457 42.8878307 66.0535464"></polyline>
            <path d="M64.4644805,45.9429098 L99.16352,20.1161058" id="Path-153" transform="translate(81.814000, 33.029508) rotate(-360.000000) translate(-81.814000, -33.029508) "></path>
        </g>
    </g>
</svg>