<?xml version="1.0" encoding="UTF-8"?>
<svg width="38px" height="38px" viewBox="0 0 38 38" version="1.1" xmlns="http://www.w3.org/2000/svg" xmlns:xlink="http://www.w3.org/1999/xlink">
    <!-- Generator: Sketch 51.2 (57519) - http://www.bohemiancoding.com/sketch -->
    <title>twitter-icon-dark</title>
    <desc>Created with Sketch.</desc>
    <defs></defs>
    <g id="Icons" stroke="none" stroke-width="1" fill="none" fill-rule="evenodd">
        <g id="Artboard-3" transform="translate(-128.000000, -515.000000)" fill="#897F88" fill-rule="nonzero">
            <path d="M161.913435,525.554814 C161.923435,525.894814 161.934435,526.235814 161.934435,526.575814 C161.934435,536.985814 154.203435,548.994814 140.073435,548.994814 C135.733435,548.994814 131.693435,547.684814 128.293435,545.454814 C128.893435,545.524814 129.503435,545.564814 130.123435,545.564814 C133.723435,545.564814 137.043435,544.304814 139.673435,542.195814 C136.303435,542.124814 133.473435,539.854814 132.493435,536.724814 C132.963435,536.814814 133.443435,536.865814 133.934435,536.865814 C134.643435,536.865814 135.403435,536.764814 136.043435,536.584814 C132.523435,535.865814 129.953435,532.674814 129.953435,528.854814 L129.953435,528.764814 C130.953435,529.344814 132.103435,529.704814 133.363435,529.744814 C131.293435,528.334814 129.903435,525.914814 129.903435,523.184814 C129.903435,521.744814 130.263435,520.384814 130.923435,519.224814 C134.713435,523.994814 140.363435,527.124814 146.753435,527.454814 C146.613435,526.874814 146.548435,526.274814 146.548435,525.664814 C146.548435,521.314814 149.985435,517.784814 154.226435,517.784814 C156.435435,517.784814 158.434435,518.735814 159.834435,520.264814 C161.584435,519.914814 163.224435,519.264814 164.714435,518.354814 C164.143435,520.195814 162.924435,521.744814 161.333435,522.714814 C162.893435,522.524814 164.373435,522.104814 165.743435,521.474814 C164.724435,523.054814 163.413435,524.445814 161.913435,525.554814" id="twitter-icon-dark"></path>
        </g>
    </g>
</svg>