<?xml version="1.0" encoding="UTF-8"?>
<svg width="174px" height="174px" viewBox="0 0 174 174" version="1.1" xmlns="http://www.w3.org/2000/svg" xmlns:xlink="http://www.w3.org/1999/xlink">
    <!-- Generator: Sketch 51.3 (57544) - http://www.bohemiancoding.com/sketch -->
    <title>globe</title>
    <desc>Created with Sketch.</desc>
    <defs>
        <linearGradient x1="14.8848642%" y1="12.3282954%" x2="64.6384964%" y2="54.8068636%" id="linearGradient-1">
            <stop stop-color="#A2B3C7" offset="0%"></stop>
            <stop stop-color="#C9D7E2" stop-opacity="0" offset="100%"></stop>
        </linearGradient>
        <path d="M173.034789,107.27366 C162.167428,154.345372 115.198441,183.694852 68.1267292,172.827491 C21.0550171,161.96013 -8.29446306,114.991143 2.57289796,67.9194314 C13.440259,20.8477193 60.4092454,-8.50176085 107.480958,2.36560018 C154.55267,13.2329612 183.90215,60.2019477 173.034789,107.27366 Z" id="path-2"></path>
        <linearGradient x1="62.9509479%" y1="68.3852533%" x2="6.96090103%" y2="16.2815804%" id="linearGradient-4">
            <stop stop-color="#FFFFFF" stop-opacity="0" offset="0%"></stop>
            <stop stop-color="#FFFFFF" offset="100%"></stop>
        </linearGradient>
        <linearGradient x1="50%" y1="100%" x2="50%" y2="3.061617e-15%" id="linearGradient-5">
            <stop stop-color="#F29679" stop-opacity="0.590494792" offset="0%"></stop>
            <stop stop-color="#E15D44" offset="100%"></stop>
        </linearGradient>
    </defs>
    <g id="Location-and-Hotels" stroke="none" stroke-width="1" fill="none" fill-rule="evenodd">
        <g id="globe" transform="translate(-5.820312, -7.000000)">
            <g id="Globe" transform="translate(10.000000, 13.000000)">
                <g id="Group-5">
                    <mask id="mask-3" fill="white">
                        <use xlink:href="#path-2"></use>
                    </mask>
                    <use id="Mask" fill="url(#linearGradient-1)" fill-rule="nonzero" xlink:href="#path-2"></use>
                    <g id="Group-8" mask="url(#mask-3)">
                        <g transform="translate(9.000000, -1.000000)" id="Group-7">
                            <g>
                                <path d="M123.897584,70.999698 C123.057903,69.3140485 123.575011,65.7562601 124.048548,64.008714 C125.049861,60.3144659 126.032132,65.961472 129.191588,64.512141 C130.386697,63.9639708 131.286709,62.6673168 132.074222,61.6630401 C132.385269,61.2660575 133.498159,60.4902542 133.533815,60.0099913 C133.590081,59.2503898 132.854074,59.1762876 132.85942,58.6644008 C132.860164,58.5739034 132.179783,57.9475836 132.145231,57.6434205 C132.090079,57.1569687 132.839263,57.0673264 132.808292,56.7680195 C132.754957,56.2533314 133.427881,56.2040665 133.114205,55.332416 C132.212817,52.8289266 131.089028,55.1084427 131.932727,52.0998027 C132.159202,51.2924096 133.894216,48.7237186 132.233367,47.9767088 C130.918699,47.3855147 130.938999,50.7633219 130.325039,51.4541681 C129.159141,52.7660027 129.834258,52.519115 128.6345,51.2071563 C127.298168,49.7459088 126.957737,47.204916 125.510018,45.8634712 C123.110121,43.6397538 123.931119,48.377535 124.684953,49.9579523 C125.875607,52.4545691 129.449501,56.0727288 127.961045,59.3480266 C126.927934,61.6207168 125.675339,55.7142919 123.584864,56.8330436 C122.324834,57.5072665 122.842896,59.6531608 121.329564,58.999311 C120.666711,58.7130739 119.022077,54.8810079 118.859903,54.1589583 C118.285211,51.5970154 120.559131,49.2841552 120.68035,46.6800456 C120.812709,43.8317981 119.63785,40.4648207 119.16447,37.6414992 C119.043237,36.9186032 124.716056,36.4975012 125.280669,36.5391978 C128.800531,36.7986277 125.503794,36.7548105 126.034223,38.8384122 C126.246188,39.6715814 130.166458,41.7244529 130.931857,41.5044532 C132.357587,41.0948223 130.503401,38.5815804 129.851977,37.4235272 C129.044354,35.9878518 127.499546,34.6616034 126.940189,33.1610089 C126.556681,32.1321953 127.28435,29.413774 126.341233,28.8626888 C125.328485,28.2709019 123.331033,30.0068603 121.938367,29.3219894 C121.369019,29.0418924 117.573092,25.2392669 118.018793,24.7303155 C119.032343,23.5731544 123.445977,30.4903256 125.705902,27.2984365 C126.80088,25.7517269 121.352792,24.6078889 120.719486,22.9039583 C120.514622,22.3522722 121.373817,21.6600592 121.066849,20.9164466 C120.863697,20.4242584 119.518609,19.7514911 119.143092,19.4686817 C118.184998,18.7477999 117.223296,17.7894497 116.1325,17.2913574 C113.885545,16.2650828 108.780776,16.8477767 107.589419,13.8354138 C106.959552,12.2426475 108.952029,12.4725039 108.629914,11.1137684 C108.467736,10.4295527 105.377875,9.17935037 104.755627,8.80935574 C103.707059,8.18556834 101.657691,6.31702324 100.388968,6.57507128 C100.044809,6.64516429 100.787541,7.71415109 100.684434,7.7505693 C100.407765,7.84833294 99.8887073,7.94968716 99.389153,8.07031992 C98.9009786,8.18820694 97.2027721,8.10822646 96.748693,7.82048837 C95.7508763,7.18826911 97.2198871,6.92765659 96.971437,6.69858544 C96.0256197,5.82561662 94.4969193,4.99493967 93.2008416,4.57437644 C90.864769,3.81677373 88.1507771,4.15017415 85.6785717,4.11313792 C82.6781298,4.06787703 76.8140179,5.15561789 74.0783771,3.93816528 C71.8506783,2.94678343 75.8857494,1.44393924 77.5352541,1.12201465 C80.1386217,0.614197892 83.4681164,1.26959169 86.1090025,1.3352727 C90.7196722,1.44982922 95.3301294,1.56433667 99.9407501,1.67910574 C101.657697,1.72154828 103.870346,1.40404206 105.518627,1.92427556 C107.508467,2.55246781 109.615638,4.36652364 111.395192,5.42749822 C115.192539,7.69086498 118.989625,9.95439522 122.78671,12.2179255 C128.980906,15.9104461 136.273638,19.1511547 141.934747,23.6322207 C145.494051,26.4495701 147.983892,31.4284587 150.625567,35.1067644 L158.806926,46.4995099 C159.715658,47.7648764 163.37747,51.343559 163.45068,52.9658665 C163.475411,53.5159782 162.731297,54.5971955 161.764241,55.7000664 C163.037895,58.5132808 163.763204,61.7904078 164.752552,64.6919858 C165.286642,66.2583868 167.404202,70.0832214 167.164238,71.7655369 C166.813167,74.2297176 163.598739,72.5930048 162.73075,74.4753205 C162.411957,75.1667013 163.86405,77.6421858 164.580888,77.7944721 C165.590303,78.0089324 166.795129,76.3684819 167.610089,76.0976872 C170.360008,75.1849099 169.86418,77.234636 170.233273,79.7688135 C170.684227,82.8647863 171.135181,85.9607591 171.586086,89.0569444 C171.892305,91.160423 172.188749,92.012648 171.277609,93.7676909 C170.770159,94.7448365 167.718428,99.5549951 166.591225,99.88758 C164.770515,100.424524 161.052882,92.3350874 159.625873,90.5208993 C158.857938,89.5445986 156.981705,88.1469838 156.625205,86.9614247 C156.240495,85.6818176 157.125609,84.9335754 157.158329,83.676685 C157.182796,82.7357912 156.62376,81.4665336 156.238599,80.6242738 C155.372797,78.7307752 155.738798,78.5020725 153.92467,79.2829928 C151.654848,80.2602671 151.441354,82.8179993 149.142169,80.656487 C148.283148,79.8487793 147.910943,77.1981402 146.299722,78.1241863 C145.228916,78.7400083 146.009095,79.7437619 146.173095,80.5141424 C146.597568,82.505896 147.619859,86.8110575 144.519018,83.7368756 C143.131584,82.3612158 142.595014,80.3914916 141.095576,79.0810906 C139.930878,78.0633379 134.851786,74.9139235 135.400267,78.3758358 C135.731584,80.4685421 138.675399,80.9287782 139.974851,81.983462 C141.500014,83.2212221 142.526697,86.7218963 141.136514,88.4999968 C140.742938,89.003296 139.974266,90.1218449 139.128249,89.0764742 C138.688108,88.5324832 139.618075,87.3940841 139.610789,86.8040593 C139.566168,83.3395946 137.106081,83.9666821 134.952055,82.1131528 C132.735626,80.2060386 132.664896,78.2849832 129.729556,80.7184936 C125.998348,83.8113757 127.121812,88.8245038 124.869994,92.7337682 C122.879575,96.1895887 117.668253,100.254456 115.318916,94.6737686 C114.921649,93.7297613 114.636678,87.8803908 115.178756,86.916165 C116.094447,85.2868708 119.351876,85.3632536 121.099436,84.9947897 C122.112276,84.7813205 121.95049,81.6789003 121.686758,81.040864 C121.175281,79.8031828 119.718644,79.750317 119.148911,78.7058225 C117.843666,76.3128214 121.944336,75.4732394 123.158316,73.5080451 C123.741243,72.5641701 123.813806,71.7224992 123.897584,70.999698 Z M145.871717,69.0491147 C146.337413,70.594301 145.877375,72.7818201 147.08293,73.8628817 C148.148667,74.8186094 151.166331,72.7179773 152.515172,71.5533757 C153.252766,70.9165944 154.268241,69.8073391 154.391114,68.7427501 C154.50246,67.7777378 153.748271,67.0065479 153.383227,66.2180068 C151.603596,65.0404145 150.056783,60.6222723 148.119782,61.4787457 C146.530606,62.1814906 146.612381,66.4892694 145.871717,69.0491147 Z M156.093692,63.0440263 C157.346335,63.1113439 156.792459,64.0883983 157.693588,64.9847078 C160.323607,67.6002757 160.275205,64.1812801 158.749987,62.1301706 C157.977037,61.0907723 157.566874,60.1310498 157.497966,59.1595614 C154.813823,59.5829913 154.717918,54.1992452 152.194996,53.8518972 C148.518114,53.3455504 154.503792,60.2336518 154.756666,60.5347126 C155.82496,61.8067223 156.158285,61.8368176 156.093692,63.0440263 Z M8.2689005,103.636602 C8.66602589,103.939524 9.00973597,104.683168 9.31213485,105.011217 C10.4884826,106.286877 11.1030109,108.076022 12.2788401,109.302533 C14.0212246,111.119906 13.6929756,109.960346 16.2049122,110.163715 C16.6963092,110.203509 18.6767815,110.819912 19.0802469,111.217305 C19.4942245,111.625408 18.7239371,113.23387 19.2887212,113.361126 C19.845265,113.486256 20.8418059,112.731501 21.650543,113.096641 C22.493908,113.477611 22.7916949,115.35482 23.315976,116.045397 C24.3827009,117.45067 25.9438053,118.300021 27.3128988,119.454512 C29.1633976,121.014988 31.4065233,122.783194 32.9301874,124.663576 C34.2263669,126.262864 34.7473695,128.436749 35.9956074,130.071087 C38.3411909,133.141944 42.6637158,133.167365 44.1772376,137.365644 C44.4459296,138.111166 44.395424,138.984482 44.669385,139.684879 C45.0285583,140.602853 46.7082283,140.635123 45.5711654,141.841453 C44.866637,142.589074 39.5749878,141.256359 39.4871616,142.234116 C39.4328716,142.839701 43.8791628,143.251224 44.3518632,143.380728 C44.9858526,143.554409 45.7323664,143.518999 46.3491501,143.750721 C47.0098322,143.998846 45.8682713,144.701987 46.1369343,145.059751 C46.2028168,145.147721 48.2580095,144.886771 48.7847732,145.08271 C50.2727553,145.636904 51.4984436,147.475582 52.8505117,148.335329 C55.0577833,149.739074 57.543004,149.942767 59.7638394,151.069576 C60.9347413,151.663846 61.5770826,152.913606 62.6379469,153.699407 C63.6525275,154.451016 64.8732198,154.474708 65.8904554,155.159543 C68.635994,157.009041 66.7867931,159.036681 64.256039,160.20938 C63.0894777,160.75026 61.5963955,160.706891 60.4784842,161.330867 C58.8189492,162.256728 59.7972092,161.518125 58.9269944,162.908746 C58.3312564,163.861031 58.8097375,164.415441 58.0510087,165.337708 C57.5703768,165.922324 55.9795018,167.130672 55.1989215,167.266124 C53.4092489,167.576509 49.4242538,165.991145 47.5153823,165.854917 C46.9220267,165.812629 46.0445833,165.484237 45.4485328,165.585503 C45.1409835,165.63763 44.8440245,166.260621 44.9541602,166.241273 C45.1641964,166.204243 44.5222198,166.814743 44.3029772,166.866438 C43.7808106,166.989014 43.077161,166.562391 42.5339454,166.58026 C40.6913875,166.64068 38.814111,167.303367 37.1060421,166.736645 C34.5391975,165.884795 31.8008719,163.310714 29.5373616,161.848987 C27.0643545,160.252254 23.1180786,158.642695 21.1537624,156.43581 C19.9814734,155.118328 19.7479081,153.082218 19.2369046,151.332421 C18.5959274,149.137105 18.1462151,146.920127 17.0260937,144.964557 C15.4636124,142.237026 12.7993902,140.132279 11.263005,137.390624 C10.0879443,135.293866 9.82776535,132.690358 8.98214055,130.432124 C8.31560194,128.652016 6.99907209,127.168027 6.34634733,125.40857 C5.96179355,124.371679 5.81328188,123.024144 5.88891493,122.004169 C5.91273417,121.685722 7.04475813,121.730807 7.14729498,121.148003 C7.22560445,120.703109 6.24777765,119.789393 6.43974633,119.411709 C7.33968855,117.6402 9.94904949,117.729946 10.9856656,116.265357 C11.8216728,115.083997 12.1282614,110.464827 11.019053,109.124297 C9.82756417,107.6844 9.87621734,109.473198 9.08632876,108.792716 C8.39798209,108.19993 7.94870922,106.700572 7.50923054,105.89189 C7.4447981,105.773534 7.42663988,105.235696 7.45057437,104.711168 C6.99632202,104.610273 6.58639654,103.424113 6.15003862,102.405612 C4.64500348,98.8930064 5.4667305,99.3473369 5.71575781,95.8696236 C5.85020065,93.9936973 4.89753479,92.7508734 3.99186047,90.9699576 C2.70103382,88.4320801 3.29844596,87.7595771 3.08610874,84.9662988 C2.81931179,81.4527794 0.635766383,78.8068587 0.709606313,75.1192271 C0.7964728,70.7826796 0.382854952,67.0682535 2.21812263,63.1586392 C4.08925319,59.1722321 5.92406461,55.2461697 7.52078666,51.1460386 C9.04357236,47.2352505 10.6270108,43.2139908 12.6390173,39.5327869 C14.4405626,36.2366396 17.8589294,33.309959 20.8037596,30.9740102 C23.7509934,28.6363776 27.3086996,26.8807168 30.522666,24.9140591 C37.7857854,20.5263399 45.2771041,16.4680138 51.994224,11.2743331 C52.0636841,11.2207442 56.2428076,8.58387427 56.2194417,8.77526572 C56.349443,7.70985983 54.0951465,7.89551536 54.1719743,6.86260837 C54.2235907,6.1735732 56.1854447,6.04733896 56.5426227,5.92764113 C57.6992123,5.54049894 61.5138088,3.97735141 62.7365813,4.30912699 C63.8858131,4.62101401 62.7567437,5.84508499 63.5302213,6.13022072 C64.5446411,6.50433971 65.5682944,5.0105648 66.5152903,4.99793344 C67.3825633,4.98637369 67.5780392,5.73872311 67.6192734,5.74533241 C67.5864757,5.73999921 69.8131153,5.9970513 69.9806783,6.08969006 C71.9966161,7.20411881 70.5268197,8.34281052 69.0987509,9.28427555 C67.6159387,10.2621306 63.3371559,11.0460404 62.3880764,12.5261373 C61.4218596,14.0329486 63.1097316,15.1710377 62.3129068,17.1407511 C61.632734,18.822404 59.3263007,20.1890512 59.0932376,22.0305677 C58.8552003,23.9130244 61.0253737,26.8815956 61.5456863,28.7423452 C62.245413,31.2456195 61.4544112,30.927782 63.6735859,30.5878278 C65.5506637,30.3003087 69.1724569,26.8600106 70.9633657,27.3142196 C72.0872902,27.5989959 73.5698626,30.565982 73.669074,31.7915418 C73.8192219,33.6478748 71.6740133,35.5700136 71.8606292,37.3479026 C72.1003351,39.6328114 74.7434797,40.022289 72.1816688,41.8036966 C71.4730605,42.2965021 70.2614864,42.1537995 70.1676812,42.2071409 C69.5784103,42.5428011 70.0848774,41.5873683 69.1991573,42.340172 C68.991953,42.5162099 69.4180069,43.8611066 69.1860058,43.9709735 C67.8381625,44.6085804 68.874041,44.0334995 67.5645969,44.0499881 C67.0886301,44.0558457 67.5208454,43.1669997 67.2406588,43.12291 C66.8764178,43.0656833 65.9432099,43.5480528 66.1545303,43.5907953 C66.0807603,43.5757791 65.6410351,44.5204271 64.9520912,44.1930181 C64.3226589,43.8939003 63.9773944,41.8111825 63.7613712,41.1837128 C63.0615511,39.152121 62.03508,37.5734603 64.8339686,37.3377921 C65.6723402,37.2671732 66.4332316,38.3864708 67.3022014,38.0650124 C68.0145323,37.8014185 68.767202,35.7630798 68.9870653,35.0231137 C70.6998003,29.2568257 64.034298,33.9224374 62.0036555,35.4821555 C60.8920664,36.3357197 61.9096276,36.6875048 60.557956,36.6541709 C59.8246581,36.6362151 58.8297691,34.9488785 58.1156939,34.6362639 C56.8872346,34.0983301 53.757637,33.7756458 52.4441034,33.9873045 C48.5990047,34.6071659 46.0468691,37.8215906 46.9056723,41.8176718 C47.5377666,44.7593499 49.5466006,44.0446492 47.6512727,46.8044571 C46.9886618,47.7690639 44.0676601,51.0801154 45.5510964,52.5092816 C46.4885723,53.4125626 49.113591,49.9066889 50.0668651,49.3752221 C51.704408,48.4621931 53.5332536,48.8665054 54.6815895,47.402859 C56.0223885,45.6941762 55.6934274,44.6298226 57.4441367,43.1131605 C59.3582781,41.4549061 60.9613349,40.2354904 62.2247166,43.3974629 C62.6538535,44.4710636 61.8864558,46.4733163 61.7257676,47.3429112 C61.5953751,48.0473407 60.3723576,48.7580931 61.1236344,49.7115186 C62.0218479,50.8517735 63.1447606,48.8543611 64.2007461,49.0135299 C65.9600843,49.2786641 63.3846648,55.9888901 64.0227512,58.150181 C64.5928432,60.0804066 67.2957517,61.2932127 65.2432049,63.3240554 C64.2860659,64.270813 61.2267217,64.1519551 59.9121347,63.9162928 C58.1738597,63.6045303 56.6151192,61.9585063 54.8543183,61.7734055 C54.140891,61.6984716 52.5830641,61.9869363 51.9484193,62.3504036 C50.2190962,63.3409722 50.7979716,62.6236683 51.6983028,64.0214203 C51.9254372,64.3738505 52.8468795,64.5194198 53.0582326,64.9091758 C53.1871958,65.146705 53.2449775,66.3577748 53.156601,66.2314787 C53.2363458,66.3457076 53.2187065,67.1901205 53.5978167,67.6949474 C54.6231797,69.0602236 57.5169596,69.7410662 54.4309641,71.0215408 C53.9296031,71.2295154 50.6695815,71.252606 50.3817122,71.014882 C49.040393,69.9068768 51.1030363,70.2216618 50.8884644,69.460874 C50.5625693,68.3056635 46.673806,67.4651837 45.0579408,68.0554648 C43.6877762,68.5560562 43.088011,69.7362116 41.5731806,70.2428063 C39.765757,70.8472939 37.6175707,70.5277593 35.8838355,71.3182847 C34.0160079,72.1698649 32.7872712,74.4103762 30.8747328,75.1918596 C29.1448315,75.8988693 26.6959935,75.1322471 25.0315293,75.9669731 C23.6301498,76.6696809 22.5690438,78.4565923 22.1248626,79.8423642 C21.5752582,81.5577431 22.7169356,85.7055466 19.9062405,85.4376813 C18.3930246,85.2933971 17.810905,82.4290758 17.9424081,81.04007 C18.1391144,78.9642702 20.8535436,76.9348958 20.5345257,74.8024927 C20.3310627,73.4418227 17.4522936,71.180308 16.3927854,70.5777256 C15.9248067,70.3114048 15.424352,70.7918202 14.6022261,70.0580019 C13.7976424,69.3403228 13.8748431,67.470882 12.8433459,67.0068525 C9.85556641,65.663579 5.98689065,71.8547166 5.03105223,74.0991286 C4.21515207,76.0147378 3.38943734,77.6305517 3.77448194,79.5341748 C3.8797764,80.0545904 5.04360442,82.8497075 5.5195899,83.1666815 C6.48280899,83.8081517 7.17900062,83.0413672 8.22924425,83.4067423 C12.209435,84.7908534 6.3366841,89.5989648 7.64179833,93.0320577 C8.51557406,95.3312671 10.3306978,94.9096718 9.60819195,97.3167559 C9.32581999,98.2576582 8.25743106,98.9017987 8.0429076,99.887245 C7.80693997,100.971394 8.67352346,102.381504 8.33720241,103.431963 C8.31427627,103.503543 8.29151084,103.571723 8.2689005,103.636602 Z M66.8486675,20.8718361 C66.4643215,21.9732209 67.6807507,21.6032519 66.6725578,22.9951511 C66.5223304,23.2027008 63.8133235,25.2948926 63.3895354,25.4151074 C61.6127284,25.9189797 62.1437602,25.4118184 61.4716034,23.3913146 C60.8903109,21.6434236 60.3923115,22.2683574 61.54613,20.7479932 C62.3321741,19.7122588 63.9554873,19.551298 64.7056669,18.7824258 C65.2895016,18.1842488 65.3807288,18.5968671 65.7474041,17.8028125 C65.7927684,17.7042587 64.4278959,16.3472401 65.7077019,16.4562189 C71.2664281,16.9297971 68.0992758,17.2895439 66.8486675,20.8718361 Z M82.0559411,31.2586659 C81.4764006,29.6573696 81.2676702,29.1961315 82.6973081,27.7387736 C84.0298644,26.0541573 90.0467513,25.6603267 91.8687239,25.6056762 C94.3228402,25.5319719 98.4272526,26.6311134 98.7701599,29.2651381 C99.0843772,31.6791867 97.420574,35.2242927 97.2687955,37.6717987 C97.1229616,40.0179187 98.446383,43.6762025 96.5116164,45.2443989 C94.6729627,46.7347128 91.2010983,46.0104065 89.1630844,47.5429012 C86.4374371,49.5927447 85.0927439,53.7687474 82.2350566,55.6128132 C79.5909793,57.3190355 78.1624945,54.6831103 77.9139799,52.0077451 C77.6008009,48.6359763 78.1180072,46.6652884 79.7010245,43.8201692 C81.2461686,41.0430955 82.1775646,38.9627376 82.779558,35.8199391 C83.2645912,33.2875096 82.8846405,33.5494834 82.0559411,31.2586659 Z M98.6256947,51.2390071 C98.71042,49.8528581 100.394711,50.1201434 101.368447,49.5116861 C103.618916,47.7716803 105.730991,54.4615168 100.979291,53.7728478 C99.9609259,53.6252747 98.5607835,52.2988437 98.6256947,51.2390071 Z M59.0541752,68.6038801 C58.8052263,67.2443503 61.3520747,66.1832754 62.3749195,65.4639204 C62.6497002,65.2705742 64.552314,68.144241 64.6750339,68.5309965 C64.8946644,69.2233272 65.241988,70.445722 64.6069939,71.2199188 C63.4668563,72.610236 64.0614183,71.2974649 63.1722498,70.9907689 C62.448146,70.7409866 59.2687577,69.7748089 59.0541752,68.6038801 Z M17.8986382,92.3776151 C17.006826,90.2777438 15.9386572,88.9272113 14.4777367,87.1309397 C13.4816434,85.9065219 15.8385499,86.6223685 15.9004981,86.6449538 C16.5954985,86.8976436 18.0101438,89.4383613 18.3944183,90.1409425 C18.9555537,91.1664375 20.9572824,94.9005021 20.6192692,95.8632592 C19.7872705,98.2345428 18.1267363,92.9149644 17.8986382,92.3776151 Z M27.7219276,105.467112 C26.8403526,106.650936 20.6252667,101.689372 20.9864056,101.17724 C20.6380542,101.670832 24.1253051,100.469562 22.8651327,99.6937156 C23.7780175,100.255507 28.947976,103.821039 27.7219276,105.467112 Z M125.527138,96.677942 C126.988104,95.375798 128.964114,94.4173314 130.602751,93.3395594 C132.12734,92.3368725 136.539884,92.4126281 136.873947,94.1598582 C137.062469,95.144999 135.036788,95.9258831 136.416175,96.9795443 C137.024582,97.4444006 139.189471,96.0983575 139.631347,95.9337377 C142.911641,94.7115529 141.88555,97.0828019 144.637706,97.2415578 C148.189604,97.4465941 145.921565,94.0611856 147.025744,92.549286 C147.983899,91.2373992 152.324836,90.3646328 153.840695,89.8768572 C155.987276,89.1861222 156.018437,89.2063011 157.293592,90.9655061 C159.668325,94.2407744 161.125887,101.321953 165.261062,102.167606 C167.183578,102.560858 169.004316,101.370207 169.616623,103.48995 C169.916581,104.527683 168.77085,107.153392 168.536933,108.166599 L164.753431,124.554746 C163.302575,130.839093 156.373099,135.534879 152.044213,140.037422 C148.130872,144.107333 144.217956,148.177342 140.304828,152.247303 C139.550118,153.03192 135.481853,158.570949 134.079072,158.175228 C132.031725,157.59734 137.288417,149.888639 136.699368,148.039557 C136.410139,147.132806 134.874755,146.611324 134.607975,145.699457 C134.176456,144.225018 135.432662,143.53245 135.660827,142.148521 C136.201062,138.867886 134.533667,140.968171 132.183033,140.321159 C131.115827,140.027314 131.635705,138.859609 130.168939,138.893283 C129.65916,138.904991 128.822317,139.759301 128.395656,140.001536 C126.621957,141.007829 124.884235,142.651515 122.981037,143.384783 C121.4368,143.97996 119.468995,143.929302 117.840708,144.131203 C116.141886,144.341894 112.989448,145.395244 111.327934,144.939118 C108.237937,144.090963 104.381664,138.350426 102.395625,135.896294 C100.684595,133.782137 101.233703,134.215841 102.602453,132.066086 C103.947492,129.954064 103.121257,129.104225 102.948156,126.52306 C102.380493,118.057149 110.787168,115.5778 114.22355,109.200444 C115.265589,107.266298 115.332644,104.104549 116.748174,102.446476 C118.083809,100.882344 120.785282,100.836867 122.484757,99.7758265 C123.786313,98.9634332 124.382571,97.6976195 125.527138,96.677942 Z M110.328849,70.5072422 C109.911227,67.4666501 113.466293,65.9687313 114.669992,63.2655113 C115.833264,61.1912247 120.225764,67.8673288 120.293118,68.9932975 C120.399766,70.7704104 119.440137,72.9895448 117.26196,73.0685235 C114.124228,73.1825318 117.039424,71.4491285 115.928195,70.2162633 C114.297137,68.4073534 111.090142,76.0515165 110.328849,70.5072422 Z" id="Mask" fill="url(#linearGradient-4)"></path>
                            </g>
                        </g>
                    </g>
                </g>
            </g>
            <g id="Group-6" transform="translate(20.468326, 26.220677) rotate(-10.000000) translate(-20.468326, -26.220677) translate(4.468326, 2.720677)" fill-rule="nonzero">
                <path d="M24.1828037,16.6732157 L24.1828037,47.31839 C24.1828037,47.663468 23.9718391,47.943209 23.711601,47.943209 C23.4513629,47.943209 23.2403982,47.663468 23.2403982,47.31839 L23.2403982,16.6732157 C23.3817214,16.6806148 23.5328194,16.6843143 23.6936921,16.6843143 C23.8545648,16.6843143 24.017602,16.6806148 24.1828037,16.6732157 Z" id="Path-2" fill="#2F2E2F" transform="translate(23.740398, 32.308212) rotate(-30.000000) translate(-23.740398, -32.308212) "></path>
                <circle id="Oval" fill="url(#linearGradient-5)" transform="translate(11.890994, 11.770319) rotate(-30.000000) translate(-11.890994, -11.770319) " cx="11.8909939" cy="11.7703193" r="8.08946474"></circle>
            </g>
        </g>
    </g>
</svg>