<?xml version="1.0" encoding="UTF-8"?>
<svg width="385px" height="89px" viewBox="0 0 385 89" version="1.1" xmlns="http://www.w3.org/2000/svg" xmlns:xlink="http://www.w3.org/1999/xlink">
    <!-- Generator: Sketch 51.3 (57544) - http://www.bohemiancoding.com/sketch -->
    <title>transportation-icons</title>
    <desc>Created with Sketch.</desc>
    <defs></defs>
    <g id="Icons" stroke="none" stroke-width="1" fill="none" fill-rule="evenodd">
        <g id="Group-12" transform="translate(0.500000, -4.112338)" stroke="#FFDA97" stroke-width="3">
            <g id="Group-10" transform="translate(96.250000, 0.000000)">
                <g id="Group-9" transform="translate(4.281250, 10.472656)">
                    <path d="M39.1358126,32.706196 L47.6798128,24.1621957 L50.5278129,27.0101958 C55.155813,31.6381959 61.2078132,34.486196 68.6838134,34.486196 L68.6838134,27.3661958 C63.3438133,27.3661958 59.0718131,25.2301958 55.8678131,22.0261957 L49.1038129,15.2621955 C47.3238128,13.8381954 45.5438128,13.1261954 43.4078127,13.1261954 C41.2718126,13.1261954 39.4918126,13.8381954 38.4238126,15.2621955 L28.4558123,25.2301958 C27.0318122,26.6541958 26.3198122,28.4341959 26.3198122,30.2141959 C26.3198122,32.350196 27.0318122,34.130196 28.4558123,35.198196 L39.8478126,45.1661963 L39.8478126,62.9661968 L46.9678128,62.9661968 L46.9678128,40.8941962 L39.1358126,32.706196 Z" id="Page-1" stroke-linecap="round" stroke-linejoin="round"></path>
                    <path d="M68.3278134,39.5461961 C59.1882403,39.5461961 52.0278129,46.7066235 52.0278129,55.8461966 C52.0278129,64.9857698 59.1882403,72.1461971 68.3278134,72.1461971 C77.4673866,72.1461971 84.6278139,64.9857698 84.6278139,55.8461966 C84.6278139,46.7066235 77.4673866,39.5461961 68.3278134,39.5461961 Z" id="Path"></path>
                    <path d="M68.3278134,45.7911653 C62.685423,45.7911653 58.2727821,50.2038062 58.2727821,55.8461966 C58.2727821,61.4885871 62.685423,65.901228 68.3278134,65.901228 C73.9702038,65.901228 78.3828448,61.4885871 78.3828448,55.8461966 C78.3828448,50.2038062 73.9702038,45.7911653 68.3278134,45.7911653 Z" id="Path"></path>
                    <path d="M18.487812,39.5461961 C9.34823883,39.5461961 2.18781148,46.7066235 2.18781148,55.8461966 C2.18781148,64.9857698 9.34823883,72.1461971 18.487812,72.1461971 C27.6273851,72.1461971 34.7878125,64.9857698 34.7878125,55.8461966 C34.7878125,46.7066235 27.6273851,39.5461961 18.487812,39.5461961 Z" id="Path"></path>
                    <path d="M18.487812,46.9466684 C13.4925033,46.9466684 9.58828378,50.850888 9.58828378,55.8461966 C9.58828378,60.8415053 13.4925033,64.7457248 18.487812,64.7457248 C23.4831207,64.7457248 27.3873402,60.8415053 27.3873402,55.8461966 C27.3873402,50.850888 23.4831207,46.9466684 18.487812,46.9466684 Z" id="Path"></path>
                    <path d="M55.8678131,13.4061955 C58.955386,13.4061955 61.4878133,10.8737682 61.4878133,7.78619526 C61.4878133,4.69862228 58.955386,2.16619506 55.8678131,2.16619506 C52.7802401,2.16619506 50.2478129,4.69862228 50.2478129,7.78619526 C50.2478129,10.8737682 52.7802401,13.4061955 55.8678131,13.4061955 Z" id="Path"></path>
                </g>
            </g>
            <g id="Group-8" transform="translate(0.250000, 0.000000)">
                <path d="M67.8761822,73.8284578 C64.1969819,73.8284578 61.2270251,70.858501 61.2270251,67.1793008 C61.2270251,63.5001005 64.1969819,60.5301437 67.8761822,60.5301437 C71.5553824,60.5301437 74.5253392,63.5001005 74.5253392,67.1793008 C74.5253392,70.858501 71.5553824,73.8284578 67.8761822,73.8284578 L67.8761822,73.8284578 Z M52.3614823,41.7990582 L74.5253392,41.7990582 L74.5253392,24.0679726 L52.3614823,24.0679726 L52.3614823,41.7990582 Z M21.3320826,41.7990582 L43.4959396,41.7990582 L43.4959396,24.0679726 L21.3320826,24.0679726 L21.3320826,41.7990582 Z M27.9812397,73.8284578 C24.3020395,73.8284578 21.3320826,70.858501 21.3320826,67.1793008 C21.3320826,63.5001005 24.3020395,60.5301437 27.9812397,60.5301437 C31.66044,60.5301437 34.6303968,63.5001005 34.6303968,67.1793008 C34.6303968,70.858501 31.66044,73.8284578 27.9812397,73.8284578 L27.9812397,73.8284578 Z M47.9287109,6.33688711 C30.1976254,6.33688711 12.4665399,8.5532728 12.4665399,24.0679726 L12.4665399,66.1793008 C12.4665399,74.7345495 19.425991,81.6940006 27.9812397,81.6940006 L21.3320826,88.3431577 L21.3320826,90.5595434 L31.2171628,90.5595434 L40.0827056,81.6940006 L56.7942537,81.6940006 L65.6597965,90.5595434 L74.5253392,90.5595434 L74.5253392,88.3431577 L67.8761822,81.6940006 C76.4314309,81.6940006 83.390882,74.7345495 83.390882,66.1793008 L83.390882,24.0679726 C83.390882,8.5532728 67.5215604,6.33688711 47.9287109,6.33688711 L47.9287109,6.33688711 Z" id="Page-1"></path>
                <path d="M20.8014902,54.5 L75.0559316,54.5" id="Line-4"></path>
                <path d="M20.8014902,48.4726562 L75.0559316,48.4726562" id="Line-4"></path>
            </g>
            <g id="Group-2" transform="translate(192.250000, 0.000000)" stroke-linecap="round" stroke-linejoin="round">
                <path d="M88.3,34.936 L78.305,35.626 L71.505,22.242 C70.091,19.459 66.672,17.361 63.55,17.361 L32.449,17.361 C29.327,17.361 25.907,19.46 24.494,22.242 L17.694,35.627 L7.7,34.937 C6.768,34.877 6,35.593 6,36.525 L6,38.431 C6,39.323 6.542,40.462 7.234,41.024 L11.17,44.221 L11.17,67.533 L11.17,72.32 L11.17,76.724 C11.17,77.782 12.027,78.639 13.085,78.639 L22.574,78.639 C23.632,78.639 24.489,77.782 24.489,76.724 L24.489,72.319 L71.512,72.319 L71.512,76.723 C71.512,77.781 72.369,78.638 73.427,78.638 L82.916,78.638 C83.974,78.638 84.831,77.781 84.831,76.723 L84.831,72.319 L84.831,67.532 L84.831,44.22 L88.768,41.023 C89.458,40.459 90,39.32 90,38.429 L90,36.523 C90,35.592 89.239,34.877 88.3,34.936 Z M29.275,24.669 C29.774,23.686 31.346,22.721 32.449,22.721 L63.55,22.721 C64.653,22.721 66.225,23.686 66.724,24.669 L76.145,43.213 L19.854,43.213 L29.275,24.669 Z M22.775,64.181 C19.738,64.181 17.275,61.719 17.275,58.681 C17.275,55.643 19.737,53.181 22.775,53.181 C25.813,53.181 28.275,55.643 28.275,58.681 C28.275,61.719 25.813,64.181 22.775,64.181 Z M73.224,64.181 C70.186,64.181 67.724,61.719 67.724,58.681 C67.724,55.643 70.186,53.181 73.224,53.181 C76.262,53.181 78.724,55.643 78.724,58.681 C78.724,61.719 76.261,64.181 73.224,64.181 Z" id="Shape"></path>
            </g>
            <g id="Group-11" transform="translate(288.250000, 0.000000)">
                <g id="Page-1" transform="translate(14.957700, 5.536621)">
                    <path d="M33.1893939,72.7002585 C32.9838377,72.5085037 32.3328749,72.625815 31.9763405,72.7901763 C27.7790626,74.7257086 23.5255339,75.3164474 19.0388464,73.7596153 C15.2123225,72.4317599 12.3422728,70.0391108 10.3983761,66.5367091 C9.28778711,64.5359342 8.78341115,62.3206113 8.63975184,60.0523833 C8.43440474,56.8067701 8.90260448,53.6709402 10.6210794,50.8366484 C10.9669492,50.2664025 10.9073525,49.9006672 10.4736561,49.4724077 C9.28402311,48.2976216 8.10777322,47.1092433 6.92671378,45.9256745 C5.08653618,44.0813147 5.10556529,44.0923975 3.77499142,46.3121118 C0.49173818,51.7889404 -0.359343959,57.7122211 0.8635377,63.8814165 C1.72674828,68.2363641 3.71706765,72.1505055 6.89304689,75.3210479 C8.25540565,76.6808973 9.81286506,77.873876 11.3966725,78.9775644 C14.6460497,81.2418193 18.2187127,82.6612654 22.256857,82.6472549 C23.5108962,82.6428636 24.7651445,82.6326171 26.0189746,82.6485096 C30.7488584,82.7081062 34.7267786,80.7930669 38.5733772,77.9681852 C36.7181436,76.132608 34.9887948,74.3787933 33.1893939,72.7002585 Z" id="Fill-1" stroke-linecap="round" stroke-linejoin="round"></path>
                    <path d="M43.4934044,35.5647857 C45.7057998,33.0322413 47.9432884,30.5214444 50.1847502,28.0146207 C50.7186108,27.4178176 51.3296334,26.8889757 51.8492745,26.2812989 C53.9228201,23.8572831 53.2551284,19.8875181 50.4992533,18.2963918 C46.662483,16.0812781 42.8054289,13.9017132 38.9671949,11.6888996 C35.6391919,9.77030534 32.3454831,7.79065064 28.9976145,5.90760527 C27.0298791,4.80098938 25.2043393,5.16045134 23.5808008,6.70996453 C21.5973821,8.60325634 19.5719321,10.4524257 17.5636292,12.3195786 C17.4617921,12.414306 17.3469901,12.4950229 17.2457803,12.5901684 C15.5760282,14.1559922 13.9027213,15.7180521 12.2467706,17.2980955 C12.0834548,17.4540924 12.006711,17.7148539 11.9243213,17.9394392 C11.2808864,19.6940904 12.0614981,21.8142677 13.7555071,22.934685 C15.6142956,24.1640491 17.6263625,24.0737131 19.1089601,22.6852154 C21.4407579,20.5012592 23.776947,18.3214852 26.0924341,16.1203818 C26.7927472,15.4547812 27.5079071,15.3069397 28.3520886,15.8042059 C30.0513253,16.8054298 31.7413611,17.8235917 33.4654821,18.7802749 C34.2381475,19.2091618 34.2053171,19.7428133 33.7860494,20.3184961 C33.196147,21.1283834 32.561913,21.9108771 31.8931758,22.6569854 C30.2949397,24.4392393 28.6651279,26.1934722 27.0486991,27.9594154 C26.9545991,28.062298 26.867818,28.1716631 26.7737181,28.2745458 C25.4400075,29.7324683 24.1219803,31.2054468 22.7575304,32.6340938 C22.4871498,32.9174393 22.0570083,33.0912106 21.6682708,33.2108222 C20.6078684,33.5370355 19.4901696,33.7076701 18.4674073,34.1194099 C15.7648556,35.2074149 13.0922067,36.3629628 11.0010958,38.5195254 C10.4542703,39.0834981 10.4597072,39.4377322 11.0169882,39.9663651 C12.2553441,41.1409421 13.4422587,42.3696788 14.6498752,43.5768772 C15.8139967,44.7403713 15.8131602,44.739744 17.1847199,43.7872429 C21.0505566,41.103093 25.3714191,40.5882615 29.8409595,41.4462443 C33.7555192,42.1977895 37.0055237,44.1904091 39.2022357,47.6361417 C40.4790681,49.6392168 41.5271328,51.7506115 41.7964679,54.1564346 C42.3050261,58.6985366 41.5327788,62.9510197 38.8256267,66.7277752 C38.4680467,67.2267142 38.5705111,67.5065049 38.9441926,67.8753768 C40.3824587,69.2952411 41.819261,70.7171965 43.2269969,72.1671729 C43.7025155,72.656911 44.1096548,72.7024972 44.5046657,72.1500257 C45.5466662,70.6918941 46.7030506,69.2941956 47.571698,67.7373635 C50.6498133,62.2205947 50.8053919,56.3422728 49.3966105,50.3447576 C49.0678879,48.944968 48.4652297,47.6093755 47.9938933,46.2593543 C48.1477991,46.1437158 48.2264249,46.0333052 48.3117422,46.0278683 C50.1847502,45.9076294 52.0577583,45.7813263 53.9328574,45.7206841 C54.0884361,45.7156654 54.3855829,46.162954 54.3985478,46.4115871 C54.4401609,47.2093459 54.4119309,48.0148419 54.3523343,48.8130189 C54.0815354,52.449879 53.7956805,56.0854844 53.5035523,59.7206716 C53.4368459,60.5510518 53.2971597,61.3757859 53.2379813,62.2063752 C53.0717379,64.5429825 52.5506331,66.9038467 54.8173973,68.7379601 C56.4902861,70.0915362 58.5778421,70.1975555 60.1198273,68.6729265 C60.4420675,68.3544503 60.7471605,68.0171541 61.0852932,67.7168706 C61.8955986,66.9973194 62.1770622,66.0964688 62.2253668,65.027702 C62.3430964,62.4246871 62.5279506,59.8241816 62.7134321,57.2247216 C62.8493543,55.3197196 63.0442459,53.4188998 63.1862323,51.5141069 C63.4518034,47.9477172 63.7631698,44.3830004 63.9302496,40.8115921 C64.0446333,38.3710566 61.8613044,36.2471152 59.3904478,36.3173765 C55.5649695,36.4263234 51.7413732,36.6111776 47.9181951,36.7891312 C46.8103246,36.8407816 45.7074727,36.9942691 44.6004385,37.0720585 C44.0690873,37.1092802 43.5331355,37.0783318 42.7199025,37.0783318 C43.0845922,36.3493705 43.2106862,35.8886988 43.4934044,35.5647857 Z" id="Path" stroke-linecap="round" stroke-linejoin="round"></path>
                    <path d="M48.9845646,8.14278008 L48.9845651,8.14284184 C49.009322,11.2460959 51.7761531,14.0843189 54.6087183,14.0943628 C58.6321741,14.1086775 61.4091416,11.6627584 61.4151316,8.27890888 C61.4214244,4.67685113 58.803747,2.03526409 55.234099,2.03187169 L55.1148405,2.02700961 C51.8261284,1.76155236 48.9586302,4.90863382 48.9845646,8.14278008 Z" id="Path"></path>
                </g>
            </g>
        </g>
    </g>
</svg>